<svg xmlns="http://www.w3.org/2000/svg" xmlns:xlink="http://www.w3.org/1999/xlink" width="160" zoomAndPan="magnify" viewBox="0 0 120 119.999999" height="160" preserveAspectRatio="xMidYMid meet" version="1.2"><g id="8268676b15"><rect x="0" width="120" y="0" height="119.999999" style="fill:#ffffff;fill-opacity:1;stroke:none;"/><rect x="0" width="120" y="0" height="119.999999" style="fill:#ffffff;fill-opacity:1;stroke:none;"/><rect x="0" width="120" y="0" height="119.999999" style="fill:#e5243b;fill-opacity:1;stroke:none;"/><path style=" stroke:none;fill-rule:nonzero;fill:#ffffff;fill-opacity:1;" d="M 8.5 14.820312 C 7.820312 15.191406 5.863281 15.726562 5.183594 16.066406 L 5.183594 12.808594 C 6.089844 12.441406 8.613281 11.222656 9.464844 10.289062 L 12.886719 10.289062 L 12.886719 33.238281 L 8.5 33.238281 Z M 24.464844 10.273438 L 28.148438 10.273438 L 28.148438 11.398438 L 26.058594 11.398438 L 26.058594 13.921875 L 27.703125 13.921875 L 27.703125 15.039062 L 26.058594 15.039062 L 26.058594 17.953125 L 28.167969 17.953125 L 28.167969 19.046875 L 24.464844 19.046875 Z M 28.886719 10.273438 L 31 10.273438 C 32.753906 10.273438 33.75 10.835938 33.75 12.605469 C 33.75 13.65625 33.492188 14.394531 32.667969 14.726562 L 33.890625 19.050781 L 32.289062 19.050781 L 31.238281 15.03125 L 30.480469 15.03125 L 30.480469 19.050781 L 28.886719 19.050781 Z M 30.988281 14.03125 C 31.910156 14.03125 32.242188 13.628906 32.242188 12.6875 C 32.242188 11.796875 31.996094 11.363281 31.078125 11.363281 L 30.480469 11.363281 L 30.480469 14.03125 Z M 34.746094 10.273438 L 36.859375 10.273438 C 38.613281 10.273438 39.613281 10.835938 39.613281 12.605469 C 39.613281 13.65625 39.351562 14.394531 38.527344 14.726562 L 39.75 19.050781 L 38.148438 19.050781 L 37.097656 15.03125 L 36.332031 15.03125 L 36.332031 19.050781 L 34.742188 19.050781 Z M 36.847656 14.03125 C 37.769531 14.03125 38.105469 13.628906 38.105469 12.6875 C 38.105469 11.796875 37.855469 11.363281 36.9375 11.363281 L 36.332031 11.363281 L 36.332031 14.03125 Z M 41.917969 10.273438 L 43.628906 10.273438 L 45.386719 19.046875 L 43.898438 19.046875 L 43.554688 17.019531 L 42.027344 17.019531 L 41.667969 19.046875 L 40.167969 19.046875 Z M 43.378906 16 L 42.785156 12.316406 L 42.1875 16 Z M 46.046875 10.273438 L 48.113281 10.273438 C 50.25 10.273438 50.898438 11.125 50.898438 13 L 50.898438 16.195312 C 50.898438 18.125 50.230469 19.046875 48.179688 19.046875 L 46.046875 19.046875 Z M 48.136719 17.929688 C 49.230469 17.929688 49.273438 17.34375 49.273438 16.25 L 49.273438 12.894531 C 49.273438 11.839844 49.164062 11.410156 48.113281 11.410156 L 47.636719 11.410156 L 47.636719 17.929688 Z M 51.90625 10.273438 L 53.488281 10.273438 L 53.488281 19.046875 L 51.90625 19.046875 Z M 54.484375 16.238281 L 54.484375 13.109375 C 54.484375 11.3125 55.058594 10.171875 56.984375 10.171875 C 58.785156 10.171875 59.359375 11.171875 59.359375 12.699219 L 59.359375 13.433594 L 57.820312 13.433594 L 57.820312 12.675781 C 57.820312 11.941406 57.808594 11.34375 56.996094 11.34375 C 56.183594 11.34375 56.097656 11.972656 56.097656 12.773438 L 56.097656 16.578125 C 56.097656 17.53125 56.292969 17.984375 56.996094 17.984375 C 57.785156 17.984375 57.820312 17.367188 57.820312 16.585938 L 57.820312 15.796875 L 59.359375 15.796875 L 59.359375 16.5 C 59.359375 18.050781 58.839844 19.167969 56.984375 19.167969 C 55.058594 19.167969 54.484375 17.953125 54.484375 16.238281 Z M 61.570312 10.273438 L 63.28125 10.273438 L 65.035156 19.046875 L 63.550781 19.046875 L 63.203125 17.019531 L 61.679688 17.019531 L 61.320312 19.046875 L 59.820312 19.046875 Z M 63.03125 16 L 62.4375 12.316406 L 61.832031 16 Z M 68.832031 13.433594 L 68.832031 12.675781 C 68.832031 11.941406 68.824219 11.34375 68.011719 11.34375 C 67.195312 11.34375 67.113281 11.972656 67.113281 12.773438 L 67.113281 16.578125 C 67.113281 17.53125 67.308594 17.984375 68.011719 17.984375 C 68.800781 17.984375 68.832031 17.367188 68.832031 16.585938 L 68.832031 15.796875 L 70.371094 15.796875 L 70.371094 16.5 C 70.371094 17.984375 69.894531 19.078125 68.214844 19.167969 L 68.214844 19.707031 C 69.019531 19.707031 69.558594 20.066406 69.558594 20.738281 C 69.558594 21.507812 68.875 21.832031 68.085938 21.832031 C 67.820312 21.828125 67.5625 21.789062 67.308594 21.714844 L 67.308594 21.03125 C 67.496094 21.089844 67.691406 21.117188 67.890625 21.117188 C 68.269531 21.117188 68.558594 21.007812 68.558594 20.714844 C 68.558594 20.328125 68.113281 20.183594 67.605469 20.132812 L 67.605469 19.144531 C 66 18.976562 65.503906 17.824219 65.503906 16.242188 L 65.503906 13.109375 C 65.5 11.3125 66.078125 10.167969 68 10.167969 C 69.796875 10.167969 70.371094 11.167969 70.371094 12.691406 L 70.371094 13.429688 Z M 72.585938 10.273438 L 74.296875 10.273438 L 76.054688 19.046875 L 74.570312 19.046875 L 74.222656 17.019531 L 72.695312 17.019531 L 72.332031 19.046875 L 70.832031 19.046875 Z M 72.921875 8.605469 C 72.636719 8.605469 72.539062 8.773438 72.539062 9.050781 L 71.78125 9.050781 C 71.78125 8.269531 72 7.683594 72.703125 7.683594 C 73.234375 7.683594 73.589844 8.183594 74.058594 8.183594 C 74.308594 8.183594 74.402344 8.035156 74.402344 7.75 L 75.117188 7.75 C 75.117188 8.433594 75 9.117188 74.296875 9.117188 C 73.734375 9.125 73.367188 8.613281 72.921875 8.613281 Z M 74.050781 16 L 73.453125 12.316406 L 72.859375 16 Z M 76.488281 16.296875 L 76.488281 13 C 76.488281 11.222656 77.136719 10.167969 79.023438 10.167969 C 80.90625 10.167969 81.546875 11.21875 81.546875 13 L 81.546875 16.296875 C 81.546875 18.058594 80.898438 19.164062 79.023438 19.164062 C 77.148438 19.164062 76.488281 18.070312 76.488281 16.296875 Z M 79.921875 16.667969 L 79.921875 12.632812 C 79.921875 11.898438 79.800781 11.34375 79.023438 11.34375 C 78.242188 11.34375 78.113281 11.898438 78.113281 12.632812 L 78.113281 16.667969 C 78.113281 17.394531 78.230469 17.976562 79.023438 17.976562 C 79.8125 17.976562 79.921875 17.398438 79.921875 16.667969 Z M 24.464844 24.605469 L 26.535156 24.605469 C 28.671875 24.605469 29.320312 25.460938 29.320312 27.335938 L 29.320312 30.53125 C 29.320312 32.457031 28.652344 33.378906 26.601562 33.378906 L 24.464844 33.378906 Z M 26.558594 32.273438 C 27.652344 32.273438 27.695312 31.6875 27.695312 30.59375 L 27.695312 27.226562 C 27.695312 26.175781 27.585938 25.742188 26.527344 25.742188 L 26.050781 25.742188 L 26.050781 32.261719 Z M 31.527344 24.605469 L 33.238281 24.605469 L 35 33.378906 L 33.515625 33.378906 L 33.167969 31.351562 L 31.636719 31.351562 L 31.28125 33.378906 L 29.78125 33.378906 Z M 33 30.332031 L 32.40625 26.648438 L 31.800781 30.332031 Z M 38.070312 24.605469 L 40.648438 24.605469 C 42.222656 24.605469 42.894531 25.515625 42.894531 27.105469 C 42.894531 28.828125 41.960938 29.488281 40.542969 29.488281 L 39.667969 29.488281 L 39.667969 33.386719 L 38.074219 33.386719 Z M 40.28125 28.351562 C 41.160156 28.351562 41.386719 28.019531 41.386719 27.085938 C 41.386719 26.148438 41.269531 25.730469 40.28125 25.730469 L 39.667969 25.730469 L 39.667969 28.351562 Z M 43.421875 30.628906 L 43.421875 27.332031 C 43.421875 25.558594 44.074219 24.5 45.957031 24.5 C 47.84375 24.5 48.484375 25.550781 48.484375 27.332031 L 48.484375 30.625 C 48.484375 32.390625 47.832031 33.496094 45.957031 33.496094 C 44.082031 33.496094 43.421875 32.40625 43.421875 30.628906 Z M 46.859375 31 L 46.859375 26.964844 C 46.859375 26.230469 46.738281 25.675781 45.957031 25.675781 C 45.179688 25.675781 45.046875 26.230469 45.046875 26.964844 L 45.046875 31 C 45.046875 31.726562 45.167969 32.3125 45.957031 32.3125 C 46.75 32.3125 46.859375 31.734375 46.859375 31 Z M 49.445312 24.605469 L 51.613281 24.605469 C 53.152344 24.605469 54.183594 25.125 54.183594 26.859375 C 54.183594 27.929688 53.738281 28.523438 52.914062 28.65625 C 53.941406 28.851562 54.429688 29.589844 54.429688 30.824219 C 54.429688 32.5 53.605469 33.378906 51.980469 33.378906 L 49.445312 33.378906 Z M 51.589844 28.191406 C 52.546875 28.191406 52.796875 27.769531 52.796875 26.878906 C 52.796875 25.949219 52.339844 25.714844 51.363281 25.714844 L 51.039062 25.714844 L 51.039062 28.183594 Z M 51.65625 32.253906 C 52.632812 32.253906 52.902344 31.796875 52.902344 30.8125 C 52.902344 29.773438 52.558594 29.296875 51.601562 29.296875 L 51.039062 29.296875 L 51.039062 32.253906 Z M 55.265625 24.605469 L 57.375 24.605469 C 59.132812 24.605469 60.128906 25.167969 60.128906 26.9375 C 60.128906 27.988281 59.867188 28.726562 59.046875 29.0625 L 60.269531 33.386719 L 58.667969 33.386719 L 57.613281 29.363281 L 56.855469 29.363281 L 56.855469 33.386719 L 55.265625 33.386719 Z M 57.367188 28.363281 C 58.285156 28.363281 58.625 27.964844 58.625 27.019531 C 58.625 26.132812 58.375 25.699219 57.457031 25.699219 L 56.859375 25.699219 L 56.859375 28.363281 Z M 61.125 24.605469 L 64.808594 24.605469 L 64.808594 25.730469 L 62.71875 25.730469 L 62.71875 28.253906 L 64.363281 28.253906 L 64.363281 29.371094 L 62.71875 29.371094 L 62.71875 32.285156 L 64.832031 32.285156 L 64.832031 33.378906 L 61.125 33.378906 Z M 65.25 32.351562 L 67.601562 25.710938 L 65.371094 25.710938 L 65.371094 24.605469 L 69.21875 24.605469 L 69.21875 25.429688 L 66.769531 32.285156 L 69.226562 32.285156 L 69.226562 33.378906 L 65.25 33.378906 Z M 71.242188 24.605469 L 72.953125 24.605469 L 74.710938 33.378906 L 73.226562 33.378906 L 72.878906 31.351562 L 71.351562 31.351562 L 71 33.378906 L 69.5 33.378906 Z M 72.707031 30.332031 L 72.109375 26.648438 L 71.511719 30.332031 Z M 92.667969 57.230469 C 92.667969 56.785156 92.75 56.359375 92.921875 55.949219 C 93.089844 55.539062 93.332031 55.179688 93.648438 54.863281 C 93.960938 54.550781 94.320312 54.308594 94.730469 54.136719 C 95.140625 53.96875 95.570312 53.882812 96.011719 53.882812 C 96.457031 53.882812 96.882812 53.96875 97.292969 54.136719 C 97.703125 54.308594 98.066406 54.546875 98.378906 54.863281 C 98.691406 55.175781 98.933594 55.539062 99.105469 55.949219 C 99.273438 56.355469 99.359375 56.785156 99.359375 57.226562 C 99.359375 57.671875 99.277344 58.097656 99.105469 58.507812 C 98.9375 58.917969 98.695312 59.28125 98.382812 59.59375 C 98.066406 59.910156 97.707031 60.152344 97.296875 60.320312 C 96.886719 60.492188 96.460938 60.578125 96.015625 60.578125 C 95.574219 60.578125 95.144531 60.492188 94.734375 60.324219 C 94.324219 60.152344 93.960938 59.910156 93.648438 59.597656 C 93.335938 59.285156 93.09375 58.921875 92.921875 58.511719 C 92.753906 58.101562 92.667969 57.675781 92.667969 57.230469 M 99.917969 61.867188 C 100.472656 61.917969 101 62.070312 101.496094 62.316406 C 101.996094 62.5625 102.429688 62.894531 102.804688 63.304688 C 103.179688 63.714844 103.46875 64.179688 103.667969 64.699219 C 103.871094 65.21875 103.96875 65.757812 103.96875 66.3125 L 103.96875 75.59375 C 103.964844 75.761719 103.925781 75.921875 103.859375 76.074219 C 103.789062 76.230469 103.695312 76.363281 103.574219 76.480469 C 103.453125 76.597656 103.316406 76.6875 103.160156 76.75 C 103.003906 76.8125 102.839844 76.84375 102.671875 76.84375 C 102.503906 76.84375 102.34375 76.8125 102.1875 76.75 C 102.03125 76.6875 101.890625 76.597656 101.769531 76.480469 C 101.648438 76.363281 101.554688 76.230469 101.488281 76.074219 C 101.417969 75.921875 101.382812 75.761719 101.375 75.59375 L 101.375 67.625 C 101.375 67.324219 101.289062 66.921875 100.742188 66.921875 C 100.363281 66.921875 100.285156 67.320312 100.273438 67.574219 L 100.273438 91.460938 C 100.265625 91.703125 100.210938 91.9375 100.113281 92.160156 C 100.015625 92.378906 99.878906 92.578125 99.707031 92.746094 C 99.53125 92.914062 99.332031 93.042969 99.105469 93.136719 C 98.882812 93.226562 98.648438 93.273438 98.40625 93.273438 C 98.164062 93.273438 97.929688 93.226562 97.703125 93.136719 C 97.480469 93.042969 97.28125 92.914062 97.105469 92.746094 C 96.929688 92.578125 96.796875 92.378906 96.699219 92.160156 C 96.601562 91.9375 96.546875 91.703125 96.539062 91.460938 L 96.539062 77.695312 C 96.554688 77.542969 96.507812 77.410156 96.402344 77.300781 C 96.296875 77.191406 96.164062 77.140625 96.011719 77.148438 C 95.859375 77.140625 95.726562 77.191406 95.621094 77.300781 C 95.511719 77.410156 95.460938 77.542969 95.472656 77.695312 L 95.472656 91.460938 C 95.472656 91.707031 95.425781 91.945312 95.328125 92.175781 C 95.234375 92.402344 95.101562 92.605469 94.925781 92.777344 C 94.75 92.953125 94.550781 93.089844 94.320312 93.183594 C 94.09375 93.277344 93.855469 93.324219 93.609375 93.324219 C 93.359375 93.324219 93.125 93.277344 92.894531 93.183594 C 92.667969 93.089844 92.464844 92.953125 92.289062 92.777344 C 92.117188 92.605469 91.980469 92.402344 91.886719 92.175781 C 91.792969 91.945312 91.746094 91.707031 91.746094 91.460938 L 91.746094 67.574219 C 91.734375 67.320312 91.652344 66.921875 91.277344 66.921875 C 90.726562 66.921875 90.644531 67.324219 90.644531 67.625 L 90.644531 75.59375 C 90.636719 75.761719 90.601562 75.921875 90.53125 76.074219 C 90.464844 76.230469 90.367188 76.363281 90.246094 76.480469 C 90.125 76.597656 89.988281 76.6875 89.832031 76.75 C 89.675781 76.8125 89.515625 76.84375 89.347656 76.84375 C 89.175781 76.84375 89.015625 76.8125 88.859375 76.75 C 88.703125 76.6875 88.566406 76.597656 88.445312 76.480469 C 88.324219 76.363281 88.230469 76.230469 88.160156 76.074219 C 88.089844 75.921875 88.054688 75.761719 88.046875 75.59375 L 88.046875 66.3125 C 88.046875 65.757812 88.148438 65.21875 88.351562 64.699219 C 88.550781 64.179688 88.839844 63.714844 89.214844 63.304688 C 89.589844 62.894531 90.027344 62.5625 90.523438 62.316406 C 91.023438 62.066406 91.550781 61.917969 92.105469 61.867188 C 92.1875 61.855469 92.269531 61.847656 92.351562 61.847656 L 99.667969 61.847656 C 99.75 61.847656 99.835938 61.855469 99.921875 61.867188 M 72.757812 58.988281 C 72.757812 58.570312 72.675781 58.164062 72.515625 57.777344 C 72.355469 57.386719 72.125 57.046875 71.828125 56.75 C 71.53125 56.453125 71.191406 56.222656 70.800781 56.0625 C 70.414062 55.902344 70.011719 55.820312 69.589844 55.820312 C 69.171875 55.820312 68.765625 55.902344 68.378906 56.0625 C 67.988281 56.222656 67.648438 56.453125 67.351562 56.75 C 67.054688 57.046875 66.824219 57.386719 66.664062 57.777344 C 66.503906 58.164062 66.421875 58.570312 66.421875 58.988281 C 66.421875 59.410156 66.503906 59.8125 66.664062 60.199219 C 66.824219 60.589844 67.054688 60.929688 67.351562 61.226562 C 67.648438 61.523438 67.988281 61.753906 68.378906 61.914062 C 68.765625 62.074219 69.171875 62.15625 69.589844 62.15625 C 70.011719 62.15625 70.414062 62.074219 70.800781 61.914062 C 71.191406 61.753906 71.53125 61.523438 71.828125 61.226562 C 72.125 60.929688 72.355469 60.589844 72.515625 60.199219 C 72.675781 59.8125 72.757812 59.410156 72.757812 58.988281 M 63.203125 66.167969 L 60.566406 74.746094 C 60.566406 74.746094 60.097656 76.316406 61.433594 76.710938 C 62.765625 77.101562 63.167969 75.566406 63.167969 75.566406 L 65.292969 68.402344 C 65.292969 68.402344 65.40625 67.851562 65.820312 67.96875 C 66.234375 68.089844 66.078125 68.679688 66.078125 68.679688 L 62.382812 82.09375 L 65.820312 82.09375 L 65.820312 91.703125 C 65.820312 91.921875 65.863281 92.132812 65.945312 92.335938 C 66.03125 92.539062 66.148438 92.714844 66.304688 92.871094 C 66.457031 93.027344 66.636719 93.144531 66.839844 93.230469 C 67.042969 93.3125 67.253906 93.355469 67.472656 93.355469 C 67.691406 93.355469 67.902344 93.3125 68.105469 93.230469 C 68.304688 93.144531 68.484375 93.027344 68.640625 92.871094 C 68.792969 92.714844 68.914062 92.539062 68.996094 92.335938 C 69.082031 92.132812 69.125 91.921875 69.125 91.703125 L 69.125 82.101562 L 70.0625 82.101562 L 70.0625 91.710938 C 70.0625 91.929688 70.105469 92.140625 70.1875 92.34375 C 70.269531 92.546875 70.390625 92.726562 70.546875 92.878906 C 70.699219 93.035156 70.878906 93.152344 71.082031 93.238281 C 71.285156 93.320312 71.496094 93.363281 71.714844 93.363281 C 71.933594 93.363281 72.144531 93.320312 72.34375 93.238281 C 72.546875 93.152344 72.726562 93.035156 72.882812 92.878906 C 73.035156 92.726562 73.15625 92.546875 73.238281 92.34375 C 73.324219 92.140625 73.363281 91.929688 73.363281 91.710938 L 73.363281 82.101562 L 76.804688 82.101562 L 73.109375 68.6875 C 73.109375 68.6875 72.953125 68.097656 73.363281 67.976562 C 73.777344 67.859375 73.894531 68.410156 73.894531 68.410156 L 76.019531 75.578125 C 76.019531 75.578125 76.421875 77.113281 77.75 76.71875 C 79.074219 76.324219 78.613281 74.753906 78.613281 74.753906 L 75.972656 66.167969 C 75.972656 66.167969 75.035156 63.6875 72.945312 63.6875 L 66.230469 63.6875 C 64.144531 63.6875 63.203125 66.167969 63.203125 66.167969 M 53.773438 58.988281 C 53.773438 58.570312 53.691406 58.164062 53.53125 57.777344 C 53.371094 57.386719 53.140625 57.046875 52.84375 56.75 C 52.546875 56.453125 52.203125 56.222656 51.816406 56.0625 C 51.429688 55.902344 51.023438 55.820312 50.605469 55.820312 C 50.183594 55.820312 49.78125 55.902344 49.394531 56.0625 C 49.003906 56.222656 48.664062 56.453125 48.367188 56.75 C 48.070312 57.046875 47.839844 57.386719 47.679688 57.777344 C 47.519531 58.164062 47.4375 58.570312 47.4375 58.988281 C 47.4375 59.410156 47.519531 59.8125 47.679688 60.199219 C 47.839844 60.589844 48.070312 60.929688 48.367188 61.226562 C 48.664062 61.523438 49.003906 61.753906 49.394531 61.914062 C 49.78125 62.074219 50.183594 62.15625 50.605469 62.15625 C 51.023438 62.15625 51.429688 62.074219 51.816406 61.914062 C 52.203125 61.753906 52.546875 61.523438 52.84375 61.226562 C 53.140625 60.929688 53.371094 60.589844 53.53125 60.199219 C 53.691406 59.8125 53.773438 59.410156 53.773438 58.988281 M 44.214844 66.167969 L 41.582031 74.742188 C 41.582031 74.742188 41.113281 76.316406 42.445312 76.707031 C 43.78125 77.101562 44.175781 75.566406 44.175781 75.566406 L 46.300781 68.398438 C 46.300781 68.398438 46.417969 67.847656 46.828125 67.96875 C 47.242188 68.089844 47.089844 68.675781 47.089844 68.675781 L 43.390625 82.089844 L 46.832031 82.089844 L 46.832031 91.703125 C 46.832031 91.921875 46.875 92.132812 46.960938 92.332031 C 47.042969 92.535156 47.164062 92.714844 47.316406 92.871094 C 47.472656 93.023438 47.652344 93.144531 47.851562 93.226562 C 48.054688 93.3125 48.265625 93.351562 48.484375 93.351562 C 48.703125 93.351562 48.914062 93.3125 49.117188 93.226562 C 49.320312 93.144531 49.496094 93.023438 49.652344 92.871094 C 49.808594 92.714844 49.925781 92.535156 50.011719 92.332031 C 50.09375 92.132812 50.136719 91.921875 50.136719 91.703125 L 50.136719 82.101562 L 51.074219 82.101562 L 51.074219 91.710938 C 51.074219 91.929688 51.117188 92.140625 51.199219 92.34375 C 51.285156 92.546875 51.402344 92.726562 51.558594 92.878906 C 51.714844 93.035156 51.890625 93.152344 52.09375 93.238281 C 52.296875 93.320312 52.507812 93.363281 52.726562 93.363281 C 52.945312 93.363281 53.15625 93.320312 53.359375 93.238281 C 53.5625 93.152344 53.738281 93.035156 53.894531 92.878906 C 54.050781 92.726562 54.167969 92.546875 54.253906 92.34375 C 54.335938 92.140625 54.378906 91.929688 54.378906 91.710938 L 54.378906 82.101562 L 57.816406 82.101562 L 54.121094 68.6875 C 54.121094 68.6875 53.964844 68.097656 54.378906 67.976562 C 54.792969 67.859375 54.910156 68.410156 54.910156 68.410156 L 57.03125 75.578125 C 57.03125 75.578125 57.433594 77.113281 58.761719 76.71875 C 60.089844 76.324219 59.625 74.753906 59.625 74.753906 L 56.988281 66.167969 C 56.988281 66.167969 56.046875 63.6875 53.960938 63.6875 L 47.246094 63.6875 C 45.167969 63.6875 44.214844 66.167969 44.214844 66.167969 M 83.402344 76.726562 C 83.75 76.726562 84.089844 76.660156 84.410156 76.527344 C 84.734375 76.394531 85.019531 76.203125 85.265625 75.957031 C 85.515625 75.707031 85.707031 75.421875 85.839844 75.101562 C 85.972656 74.777344 86.039062 74.441406 86.039062 74.089844 C 86.039062 73.742188 85.972656 73.402344 85.839844 73.082031 C 85.707031 72.757812 85.515625 72.472656 85.269531 72.226562 C 85.019531 71.976562 84.734375 71.785156 84.414062 71.652344 C 84.089844 71.519531 83.753906 71.453125 83.402344 71.453125 C 83.054688 71.453125 82.714844 71.519531 82.394531 71.652344 C 82.070312 71.785156 81.785156 71.976562 81.535156 72.222656 C 81.289062 72.46875 81.097656 72.753906 80.964844 73.078125 C 80.832031 73.402344 80.761719 73.738281 80.761719 74.089844 C 80.761719 74.4375 80.828125 74.773438 80.960938 75.097656 C 81.097656 75.421875 81.285156 75.707031 81.535156 75.957031 C 81.78125 76.203125 82.066406 76.394531 82.390625 76.527344 C 82.714844 76.660156 83.050781 76.730469 83.402344 76.726562 M 77.078125 84.925781 C 76.945312 85.234375 76.839844 85.886719 77.460938 86.171875 C 78.1875 86.507812 78.589844 85.804688 78.589844 85.804688 L 80.023438 81.230469 C 80.023438 81.230469 80.273438 80.925781 80.273438 81.242188 L 80.273438 92.007812 C 80.273438 92.1875 80.308594 92.359375 80.378906 92.527344 C 80.445312 92.691406 80.542969 92.839844 80.671875 92.964844 C 80.796875 93.09375 80.945312 93.191406 81.109375 93.257812 C 81.277344 93.328125 81.449219 93.363281 81.628906 93.363281 C 81.808594 93.363281 81.980469 93.328125 82.144531 93.257812 C 82.3125 93.191406 82.457031 93.09375 82.585938 92.964844 C 82.710938 92.839844 82.808594 92.691406 82.878906 92.527344 C 82.949219 92.359375 82.980469 92.1875 82.980469 92.007812 L 82.980469 87.761719 C 82.980469 87.761719 82.902344 87.160156 83.386719 87.160156 C 83.871094 87.160156 83.796875 87.761719 83.796875 87.761719 L 83.796875 92.007812 C 83.796875 92.1875 83.832031 92.359375 83.898438 92.527344 C 83.96875 92.695312 84.066406 92.839844 84.195312 92.96875 C 84.320312 93.09375 84.46875 93.191406 84.632812 93.261719 C 84.800781 93.332031 84.972656 93.363281 85.152344 93.363281 C 85.332031 93.363281 85.507812 93.332031 85.671875 93.261719 C 85.839844 93.191406 85.984375 93.09375 86.113281 92.96875 C 86.238281 92.839844 86.335938 92.695312 86.40625 92.527344 C 86.476562 92.359375 86.511719 92.1875 86.511719 92.007812 L 86.511719 81.242188 C 86.511719 80.925781 86.675781 81.148438 86.675781 81.148438 L 87.800781 84.28125 C 87.800781 84.28125 88.289062 85.683594 88.4375 85.742188 C 88.5625 85.792969 88.6875 85.820312 88.820312 85.820312 C 88.953125 85.820312 89.082031 85.796875 89.203125 85.746094 C 89.328125 85.695312 89.433594 85.621094 89.53125 85.527344 C 89.625 85.433594 89.695312 85.324219 89.746094 85.203125 C 89.890625 84.863281 89.855469 84.542969 89.640625 84.238281 L 89.640625 84.230469 C 89.609375 84.128906 87.960938 80.089844 87.765625 79.519531 C 87.171875 77.785156 86.089844 77.796875 85.046875 77.769531 C 84.003906 77.742188 83.378906 77.769531 83.378906 77.769531 C 83.378906 77.769531 82.714844 77.742188 81.335938 77.785156 C 79.960938 77.824219 79.527344 78.53125 78.003906 82.433594 C 77.785156 82.996094 77.054688 84.8125 77.046875 84.921875 Z M 25.464844 57.230469 C 25.464844 56.785156 25.378906 56.359375 25.207031 55.949219 C 25.039062 55.539062 24.796875 55.179688 24.484375 54.863281 C 24.167969 54.550781 23.808594 54.308594 23.398438 54.136719 C 22.988281 53.96875 22.5625 53.882812 22.117188 53.882812 C 21.675781 53.882812 21.246094 53.96875 20.835938 54.136719 C 20.425781 54.308594 20.066406 54.546875 19.75 54.863281 C 19.4375 55.175781 19.195312 55.539062 19.027344 55.949219 C 18.855469 56.355469 18.769531 56.785156 18.769531 57.226562 C 18.769531 57.671875 18.855469 58.097656 19.023438 58.507812 C 19.191406 58.917969 19.433594 59.28125 19.75 59.59375 C 20.0625 59.910156 20.421875 60.152344 20.832031 60.320312 C 21.242188 60.492188 21.667969 60.578125 22.113281 60.578125 C 22.558594 60.578125 22.984375 60.492188 23.394531 60.324219 C 23.804688 60.152344 24.167969 59.910156 24.480469 59.597656 C 24.796875 59.285156 25.039062 58.921875 25.207031 58.511719 C 25.378906 58.101562 25.464844 57.675781 25.464844 57.230469 M 18.203125 61.867188 C 17.652344 61.917969 17.125 62.070312 16.625 62.316406 C 16.128906 62.566406 15.691406 62.894531 15.316406 63.304688 C 14.941406 63.714844 14.652344 64.179688 14.453125 64.699219 C 14.253906 65.21875 14.152344 65.757812 14.152344 66.3125 L 14.152344 75.59375 C 14.152344 75.765625 14.183594 75.929688 14.25 76.089844 C 14.316406 76.25 14.410156 76.390625 14.53125 76.511719 C 14.652344 76.632812 14.792969 76.726562 14.953125 76.792969 C 15.113281 76.859375 15.277344 76.890625 15.449219 76.890625 C 15.621094 76.890625 15.789062 76.859375 15.945312 76.792969 C 16.105469 76.726562 16.246094 76.632812 16.367188 76.511719 C 16.488281 76.390625 16.582031 76.25 16.648438 76.089844 C 16.714844 75.929688 16.75 75.765625 16.75 75.59375 L 16.75 67.625 C 16.75 67.324219 16.835938 66.921875 17.382812 66.921875 C 17.761719 66.921875 17.839844 67.320312 17.851562 67.574219 L 17.851562 91.460938 C 17.851562 91.707031 17.902344 91.945312 17.996094 92.175781 C 18.089844 92.402344 18.222656 92.605469 18.398438 92.777344 C 18.574219 92.953125 18.773438 93.089844 19.003906 93.183594 C 19.230469 93.277344 19.46875 93.324219 19.714844 93.324219 C 19.964844 93.324219 20.203125 93.277344 20.429688 93.183594 C 20.65625 93.089844 20.859375 92.953125 21.035156 92.777344 C 21.207031 92.605469 21.34375 92.402344 21.4375 92.175781 C 21.53125 91.945312 21.578125 91.707031 21.578125 91.460938 L 21.578125 77.695312 C 21.570312 77.542969 21.617188 77.414062 21.722656 77.304688 C 21.832031 77.195312 21.960938 77.144531 22.113281 77.148438 C 22.265625 77.140625 22.398438 77.191406 22.503906 77.300781 C 22.613281 77.410156 22.660156 77.542969 22.648438 77.695312 L 22.648438 91.460938 C 22.640625 91.714844 22.683594 91.957031 22.777344 92.191406 C 22.867188 92.425781 23 92.636719 23.175781 92.816406 C 23.351562 92.996094 23.554688 93.136719 23.789062 93.234375 C 24.019531 93.332031 24.261719 93.382812 24.515625 93.382812 C 24.765625 93.382812 25.007812 93.332031 25.242188 93.234375 C 25.472656 93.136719 25.675781 92.996094 25.851562 92.816406 C 26.027344 92.636719 26.160156 92.425781 26.253906 92.191406 C 26.34375 91.957031 26.386719 91.714844 26.378906 91.460938 L 26.378906 67.574219 C 26.386719 67.320312 26.472656 66.921875 26.847656 66.921875 C 27.398438 66.921875 27.480469 67.324219 27.480469 67.625 L 27.480469 75.59375 C 27.484375 75.761719 27.523438 75.921875 27.589844 76.074219 C 27.660156 76.230469 27.753906 76.363281 27.875 76.480469 C 27.996094 76.597656 28.136719 76.6875 28.292969 76.75 C 28.449219 76.8125 28.609375 76.84375 28.777344 76.84375 C 28.945312 76.84375 29.109375 76.8125 29.261719 76.75 C 29.417969 76.6875 29.558594 76.597656 29.679688 76.480469 C 29.800781 76.363281 29.894531 76.230469 29.964844 76.074219 C 30.03125 75.921875 30.070312 75.761719 30.074219 75.59375 L 30.074219 66.3125 C 30.074219 65.757812 29.976562 65.21875 29.773438 64.699219 C 29.574219 64.179688 29.285156 63.714844 28.910156 63.304688 C 28.535156 62.894531 28.097656 62.5625 27.597656 62.316406 C 27.101562 62.066406 26.574219 61.917969 26.019531 61.867188 C 25.9375 61.855469 25.855469 61.847656 25.773438 61.847656 L 18.457031 61.847656 C 18.371094 61.847656 18.289062 61.855469 18.203125 61.867188 "/><path style=" stroke:none;fill-rule:nonzero;fill:#ffffff;fill-opacity:1;" d="M 12.316406 93.410156 C 12.269531 93.410156 12.226562 93.40625 12.183594 93.398438 C 11.988281 93.359375 11.835938 93.261719 11.726562 93.097656 C 11.613281 92.933594 11.578125 92.757812 11.613281 92.5625 L 14.585938 76.808594 C 14.617188 76.609375 14.71875 76.453125 14.878906 76.339844 C 15.042969 76.226562 15.222656 76.1875 15.421875 76.222656 C 15.617188 76.261719 15.769531 76.363281 15.882812 76.527344 C 15.992188 76.695312 16.027344 76.875 15.984375 77.070312 L 13.011719 92.832031 C 12.980469 93 12.898438 93.136719 12.765625 93.246094 C 12.636719 93.355469 12.484375 93.410156 12.316406 93.410156 Z M 31.667969 75.347656 C 31.554688 75.164062 31.398438 75.035156 31.199219 74.960938 C 31 74.882812 30.796875 74.875 30.589844 74.929688 C 30.386719 74.988281 30.21875 75.101562 30.089844 75.273438 C 29.957031 75.441406 29.890625 75.632812 29.890625 75.847656 C 29.902344 75.992188 29.9375 76.132812 29.984375 76.269531 L 32.652344 81.082031 C 32.75 81.285156 32.804688 81.496094 32.816406 81.71875 L 32.816406 92.050781 C 32.816406 92.222656 32.851562 92.390625 32.917969 92.546875 C 32.984375 92.707031 33.078125 92.847656 33.199219 92.96875 C 33.320312 93.089844 33.460938 93.183594 33.621094 93.25 C 33.777344 93.316406 33.945312 93.351562 34.117188 93.351562 C 34.289062 93.351562 34.453125 93.316406 34.613281 93.25 C 34.773438 93.183594 34.914062 93.089844 35.035156 92.96875 C 35.15625 92.847656 35.25 92.707031 35.316406 92.546875 C 35.382812 92.390625 35.414062 92.222656 35.414062 92.050781 L 35.414062 87.980469 C 35.414062 87.980469 35.339844 87.40625 35.808594 87.40625 C 36.273438 87.40625 36.199219 87.980469 36.199219 87.980469 L 36.199219 92.058594 C 36.199219 92.234375 36.234375 92.398438 36.300781 92.558594 C 36.363281 92.71875 36.460938 92.859375 36.582031 92.980469 C 36.703125 93.101562 36.84375 93.195312 37.003906 93.261719 C 37.164062 93.328125 37.328125 93.363281 37.5 93.363281 C 37.675781 93.363281 37.839844 93.328125 38 93.261719 C 38.160156 93.195312 38.300781 93.101562 38.421875 92.980469 C 38.542969 92.859375 38.636719 92.71875 38.703125 92.558594 C 38.769531 92.398438 38.804688 92.234375 38.804688 92.058594 L 38.804688 81.726562 C 38.816406 81.503906 38.875 81.292969 38.96875 81.089844 L 41.429688 76.648438 C 41.429688 76.648438 41.726562 76.007812 41.726562 75.855469 C 41.726562 75.589844 41.632812 75.363281 41.445312 75.175781 C 41.257812 74.988281 41.03125 74.898438 40.765625 74.898438 C 40.410156 74.894531 40.140625 75.046875 39.953125 75.347656 L 39.941406 75.347656 C 39.863281 75.414062 38.632812 77.609375 38.226562 78.015625 C 37.796875 78.445312 37.414062 78.398438 37.414062 78.398438 L 34.207031 78.398438 C 34.207031 78.398438 33.816406 78.445312 33.390625 78.015625 C 32.960938 77.582031 31.753906 75.414062 31.675781 75.347656 Z M 31.667969 75.347656 "/><path style=" stroke:none;fill-rule:nonzero;fill:#ffffff;fill-opacity:1;" d="M 35.804688 76.726562 C 36.152344 76.730469 36.488281 76.660156 36.8125 76.527344 C 37.136719 76.394531 37.421875 76.203125 37.667969 75.957031 C 37.917969 75.710938 38.109375 75.425781 38.242188 75.101562 C 38.375 74.777344 38.441406 74.441406 38.441406 74.089844 C 38.445312 73.742188 38.375 73.40625 38.242188 73.082031 C 38.109375 72.757812 37.917969 72.472656 37.671875 72.226562 C 37.425781 71.976562 37.140625 71.789062 36.816406 71.652344 C 36.492188 71.519531 36.15625 71.453125 35.808594 71.453125 C 35.457031 71.453125 35.121094 71.519531 34.796875 71.652344 C 34.472656 71.785156 34.1875 71.976562 33.941406 72.222656 C 33.691406 72.46875 33.503906 72.753906 33.367188 73.078125 C 33.234375 73.402344 33.167969 73.738281 33.167969 74.089844 C 33.167969 74.4375 33.234375 74.773438 33.367188 75.097656 C 33.5 75.421875 33.691406 75.707031 33.9375 75.957031 C 34.1875 76.203125 34.472656 76.394531 34.792969 76.527344 C 35.117188 76.660156 35.453125 76.730469 35.804688 76.726562 M 35.808594 80.433594 L 38.789062 82.605469 L 40.207031 87.824219 L 31.40625 87.824219 L 32.824219 82.605469 Z M 35.808594 80.433594 "/></g></svg>