<svg xmlns="http://www.w3.org/2000/svg" xmlns:xlink="http://www.w3.org/1999/xlink" width="160" zoomAndPan="magnify" viewBox="0 0 120 119.999999" height="160" preserveAspectRatio="xMidYMid meet" version="1.2"><g id="93b46ea8d2"><rect x="0" width="120" y="0" height="119.999999" style="fill:#ffffff;fill-opacity:1;stroke:none;"/><rect x="0" width="120" y="0" height="119.999999" style="fill:#ffffff;fill-opacity:1;stroke:none;"/><rect x="0" width="120" y="0" height="119.999999" style="fill:#56c02b;fill-opacity:1;stroke:none;"/><path style=" stroke:none;fill-rule:nonzero;fill:#ffffff;fill-opacity:1;" d="M 8.128906 14.820312 C 7.449219 15.191406 5.5 15.726562 4.816406 16.066406 L 4.816406 12.808594 C 5.722656 12.441406 8.242188 11.222656 9.09375 10.289062 L 12.523438 10.289062 L 12.523438 33.238281 L 8.128906 33.238281 Z M 13.089844 26.578125 L 17.332031 26.578125 C 17.332031 29.101562 17.644531 30.414062 19.230469 30.347656 C 20.898438 30.292969 20.988281 28.421875 20.988281 25.417969 C 20.988281 22.980469 20.734375 21.25 19.035156 21.25 C 18.011719 21.25 17.367188 21.960938 17.078125 23.320312 L 13.316406 23.320312 L 13.625 10.285156 L 24.167969 10.285156 L 24.167969 14.058594 L 17.195312 14.058594 L 16.96875 19.128906 C 17.421875 18.5625 18.585938 18.109375 19.859375 18.023438 C 23.402344 17.710938 25.128906 20.523438 25.128906 25.21875 C 25.128906 30.09375 24.195312 33.605469 18.980469 33.605469 C 14.136719 33.605469 13.089844 30.832031 13.089844 26.578125 Z M 37.820312 10.273438 L 39.226562 10.273438 L 40.394531 16.476562 L 41.488281 10.273438 L 42.929688 10.273438 L 41.164062 19.046875 L 39.59375 19.046875 Z M 43.539062 10.273438 L 45.121094 10.273438 L 45.121094 19.046875 L 43.539062 19.046875 Z M 46.152344 10.273438 L 48.21875 10.273438 C 50.355469 10.273438 51 11.125 51 13 L 51 16.195312 C 51 18.125 50.332031 19.046875 48.28125 19.046875 L 46.148438 19.046875 Z M 48.242188 17.929688 C 49.335938 17.929688 49.378906 17.34375 49.378906 16.25 L 49.378906 12.894531 C 49.378906 11.839844 49.273438 11.410156 48.214844 11.410156 L 47.738281 11.410156 L 47.738281 17.929688 Z M 53.105469 10.273438 L 54.816406 10.273438 L 56.574219 19.046875 L 55.089844 19.046875 L 54.742188 17.019531 L 53.214844 17.019531 L 52.855469 19.046875 L 51.355469 19.046875 Z M 54.566406 16 L 53.972656 12.316406 L 53.375 16 Z M 39.109375 25.785156 L 37.710938 25.785156 L 37.710938 24.605469 L 42.078125 24.605469 L 42.078125 25.785156 L 40.714844 25.785156 L 40.714844 33.378906 L 39.109375 33.378906 Z M 42.554688 24.605469 L 46.238281 24.605469 L 46.238281 25.730469 L 44.148438 25.730469 L 44.148438 28.253906 L 45.792969 28.253906 L 45.792969 29.371094 L 44.148438 29.371094 L 44.148438 32.285156 L 46.261719 32.285156 L 46.261719 33.378906 L 42.554688 33.378906 Z M 46.863281 24.605469 L 48.976562 24.605469 C 50.734375 24.605469 51.730469 25.167969 51.730469 26.9375 C 51.730469 27.988281 51.46875 28.726562 50.648438 29.0625 L 51.871094 33.386719 L 50.269531 33.386719 L 49.214844 29.363281 L 48.457031 29.363281 L 48.457031 33.386719 L 46.863281 33.386719 Z M 48.96875 28.363281 C 49.886719 28.363281 50.226562 27.964844 50.226562 27.019531 C 50.226562 26.132812 49.976562 25.699219 49.058594 25.699219 L 48.460938 25.699219 L 48.460938 28.363281 Z M 52.617188 24.605469 L 54.730469 24.605469 C 56.484375 24.605469 57.484375 25.167969 57.484375 26.9375 C 57.484375 27.988281 57.222656 28.726562 56.398438 29.0625 L 57.625 33.386719 L 56.019531 33.386719 L 54.96875 29.363281 L 54.210938 29.363281 L 54.210938 33.386719 L 52.617188 33.386719 Z M 54.71875 28.363281 C 55.640625 28.363281 55.976562 27.964844 55.976562 27.019531 C 55.976562 26.132812 55.726562 25.699219 54.808594 25.699219 L 54.214844 25.699219 L 54.214844 28.363281 Z M 58.371094 24.605469 L 62.054688 24.605469 L 62.054688 25.730469 L 59.964844 25.730469 L 59.964844 28.253906 L 61.609375 28.253906 L 61.609375 29.371094 L 59.964844 29.371094 L 59.964844 32.285156 L 62.074219 32.285156 L 62.074219 33.378906 L 58.371094 33.378906 Z M 62.464844 30.824219 L 63.839844 30.550781 C 63.886719 31.589844 64.132812 32.261719 64.839844 32.261719 C 65.351562 32.261719 65.566406 31.917969 65.566406 31.441406 C 65.566406 30.683594 65.175781 30.261719 64.601562 29.761719 L 63.5 28.796875 C 62.871094 28.253906 62.480469 27.648438 62.480469 26.671875 C 62.480469 25.285156 63.347656 24.507812 64.746094 24.507812 C 66.390625 24.507812 66.859375 25.613281 66.945312 26.890625 L 65.566406 27.128906 C 65.535156 26.304688 65.417969 25.6875 64.714844 25.6875 C 64.238281 25.6875 63.976562 26.046875 63.976562 26.511719 C 63.976562 27.105469 64.226562 27.433594 64.691406 27.832031 L 65.785156 28.796875 C 66.5 29.414062 67.097656 30.183594 67.097656 31.34375 C 67.097656 32.609375 66.207031 33.5 64.898438 33.5 C 63.289062 33.5 62.53125 32.566406 62.464844 30.824219 Z M 68.585938 25.785156 L 67.1875 25.785156 L 67.1875 24.605469 L 71.554688 24.605469 L 71.554688 25.785156 L 70.191406 25.785156 L 70.191406 33.378906 L 68.585938 33.378906 Z M 72.03125 24.605469 L 74.144531 24.605469 C 75.898438 24.605469 76.894531 25.167969 76.894531 26.9375 C 76.894531 27.988281 76.636719 28.726562 75.8125 29.0625 L 77.035156 33.386719 L 75.433594 33.386719 L 74.382812 29.363281 L 73.625 29.363281 L 73.625 33.386719 L 72.03125 33.386719 Z M 74.132812 28.363281 C 75.054688 28.363281 75.390625 27.964844 75.390625 27.019531 C 75.390625 26.132812 75.140625 25.699219 74.222656 25.699219 L 73.625 25.699219 L 73.625 28.363281 Z M 77.785156 24.605469 L 81.464844 24.605469 L 81.464844 25.730469 L 79.375 25.730469 L 79.375 28.253906 L 81.023438 28.253906 L 81.023438 29.371094 L 79.375 29.371094 L 79.375 32.285156 L 81.488281 32.285156 L 81.488281 33.378906 L 77.785156 33.378906 Z M 49.613281 81.296875 C 49.6875 81.296875 49.75 81.324219 49.800781 81.375 C 49.855469 81.425781 49.878906 81.488281 49.878906 81.5625 L 49.878906 90.367188 C 49.882812 90.441406 49.855469 90.503906 49.804688 90.558594 C 49.75 90.609375 49.6875 90.636719 49.613281 90.636719 L 46.050781 90.636719 C 45.976562 90.636719 45.914062 90.609375 45.863281 90.558594 C 45.808594 90.503906 45.78125 90.441406 45.785156 90.367188 L 45.785156 81.5625 C 45.785156 81.488281 45.808594 81.425781 45.863281 81.375 C 45.914062 81.324219 45.976562 81.296875 46.050781 81.296875 Z M 88.742188 94.417969 L 30.027344 94.417969 C 29.953125 94.417969 29.886719 94.445312 29.835938 94.5 C 29.785156 94.550781 29.757812 94.617188 29.757812 94.691406 L 29.757812 98.28125 C 29.757812 98.355469 29.785156 98.417969 29.835938 98.46875 C 29.890625 98.519531 29.953125 98.546875 30.027344 98.546875 L 88.742188 98.546875 C 88.816406 98.546875 88.878906 98.519531 88.929688 98.46875 C 88.984375 98.417969 89.011719 98.355469 89.011719 98.28125 L 89.011719 94.691406 C 89.011719 94.617188 88.984375 94.554688 88.933594 94.5 C 88.878906 94.445312 88.816406 94.417969 88.742188 94.417969 M 88.742188 101.546875 L 30.027344 101.546875 C 29.953125 101.546875 29.890625 101.574219 29.835938 101.625 C 29.785156 101.675781 29.757812 101.738281 29.757812 101.8125 L 29.757812 105.414062 C 29.757812 105.488281 29.785156 105.550781 29.839844 105.601562 C 29.890625 105.652344 29.953125 105.679688 30.027344 105.679688 L 88.742188 105.679688 C 88.816406 105.679688 88.878906 105.652344 88.929688 105.601562 C 88.984375 105.550781 89.011719 105.488281 89.011719 105.414062 L 89.011719 101.8125 C 89.011719 101.738281 88.984375 101.675781 88.929688 101.625 C 88.878906 101.574219 88.816406 101.546875 88.742188 101.546875 M 77.570312 71.550781 C 76.835938 70.976562 74.878906 69.636719 72.488281 69.636719 C 70.785156 69.636719 69.195312 70.304688 67.773438 71.636719 C 67.667969 71.738281 67.617188 71.859375 67.617188 72.003906 L 67.617188 72.332031 C 67.609375 72.492188 67.667969 72.628906 67.785156 72.734375 C 67.90625 72.835938 68.042969 72.867188 68.199219 72.828125 C 68.238281 72.824219 68.273438 72.816406 68.308594 72.804688 C 68.421875 72.761719 68.519531 72.699219 68.601562 72.617188 C 68.910156 72.410156 69.75 72.125 70.953125 72.125 C 72.199219 72.125 74.640625 72.460938 77.003906 74.664062 L 77.058594 74.710938 C 77.199219 74.855469 77.371094 74.925781 77.570312 74.921875 C 77.765625 74.925781 77.933594 74.855469 78.070312 74.714844 L 78.117188 74.667969 C 80.492188 72.460938 82.933594 72.125 84.175781 72.125 C 85.386719 72.125 86.226562 72.410156 86.535156 72.617188 C 86.628906 72.707031 86.742188 72.773438 86.867188 72.816406 C 86.980469 72.847656 87.09375 72.851562 87.210938 72.828125 C 87.457031 72.761719 87.582031 72.597656 87.578125 72.339844 L 87.578125 72.058594 C 87.578125 71.914062 87.527344 71.792969 87.421875 71.695312 C 85.988281 70.328125 84.382812 69.636719 82.648438 69.636719 C 80.285156 69.636719 78.335938 70.957031 77.582031 71.554688 M 73.925781 48.148438 C 73.792969 48.210938 73.707031 48.316406 73.671875 48.457031 L 73.609375 48.652344 C 73.5625 48.8125 73.585938 48.960938 73.6875 49.09375 C 73.777344 49.21875 73.898438 49.28125 74.050781 49.292969 C 74.074219 49.296875 74.097656 49.296875 74.125 49.292969 C 74.222656 49.289062 74.320312 49.265625 74.410156 49.21875 C 74.523438 49.191406 74.644531 49.179688 74.761719 49.179688 C 75.027344 49.179688 77.394531 49.261719 78.957031 51.921875 L 78.976562 51.957031 C 79.058594 52.113281 79.183594 52.210938 79.351562 52.257812 C 79.414062 52.277344 79.476562 52.285156 79.542969 52.285156 C 79.644531 52.289062 79.746094 52.261719 79.835938 52.214844 L 79.875 52.195312 C 80.699219 51.773438 81.574219 51.558594 82.5 51.550781 C 83.984375 51.550781 84.953125 52.15625 85.179688 52.410156 C 85.226562 52.496094 85.292969 52.566406 85.375 52.625 C 85.433594 52.660156 85.5 52.691406 85.566406 52.71875 C 85.59375 52.726562 85.621094 52.730469 85.652344 52.730469 C 85.667969 52.734375 85.6875 52.734375 85.703125 52.730469 C 85.953125 52.730469 86.113281 52.609375 86.1875 52.371094 L 86.234375 52.203125 C 86.25 52.160156 86.257812 52.113281 86.257812 52.0625 C 86.257812 51.972656 86.234375 51.886719 86.1875 51.808594 C 85.046875 49.828125 83.394531 49.417969 82.203125 49.417969 C 81.476562 49.425781 80.773438 49.558594 80.089844 49.8125 C 79.554688 49.089844 78.195312 47.59375 76.132812 47.59375 C 75.351562 47.605469 74.621094 47.789062 73.929688 48.152344 M 61.519531 57.183594 L 61.535156 57.445312 C 61.542969 57.617188 61.621094 57.75 61.769531 57.839844 C 61.894531 57.917969 62.023438 57.9375 62.164062 57.902344 C 62.191406 57.902344 62.226562 57.882812 62.25 57.875 C 62.351562 57.832031 62.4375 57.769531 62.503906 57.6875 C 62.753906 57.507812 63.558594 57.179688 64.746094 57.179688 C 65.886719 57.179688 67.621094 57.484375 69.386719 58.933594 L 69.429688 58.976562 C 69.558594 59.089844 69.710938 59.144531 69.882812 59.144531 L 69.925781 59.144531 C 70.109375 59.132812 70.261719 59.058594 70.386719 58.921875 L 70.425781 58.878906 C 72.382812 56.808594 74.488281 56.5 75.570312 56.5 C 76.34375 56.5 76.890625 56.667969 77.101562 56.78125 C 77.191406 56.855469 77.292969 56.910156 77.410156 56.9375 C 77.480469 56.953125 77.550781 56.960938 77.625 56.953125 C 77.664062 56.945312 77.707031 56.9375 77.746094 56.921875 C 77.984375 56.839844 78.09375 56.671875 78.078125 56.421875 L 78.066406 56.191406 C 78.058594 56.050781 78 55.9375 77.890625 55.84375 C 76.722656 54.863281 75.460938 54.367188 74.132812 54.367188 C 72.066406 54.367188 70.421875 55.585938 69.738281 56.183594 C 69.113281 55.761719 67.597656 54.886719 65.820312 54.886719 C 64.257812 54.886719 62.859375 55.535156 61.65625 56.808594 C 61.558594 56.914062 61.511719 57.039062 61.519531 57.183594 M 31.808594 61.894531 C 31.808594 61.476562 31.847656 61.0625 31.929688 60.652344 C 32.011719 60.246094 32.132812 59.847656 32.289062 59.460938 C 32.449219 59.074219 32.644531 58.707031 32.878906 58.359375 C 33.109375 58.011719 33.375 57.691406 33.667969 57.394531 C 33.964844 57.101562 34.285156 56.835938 34.632812 56.605469 C 34.980469 56.371094 35.347656 56.175781 35.734375 56.015625 C 36.117188 55.855469 36.515625 55.734375 36.925781 55.652344 C 37.335938 55.570312 37.75 55.53125 38.167969 55.53125 C 38.304688 55.53125 38.4375 55.542969 38.574219 55.550781 C 38.621094 54.917969 38.738281 54.296875 38.921875 53.691406 C 39.105469 53.082031 39.351562 52.503906 39.664062 51.953125 C 39.976562 51.398438 40.34375 50.886719 40.769531 50.417969 C 41.191406 49.945312 41.664062 49.527344 42.179688 49.160156 C 42.699219 48.792969 43.25 48.488281 43.835938 48.242188 C 44.417969 47.996094 45.023438 47.820312 45.648438 47.707031 C 46.273438 47.597656 46.902344 47.554688 47.535156 47.582031 C 48.167969 47.609375 48.792969 47.707031 49.402344 47.871094 C 50.015625 48.035156 50.601562 48.265625 51.164062 48.5625 C 51.726562 48.855469 52.25 49.210938 52.730469 49.621094 C 53.214844 50.03125 53.648438 50.488281 54.03125 50.996094 C 54.414062 51.5 54.734375 52.042969 54.996094 52.621094 C 55.257812 53.199219 55.457031 53.796875 55.585938 54.417969 C 55.714844 55.039062 55.777344 55.664062 55.769531 56.300781 C 55.757812 56.933594 55.679688 57.558594 55.535156 58.175781 C 55.386719 58.792969 55.175781 59.386719 54.898438 59.957031 C 55.46875 60.082031 56.027344 60.261719 56.570312 60.492188 C 57.109375 60.722656 57.625 60.996094 58.117188 61.320312 C 58.605469 61.644531 59.0625 62.011719 59.488281 62.417969 C 59.910156 62.828125 60.292969 63.269531 60.636719 63.746094 C 60.976562 64.226562 61.273438 64.730469 61.523438 65.261719 C 61.773438 65.792969 61.972656 66.34375 62.121094 66.914062 C 62.269531 67.480469 62.367188 68.058594 62.410156 68.644531 C 62.453125 69.230469 62.441406 69.816406 62.378906 70.402344 C 62.3125 70.984375 62.195312 71.558594 62.027344 72.121094 C 61.859375 72.683594 61.640625 73.226562 61.371094 73.75 C 61.101562 74.273438 60.789062 74.765625 60.429688 75.230469 C 60.070312 75.695312 59.671875 76.125 59.234375 76.515625 C 58.796875 76.910156 58.324219 77.257812 57.824219 77.5625 C 57.320312 77.871094 56.796875 78.128906 56.246094 78.335938 C 55.699219 78.546875 55.136719 78.707031 54.558594 78.8125 C 53.980469 78.917969 53.394531 78.972656 52.808594 78.972656 C 52.421875 78.972656 39.964844 78.898438 39.964844 78.898438 C 39.296875 78.898438 38.648438 78.800781 38.007812 78.613281 C 37.371094 78.421875 36.777344 78.144531 36.21875 77.777344 C 35.664062 77.414062 35.171875 76.976562 34.742188 76.46875 C 34.316406 75.957031 33.96875 75.398438 33.707031 74.785156 C 33.445312 74.175781 33.273438 73.539062 33.195312 72.878906 C 33.117188 72.21875 33.136719 71.5625 33.253906 70.90625 C 33.367188 70.25 33.574219 69.625 33.875 69.03125 C 34.171875 68.4375 34.550781 67.898438 35.007812 67.414062 C 34.519531 67.136719 34.078125 66.800781 33.679688 66.40625 C 33.285156 66.011719 32.945312 65.570312 32.664062 65.085938 C 32.382812 64.601562 32.167969 64.089844 32.023438 63.546875 C 31.878906 63.007812 31.804688 62.457031 31.808594 61.894531 Z M 31.808594 61.894531 "/></g></svg>