<svg xmlns="http://www.w3.org/2000/svg" xmlns:xlink="http://www.w3.org/1999/xlink" width="160" zoomAndPan="magnify" viewBox="0 0 120 119.999999" height="160" preserveAspectRatio="xMidYMid meet" version="1.2"><g id="5c3bfd9042"><rect x="0" width="120" y="0" height="119.999999" style="fill:#ffffff;fill-opacity:1;stroke:none;"/><rect x="0" width="120" y="0" height="119.999999" style="fill:#ffffff;fill-opacity:1;stroke:none;"/><rect x="0" width="120" y="0" height="119.999999" style="fill:#19486a;fill-opacity:1;stroke:none;"/><path style=" stroke:none;fill-rule:nonzero;fill:#ffffff;fill-opacity:1;" d="M 8.351562 14.820312 C 7.667969 15.191406 5.71875 15.726562 5.039062 16.066406 L 5.039062 12.808594 C 5.945312 12.441406 8.464844 11.222656 9.316406 10.289062 L 12.746094 10.289062 L 12.746094 33.238281 L 8.351562 33.238281 Z M 8.351562 14.820312 "/><path style=" stroke:none;fill-rule:nonzero;fill:#ffffff;fill-opacity:1;" d="M 18.894531 13.632812 L 12.667969 13.632812 L 12.667969 10.289062 L 23.167969 10.289062 L 23.167969 13.148438 L 18.332031 33.238281 L 14.078125 33.238281 Z M 30.621094 10.273438 L 33.199219 10.273438 C 34.773438 10.273438 35.441406 11.183594 35.441406 12.761719 C 35.441406 14.484375 34.511719 15.148438 33.089844 15.148438 L 32.214844 15.148438 L 32.214844 19.046875 L 30.621094 19.046875 Z M 32.832031 14.019531 C 33.710938 14.019531 33.9375 13.6875 33.9375 12.75 C 33.9375 11.816406 33.820312 11.398438 32.832031 11.398438 L 32.214844 11.398438 L 32.214844 14.019531 Z M 36.949219 10.273438 L 38.667969 10.273438 L 40.421875 19.046875 L 38.9375 19.046875 L 38.589844 17.019531 L 37.0625 17.019531 L 36.707031 19.046875 L 35.207031 19.046875 Z M 38.410156 16 L 37.816406 12.316406 L 37.21875 16 Z M 41.054688 10.273438 L 43.167969 10.273438 C 44.921875 10.273438 45.917969 10.835938 45.917969 12.605469 C 45.917969 13.65625 45.660156 14.394531 44.835938 14.726562 L 46.058594 19.050781 L 44.457031 19.050781 L 43.40625 15.03125 L 42.648438 15.03125 L 42.648438 19.050781 L 41.054688 19.050781 Z M 43.15625 14.03125 C 44.078125 14.03125 44.414062 13.628906 44.414062 12.6875 C 44.414062 11.796875 44.164062 11.363281 43.246094 11.363281 L 42.648438 11.363281 L 42.648438 14.03125 Z M 46.707031 16.238281 L 46.707031 13.109375 C 46.707031 11.3125 47.285156 10.171875 49.207031 10.171875 C 51.007812 10.171875 51.582031 11.171875 51.582031 12.699219 L 51.582031 13.433594 L 50.042969 13.433594 L 50.042969 12.675781 C 50.042969 11.941406 50.03125 11.34375 49.21875 11.34375 C 48.410156 11.34375 48.320312 11.972656 48.320312 12.773438 L 48.320312 16.578125 C 48.320312 17.53125 48.515625 17.984375 49.21875 17.984375 C 50.011719 17.984375 50.042969 17.367188 50.042969 16.585938 L 50.042969 15.796875 L 51.582031 15.796875 L 51.582031 16.5 C 51.582031 18.050781 51.058594 19.167969 49.207031 19.167969 C 47.285156 19.167969 46.707031 17.953125 46.707031 16.238281 Z M 52.460938 10.273438 L 56.144531 10.273438 L 56.144531 11.398438 L 54.054688 11.398438 L 54.054688 13.921875 L 55.699219 13.921875 L 55.699219 15.039062 L 54.054688 15.039062 L 54.054688 17.953125 L 56.167969 17.953125 L 56.167969 19.046875 L 52.460938 19.046875 Z M 56.859375 10.273438 L 58.972656 10.273438 C 60.726562 10.273438 61.722656 10.835938 61.722656 12.605469 C 61.722656 13.65625 61.464844 14.394531 60.640625 14.726562 L 61.863281 19.050781 L 60.261719 19.050781 L 59.210938 15.03125 L 58.453125 15.03125 L 58.453125 19.050781 L 56.859375 19.050781 Z M 58.960938 14.03125 C 59.882812 14.03125 60.21875 13.628906 60.21875 12.6875 C 60.21875 11.796875 59.96875 11.363281 59.050781 11.363281 L 58.453125 11.363281 L 58.453125 14.03125 Z M 62.742188 10.273438 L 64.324219 10.273438 L 64.324219 19.046875 L 62.742188 19.046875 Z M 66.75 10.273438 L 68.460938 10.273438 L 70.214844 19.046875 L 68.734375 19.046875 L 68.386719 17.019531 L 66.859375 17.019531 L 66.5 19.046875 L 65 19.046875 Z M 68.214844 16 L 67.617188 12.316406 L 67.023438 16 Z M 70.597656 16.488281 L 71.972656 16.21875 C 72.015625 17.257812 72.265625 17.929688 72.972656 17.929688 C 73.480469 17.929688 73.699219 17.582031 73.699219 17.105469 C 73.699219 16.347656 73.308594 15.925781 72.734375 15.429688 L 71.628906 14.464844 C 71 13.921875 70.609375 13.316406 70.609375 12.339844 C 70.609375 10.953125 71.476562 10.171875 72.875 10.171875 C 74.523438 10.171875 74.988281 11.277344 75.074219 12.558594 L 73.699219 12.796875 C 73.664062 11.972656 73.546875 11.355469 72.839844 11.355469 C 72.363281 11.355469 72.105469 11.710938 72.105469 12.179688 C 72.105469 12.773438 72.355469 13.097656 72.820312 13.5 L 73.914062 14.464844 C 74.628906 15.082031 75.226562 15.851562 75.226562 17.011719 C 75.226562 18.277344 74.335938 19.164062 73.027344 19.164062 C 71.421875 19.167969 70.667969 18.234375 70.597656 16.488281 Z M 78.320312 10.273438 L 82 10.273438 L 82 11.398438 L 79.914062 11.398438 L 79.914062 13.921875 L 81.558594 13.921875 L 81.558594 15.039062 L 79.914062 15.039062 L 79.914062 17.953125 L 82.023438 17.953125 L 82.023438 19.046875 L 78.320312 19.046875 Z M 85.242188 10.273438 L 86.898438 10.273438 L 88.148438 16.347656 L 89.433594 10.273438 L 91.050781 10.273438 L 91.214844 19.046875 L 90.023438 19.046875 L 89.894531 12.945312 L 88.648438 19.046875 L 87.683594 19.046875 L 86.417969 12.925781 L 86.296875 19.046875 L 85.097656 19.046875 Z M 92.273438 10.273438 L 95.957031 10.273438 L 95.957031 11.398438 L 93.867188 11.398438 L 93.867188 13.921875 L 95.511719 13.921875 L 95.511719 15.039062 L 93.867188 15.039062 L 93.867188 17.953125 L 95.976562 17.953125 L 95.976562 19.046875 L 92.273438 19.046875 Z M 96.714844 10.273438 L 98.296875 10.273438 L 98.296875 19.046875 L 96.714844 19.046875 Z M 99.273438 16.296875 L 99.273438 13 C 99.273438 11.222656 99.921875 10.167969 101.808594 10.167969 C 103.691406 10.167969 104.332031 11.226562 104.332031 13 L 104.332031 16.296875 C 104.332031 18.058594 103.683594 19.164062 101.808594 19.164062 C 99.933594 19.164062 99.273438 18.070312 99.273438 16.296875 Z M 102.707031 16.667969 L 102.707031 12.632812 C 102.707031 11.898438 102.585938 11.34375 101.808594 11.34375 C 101.027344 11.34375 100.898438 11.898438 100.898438 12.632812 L 100.898438 16.667969 C 100.898438 17.394531 101.015625 17.976562 101.808594 17.976562 C 102.597656 17.976562 102.707031 17.398438 102.707031 16.667969 Z M 105.058594 16.488281 L 106.433594 16.21875 C 106.476562 17.257812 106.726562 17.929688 107.433594 17.929688 C 107.941406 17.929688 108.160156 17.582031 108.160156 17.105469 C 108.160156 16.347656 107.769531 15.925781 107.191406 15.429688 L 106.089844 14.464844 C 105.460938 13.921875 105.070312 13.316406 105.070312 12.339844 C 105.070312 10.953125 105.9375 10.171875 107.335938 10.171875 C 108.980469 10.171875 109.445312 11.277344 109.535156 12.558594 L 108.160156 12.796875 C 108.125 11.972656 108.007812 11.355469 107.300781 11.355469 C 106.824219 11.355469 106.566406 11.710938 106.566406 12.179688 C 106.566406 12.773438 106.816406 13.097656 107.28125 13.5 L 108.375 14.464844 C 109.089844 15.082031 109.683594 15.851562 109.683594 17.011719 C 109.683594 18.277344 108.796875 19.164062 107.488281 19.164062 C 105.878906 19.167969 105.121094 18.234375 105.058594 16.488281 Z M 30.621094 24.605469 L 32.691406 24.605469 C 34.824219 24.605469 35.476562 25.460938 35.476562 27.335938 L 35.476562 30.53125 C 35.476562 32.457031 34.808594 33.378906 32.757812 33.378906 L 30.621094 33.378906 Z M 32.714844 32.273438 C 33.808594 32.273438 33.851562 31.6875 33.851562 30.59375 L 33.851562 27.226562 C 33.851562 26.175781 33.742188 25.742188 32.691406 25.742188 L 32.214844 25.742188 L 32.214844 32.261719 Z M 36.417969 24.605469 L 40.101562 24.605469 L 40.101562 25.730469 L 38.011719 25.730469 L 38.011719 28.253906 L 39.65625 28.253906 L 39.65625 29.371094 L 38.011719 29.371094 L 38.011719 32.285156 L 40.125 32.285156 L 40.125 33.378906 L 36.417969 33.378906 Z M 43.253906 24.605469 L 44.832031 24.605469 L 44.832031 33.378906 L 43.25 33.378906 Z M 46.078125 24.605469 L 47.738281 24.605469 L 48.984375 30.683594 L 50.273438 24.605469 L 51.886719 24.605469 L 52.054688 33.378906 L 50.863281 33.378906 L 50.734375 27.28125 L 49.488281 33.378906 L 48.523438 33.378906 L 47.257812 27.257812 L 47.136719 33.378906 L 45.933594 33.378906 Z M 53.113281 24.605469 L 55.691406 24.605469 C 57.261719 24.605469 57.933594 25.515625 57.933594 27.105469 C 57.933594 28.828125 57 29.488281 55.582031 29.488281 L 54.703125 29.488281 L 54.703125 33.386719 L 53.113281 33.386719 Z M 55.320312 28.351562 C 56.199219 28.351562 56.425781 28.019531 56.425781 27.085938 C 56.425781 26.148438 56.308594 25.730469 55.320312 25.730469 L 54.703125 25.730469 L 54.703125 28.351562 Z M 58.582031 24.605469 L 60.175781 24.605469 L 60.175781 32.285156 L 62.308594 32.285156 L 62.308594 33.378906 L 58.582031 33.378906 Z M 62.90625 24.605469 L 66.589844 24.605469 L 66.589844 25.730469 L 64.5 25.730469 L 64.5 28.253906 L 66.148438 28.253906 L 66.148438 29.371094 L 64.5 29.371094 L 64.5 32.285156 L 66.613281 32.285156 L 66.613281 33.378906 L 62.90625 33.378906 Z M 67.433594 24.605469 L 69.089844 24.605469 L 70.332031 30.683594 L 71.621094 24.605469 L 73.238281 24.605469 L 73.402344 33.378906 L 72.210938 33.378906 L 72.082031 27.28125 L 70.832031 33.378906 L 69.867188 33.378906 L 68.601562 27.257812 L 68.480469 33.378906 L 67.28125 33.378906 Z M 74.464844 24.605469 L 78.148438 24.605469 L 78.148438 25.730469 L 76.058594 25.730469 L 76.058594 28.253906 L 77.703125 28.253906 L 77.703125 29.371094 L 76.058594 29.371094 L 76.058594 32.285156 L 78.167969 32.285156 L 78.167969 33.378906 L 74.464844 33.378906 Z M 78.863281 24.605469 L 79.976562 24.605469 L 82.113281 29.605469 L 82.113281 24.605469 L 83.433594 24.605469 L 83.433594 33.378906 L 82.371094 33.378906 L 80.226562 28.136719 L 80.226562 33.378906 L 78.863281 33.378906 Z M 85.40625 25.785156 L 84.007812 25.785156 L 84.007812 24.605469 L 88.375 24.605469 L 88.375 25.785156 L 87.007812 25.785156 L 87.007812 33.378906 L 85.40625 33.378906 Z M 90.03125 24.605469 L 91.742188 24.605469 L 93.5 33.378906 L 92.015625 33.378906 L 91.667969 31.351562 L 90.140625 31.351562 L 89.78125 33.378906 L 88.28125 33.378906 Z M 91.5 30.332031 L 90.90625 26.648438 L 90.300781 30.332031 Z M 97.277344 27.769531 L 97.277344 27.011719 C 97.277344 26.273438 97.269531 25.675781 96.453125 25.675781 C 95.640625 25.675781 95.558594 26.304688 95.558594 27.105469 L 95.558594 30.910156 C 95.558594 31.863281 95.75 32.316406 96.453125 32.316406 C 97.246094 32.316406 97.277344 31.699219 97.277344 30.921875 L 97.277344 30.128906 L 98.816406 30.128906 L 98.816406 30.832031 C 98.816406 32.316406 98.339844 33.410156 96.660156 33.5 L 96.660156 34.042969 C 97.464844 34.042969 98.003906 34.398438 98.003906 35.070312 C 98.003906 35.839844 97.320312 36.164062 96.53125 36.164062 C 96.265625 36.164062 96.007812 36.121094 95.75 36.046875 L 95.75 35.363281 C 95.941406 35.421875 96.136719 35.453125 96.335938 35.449219 C 96.714844 35.449219 97.003906 35.339844 97.003906 35.050781 C 97.003906 34.660156 96.558594 34.519531 96.050781 34.464844 L 96.050781 33.476562 C 94.445312 33.3125 93.949219 32.15625 93.949219 30.574219 L 93.949219 27.441406 C 93.949219 25.644531 94.523438 24.507812 96.449219 24.507812 C 98.246094 24.507812 98.820312 25.507812 98.820312 27.03125 L 98.820312 27.769531 Z M 101 24.605469 L 102.714844 24.605469 L 104.472656 33.378906 L 102.988281 33.378906 L 102.640625 31.351562 L 101.113281 31.351562 L 100.757812 33.378906 L 99.257812 33.378906 Z M 101.332031 22.945312 C 101.050781 22.945312 100.953125 23.113281 100.953125 23.390625 L 100.195312 23.390625 C 100.195312 22.613281 100.410156 22.027344 101.117188 22.027344 C 101.648438 22.027344 102.003906 22.527344 102.46875 22.527344 C 102.71875 22.527344 102.816406 22.375 102.816406 22.09375 L 103.53125 22.09375 C 103.53125 22.773438 103.414062 23.457031 102.707031 23.457031 C 102.152344 23.457031 101.785156 22.945312 101.339844 22.945312 Z M 102.46875 30.332031 L 101.871094 26.648438 L 101.277344 30.332031 Z M 104.882812 30.628906 L 104.882812 27.332031 C 104.882812 25.558594 105.535156 24.5 107.417969 24.5 C 109.304688 24.5 109.941406 25.550781 109.941406 27.332031 L 109.941406 30.625 C 109.941406 32.390625 109.292969 33.496094 107.417969 33.496094 C 105.542969 33.496094 104.882812 32.40625 104.882812 30.628906 Z M 108.316406 31 L 108.316406 26.964844 C 108.316406 26.230469 108.199219 25.675781 107.417969 25.675781 C 106.636719 25.675781 106.507812 26.230469 106.507812 26.964844 L 106.507812 31 C 106.507812 31.726562 106.628906 32.3125 107.417969 32.3125 C 108.207031 32.3125 108.316406 31.734375 108.316406 31 Z M 90.730469 72.875 C 90.730469 71.867188 90.632812 70.867188 90.4375 69.875 C 90.246094 68.882812 89.960938 67.921875 89.582031 66.984375 C 89.203125 66.050781 88.738281 65.160156 88.191406 64.3125 C 87.640625 63.464844 87.015625 62.679688 86.316406 61.953125 C 85.617188 61.226562 84.851562 60.574219 84.027344 59.992188 C 83.199219 59.410156 82.328125 58.914062 81.40625 58.503906 C 80.484375 58.089844 79.53125 57.769531 78.550781 57.539062 C 77.566406 57.3125 76.570312 57.175781 75.5625 57.136719 C 75.292969 56.375 74.96875 55.636719 74.582031 54.925781 C 74.199219 54.210938 73.765625 53.53125 73.277344 52.886719 C 72.789062 52.242188 72.253906 51.636719 71.671875 51.074219 C 71.089844 50.507812 70.46875 49.992188 69.808594 49.527344 C 69.148438 49.058594 68.453125 48.644531 67.730469 48.285156 C 67.003906 47.921875 66.257812 47.621094 65.484375 47.375 C 64.714844 47.128906 63.929688 46.945312 63.128906 46.820312 C 62.328125 46.699219 61.523438 46.636719 60.714844 46.636719 C 59.90625 46.636719 59.101562 46.699219 58.300781 46.820312 C 57.5 46.945312 56.714844 47.128906 55.941406 47.375 C 55.171875 47.621094 54.421875 47.921875 53.699219 48.285156 C 52.972656 48.644531 52.28125 49.058594 51.621094 49.527344 C 50.960938 49.992188 50.339844 50.507812 49.757812 51.074219 C 49.175781 51.636719 48.640625 52.238281 48.152344 52.886719 C 47.664062 53.53125 47.226562 54.210938 46.84375 54.925781 C 46.460938 55.636719 46.132812 56.375 45.863281 57.136719 C 45.0625 57.167969 44.265625 57.257812 43.476562 57.40625 C 42.691406 57.558594 41.917969 57.769531 41.160156 58.039062 C 40.402344 58.308594 39.671875 58.632812 38.964844 59.011719 C 38.257812 59.394531 37.585938 59.828125 36.945312 60.3125 C 36.304688 60.796875 35.703125 61.324219 35.144531 61.902344 C 34.585938 62.476562 34.074219 63.09375 33.605469 63.746094 C 33.140625 64.402344 32.730469 65.089844 32.371094 65.804688 C 32.007812 66.523438 31.707031 67.265625 31.457031 68.027344 C 31.210938 68.792969 31.023438 69.570312 30.898438 70.363281 C 30.769531 71.15625 30.703125 71.957031 30.699219 72.757812 C 30.691406 73.5625 30.746094 74.359375 30.863281 75.15625 C 30.980469 75.949219 31.160156 76.730469 31.394531 77.496094 C 31.632812 78.265625 31.925781 79.007812 32.273438 79.730469 C 32.625 80.453125 33.027344 81.144531 33.484375 81.808594 C 33.941406 82.46875 34.445312 83.089844 34.996094 83.671875 C 35.546875 84.257812 36.140625 84.796875 36.773438 85.289062 C 36.550781 86.0625 36.386719 86.847656 36.285156 87.648438 C 36.179688 88.449219 36.136719 89.25 36.15625 90.058594 C 36.179688 90.863281 36.257812 91.664062 36.402344 92.457031 C 36.546875 93.25 36.746094 94.027344 37.011719 94.789062 C 37.273438 95.550781 37.589844 96.289062 37.96875 97.003906 C 38.34375 97.714844 38.769531 98.398438 39.25 99.042969 C 39.730469 99.691406 40.257812 100.296875 40.832031 100.863281 C 41.40625 101.429688 42.019531 101.949219 42.671875 102.421875 C 43.324219 102.894531 44.011719 103.316406 44.730469 103.683594 C 45.445312 104.050781 46.1875 104.359375 46.953125 104.613281 C 47.71875 104.863281 48.5 105.058594 49.292969 105.191406 C 50.089844 105.324219 50.890625 105.394531 51.695312 105.40625 C 52.503906 105.414062 53.304688 105.363281 54.101562 105.25 C 54.902344 105.136719 55.683594 104.964844 56.457031 104.730469 C 57.226562 104.496094 57.976562 104.203125 58.703125 103.855469 C 59.429688 103.507812 60.125 103.105469 60.792969 102.648438 C 61.457031 103.09375 62.152344 103.484375 62.878906 103.824219 C 63.601562 104.160156 64.347656 104.445312 65.117188 104.667969 C 65.886719 104.894531 66.667969 105.058594 67.460938 105.164062 C 68.253906 105.269531 69.050781 105.3125 69.847656 105.296875 C 70.648438 105.28125 71.445312 105.207031 72.234375 105.070312 C 73.019531 104.929688 73.792969 104.734375 74.554688 104.480469 C 75.3125 104.226562 76.046875 103.914062 76.757812 103.546875 C 77.46875 103.179688 78.148438 102.761719 78.792969 102.289062 C 79.441406 101.820312 80.050781 101.300781 80.617188 100.738281 C 81.1875 100.175781 81.707031 99.570312 82.183594 98.929688 C 82.660156 98.285156 83.085938 97.609375 83.457031 96.902344 C 83.832031 96.195312 84.148438 95.460938 84.410156 94.707031 C 84.671875 93.949219 84.875 93.175781 85.019531 92.390625 C 85.164062 91.601562 85.246094 90.808594 85.269531 90.007812 C 85.292969 89.210938 85.253906 88.410156 85.152344 87.617188 C 85.054688 86.824219 84.898438 86.042969 84.679688 85.273438 C 85.621094 84.535156 86.46875 83.703125 87.21875 82.777344 C 87.972656 81.847656 88.609375 80.847656 89.136719 79.773438 C 89.660156 78.699219 90.054688 77.578125 90.324219 76.414062 C 90.59375 75.25 90.730469 74.070312 90.730469 72.875 M 73.289062 62.375 C 73.289062 63.121094 73.222656 63.863281 73.089844 64.597656 C 72.957031 65.332031 72.757812 66.050781 72.496094 66.75 C 72.238281 67.449219 71.917969 68.121094 71.535156 68.761719 C 71.15625 69.40625 70.722656 70.011719 70.234375 70.574219 C 69.746094 71.140625 69.210938 71.660156 68.632812 72.128906 C 68.050781 72.601562 67.433594 73.015625 66.78125 73.375 C 66.125 73.734375 65.445312 74.035156 64.738281 74.277344 C 64.03125 74.515625 63.308594 74.691406 62.566406 74.800781 C 62.433594 73.980469 62.382812 73.15625 62.414062 72.328125 C 62.445312 71.496094 62.554688 70.679688 62.75 69.871094 C 62.945312 69.066406 63.214844 68.285156 63.566406 67.535156 C 63.914062 66.78125 64.335938 66.070312 64.828125 65.402344 C 65.320312 64.734375 65.871094 64.121094 66.488281 63.5625 C 67.101562 63.003906 67.765625 62.511719 68.476562 62.085938 C 69.191406 61.660156 69.9375 61.308594 70.71875 61.03125 C 71.503906 60.753906 72.304688 60.558594 73.125 60.441406 C 73.230469 61.082031 73.289062 61.726562 73.292969 62.375 M 60.773438 98.558594 C 60.175781 97.976562 59.640625 97.34375 59.164062 96.65625 C 58.691406 95.972656 58.292969 95.242188 57.964844 94.476562 C 57.636719 93.710938 57.386719 92.917969 57.214844 92.101562 C 57.046875 91.285156 56.957031 90.457031 56.953125 89.625 C 56.945312 88.789062 57.023438 87.964844 57.183594 87.144531 C 57.34375 86.324219 57.582031 85.53125 57.898438 84.757812 C 58.21875 83.988281 58.609375 83.257812 59.074219 82.5625 C 59.539062 81.871094 60.066406 81.230469 60.660156 80.640625 C 61.257812 81.222656 61.792969 81.855469 62.269531 82.542969 C 62.742188 83.230469 63.140625 83.957031 63.46875 84.722656 C 63.796875 85.492188 64.046875 86.28125 64.21875 87.097656 C 64.386719 87.914062 64.476562 88.742188 64.480469 89.574219 C 64.488281 90.410156 64.410156 91.238281 64.25 92.054688 C 64.089844 92.875 63.851562 93.667969 63.535156 94.441406 C 63.214844 95.210938 62.824219 95.945312 62.359375 96.636719 C 61.894531 97.332031 61.367188 97.96875 60.773438 98.558594 M 48.300781 60.449219 C 49.121094 60.5625 49.925781 60.757812 50.707031 61.035156 C 51.492188 61.3125 52.238281 61.664062 52.953125 62.085938 C 53.664062 62.511719 54.328125 63.003906 54.941406 63.5625 C 55.558594 64.121094 56.109375 64.734375 56.601562 65.40625 C 57.09375 66.074219 57.515625 66.785156 57.863281 67.539062 C 58.214844 68.289062 58.484375 69.070312 58.679688 69.878906 C 58.875 70.683594 58.984375 71.503906 59.015625 72.332031 C 59.046875 73.164062 58.992188 73.988281 58.859375 74.808594 C 58.035156 74.691406 57.234375 74.496094 56.449219 74.21875 C 55.667969 73.945312 54.917969 73.59375 54.207031 73.167969 C 53.492188 72.742188 52.828125 72.25 52.214844 71.691406 C 51.601562 71.132812 51.046875 70.519531 50.554688 69.851562 C 50.0625 69.183594 49.644531 68.472656 49.292969 67.71875 C 48.945312 66.964844 48.671875 66.183594 48.476562 65.378906 C 48.285156 64.570312 48.171875 63.75 48.144531 62.921875 C 48.113281 62.09375 48.164062 61.265625 48.300781 60.449219 M 57.679688 78.5 C 57.308594 79.246094 56.867188 79.949219 56.355469 80.605469 C 55.84375 81.261719 55.273438 81.863281 54.644531 82.410156 C 54.015625 82.953125 53.335938 83.429688 52.609375 83.839844 C 51.886719 84.246094 51.125 84.582031 50.335938 84.835938 C 49.542969 85.09375 48.734375 85.273438 47.90625 85.367188 C 47.078125 85.464844 46.25 85.476562 45.417969 85.410156 C 44.589844 85.339844 43.773438 85.191406 42.972656 84.957031 C 42.175781 84.726562 41.40625 84.417969 40.667969 84.035156 C 41.039062 83.289062 41.476562 82.585938 41.988281 81.929688 C 42.5 81.269531 43.070312 80.667969 43.699219 80.125 C 44.332031 79.582031 45.007812 79.105469 45.734375 78.695312 C 46.460938 78.285156 47.21875 77.953125 48.011719 77.695312 C 48.804688 77.4375 49.613281 77.261719 50.441406 77.164062 C 51.265625 77.070312 52.09375 77.054688 52.925781 77.125 C 53.753906 77.195312 54.570312 77.34375 55.371094 77.574219 C 56.171875 77.808594 56.941406 78.113281 57.679688 78.5 M 63.707031 78.414062 C 64.449219 78.023438 65.226562 77.714844 66.03125 77.480469 C 66.835938 77.246094 67.65625 77.09375 68.492188 77.023438 C 69.328125 76.953125 70.160156 76.964844 70.992188 77.0625 C 71.828125 77.160156 72.640625 77.339844 73.4375 77.601562 C 74.234375 77.863281 75 78.199219 75.726562 78.613281 C 76.457031 79.027344 77.136719 79.511719 77.769531 80.0625 C 78.402344 80.613281 78.972656 81.21875 79.484375 81.886719 C 79.996094 82.550781 80.433594 83.261719 80.800781 84.011719 C 80.058594 84.402344 79.285156 84.714844 78.480469 84.949219 C 77.675781 85.183594 76.855469 85.335938 76.019531 85.40625 C 75.183594 85.476562 74.347656 85.464844 73.515625 85.367188 C 72.683594 85.269531 71.867188 85.089844 71.070312 84.828125 C 70.273438 84.566406 69.511719 84.230469 68.78125 83.816406 C 68.050781 83.402344 67.371094 82.917969 66.738281 82.367188 C 66.105469 81.816406 65.535156 81.210938 65.027344 80.542969 C 64.515625 79.878906 64.074219 79.167969 63.707031 78.414062 M 60.707031 49.804688 C 61.933594 49.804688 63.132812 49.984375 64.304688 50.332031 C 65.476562 50.683594 66.578125 51.195312 67.601562 51.867188 C 68.625 52.539062 69.53125 53.34375 70.320312 54.28125 C 71.109375 55.214844 71.75 56.246094 72.238281 57.367188 C 70.992188 57.589844 69.792969 57.957031 68.636719 58.46875 C 67.480469 58.980469 66.398438 59.617188 65.394531 60.390625 C 64.390625 61.160156 63.496094 62.035156 62.703125 63.023438 C 61.910156 64.007812 61.246094 65.074219 60.707031 66.21875 C 60.171875 65.074219 59.507812 64.007812 58.714844 63.023438 C 57.925781 62.035156 57.027344 61.160156 56.023438 60.386719 C 55.019531 59.617188 53.941406 58.976562 52.785156 58.46875 C 51.628906 57.957031 50.425781 57.589844 49.183594 57.367188 C 49.671875 56.246094 50.308594 55.214844 51.097656 54.28125 C 51.886719 53.34375 52.792969 52.539062 53.816406 51.867188 C 54.839844 51.195312 55.941406 50.6875 57.113281 50.335938 C 58.285156 49.984375 59.484375 49.804688 60.707031 49.804688 M 33.867188 72.875 C 33.871094 72.105469 33.941406 71.34375 34.082031 70.589844 C 34.222656 69.832031 34.429688 69.097656 34.707031 68.378906 C 34.980469 67.660156 35.320312 66.976562 35.722656 66.320312 C 36.121094 65.664062 36.578125 65.050781 37.09375 64.480469 C 37.605469 63.90625 38.167969 63.386719 38.777344 62.917969 C 39.386719 62.449219 40.03125 62.039062 40.714844 61.6875 C 41.398438 61.335938 42.109375 61.050781 42.847656 60.832031 C 43.582031 60.609375 44.332031 60.457031 45.097656 60.375 C 45.011719 61.042969 44.964844 61.714844 44.964844 62.386719 C 44.964844 63.480469 45.078125 64.566406 45.304688 65.636719 C 45.53125 66.710938 45.863281 67.746094 46.308594 68.75 C 46.75 69.75 47.292969 70.695312 47.933594 71.582031 C 48.574219 72.472656 49.300781 73.285156 50.109375 74.023438 C 48.847656 74.167969 47.625 74.460938 46.433594 74.902344 C 45.242188 75.34375 44.121094 75.921875 43.070312 76.632812 C 42.019531 77.347656 41.070312 78.171875 40.21875 79.113281 C 39.367188 80.058594 38.636719 81.085938 38.035156 82.203125 C 36.710938 81.015625 35.683594 79.609375 34.960938 77.984375 C 34.234375 76.359375 33.871094 74.660156 33.867188 72.878906 M 39.324219 89.667969 C 39.324219 88.789062 39.414062 87.917969 39.597656 87.058594 C 40.730469 87.609375 41.910156 88.015625 43.140625 88.277344 C 44.371094 88.542969 45.613281 88.65625 46.871094 88.625 C 48.128906 88.589844 49.363281 88.40625 50.578125 88.074219 C 51.792969 87.746094 52.949219 87.273438 54.050781 86.667969 C 53.816406 87.902344 53.730469 89.152344 53.800781 90.410156 C 53.867188 91.667969 54.082031 92.898438 54.445312 94.105469 C 54.808594 95.308594 55.308594 96.453125 55.949219 97.539062 C 56.589844 98.625 57.347656 99.617188 58.226562 100.519531 C 57.273438 101.078125 56.261719 101.503906 55.195312 101.796875 C 54.128906 102.089844 53.042969 102.238281 51.9375 102.242188 C 50.828125 102.25 49.742188 102.109375 48.671875 101.828125 C 47.601562 101.546875 46.585938 101.128906 45.628906 100.578125 C 44.667969 100.027344 43.796875 99.359375 43.011719 98.578125 C 42.230469 97.796875 41.5625 96.929688 41.007812 95.96875 C 40.453125 95.011719 40.035156 94 39.75 92.929688 C 39.464844 91.859375 39.320312 90.773438 39.324219 89.667969 M 82.105469 89.5625 C 82.105469 90.109375 82.070312 90.65625 82 91.199219 C 81.925781 91.742188 81.820312 92.277344 81.679688 92.804688 C 81.539062 93.335938 81.363281 93.851562 81.15625 94.355469 C 80.945312 94.863281 80.707031 95.351562 80.433594 95.828125 C 80.160156 96.300781 79.859375 96.757812 79.527344 97.191406 C 79.195312 97.625 78.835938 98.039062 78.449219 98.425781 C 78.0625 98.8125 77.652344 99.175781 77.21875 99.507812 C 76.785156 99.84375 76.332031 100.148438 75.859375 100.421875 C 75.386719 100.699219 74.898438 100.941406 74.394531 101.152344 C 73.890625 101.363281 73.371094 101.542969 72.84375 101.6875 C 72.316406 101.828125 71.78125 101.9375 71.238281 102.011719 C 70.695312 102.085938 70.152344 102.125 69.605469 102.125 C 69.058594 102.128906 68.511719 102.097656 67.96875 102.027344 C 67.425781 101.957031 66.890625 101.855469 66.359375 101.714844 C 65.832031 101.578125 65.3125 101.402344 64.808594 101.199219 C 64.300781 100.992188 63.808594 100.753906 63.332031 100.480469 C 64.71875 99.023438 65.785156 97.359375 66.53125 95.488281 C 67.277344 93.621094 67.652344 91.679688 67.648438 89.667969 C 67.648438 88.652344 67.550781 87.648438 67.355469 86.652344 C 68.460938 87.265625 69.621094 87.738281 70.839844 88.074219 C 72.054688 88.40625 73.296875 88.589844 74.558594 88.625 C 75.820312 88.660156 77.070312 88.542969 78.300781 88.277344 C 79.535156 88.007812 80.722656 87.601562 81.855469 87.046875 C 82.027344 87.878906 82.113281 88.714844 82.113281 89.5625 M 71.421875 73.929688 C 72.214844 73.195312 72.929688 72.386719 73.558594 71.5 C 74.1875 70.617188 74.71875 69.679688 75.152344 68.6875 C 75.585938 67.695312 75.914062 66.667969 76.136719 65.605469 C 76.359375 64.546875 76.46875 63.472656 76.46875 62.386719 C 76.464844 61.714844 76.421875 61.042969 76.335938 60.375 C 77.539062 60.507812 78.703125 60.804688 79.820312 61.269531 C 80.9375 61.734375 81.96875 62.347656 82.90625 63.109375 C 83.847656 63.871094 84.660156 64.753906 85.347656 65.75 C 86.03125 66.75 86.5625 67.824219 86.9375 68.976562 C 87.3125 70.128906 87.515625 71.308594 87.550781 72.519531 C 87.582031 73.730469 87.441406 74.917969 87.132812 76.089844 C 86.820312 77.261719 86.351562 78.363281 85.71875 79.394531 C 85.089844 80.429688 84.324219 81.355469 83.429688 82.167969 C 82.832031 81.046875 82.109375 80.015625 81.265625 79.070312 C 80.421875 78.125 79.476562 77.292969 78.429688 76.574219 C 77.382812 75.859375 76.265625 75.273438 75.082031 74.828125 C 73.894531 74.378906 72.671875 74.078125 71.414062 73.921875 "/></g></svg>