<svg xmlns="http://www.w3.org/2000/svg" xmlns:xlink="http://www.w3.org/1999/xlink" width="160" zoomAndPan="magnify" viewBox="0 0 120 119.999999" height="160" preserveAspectRatio="xMidYMid meet" version="1.2"><g id="edec0b4148"><rect x="0" width="120" y="0" height="119.999999" style="fill:#ffffff;fill-opacity:1;stroke:none;"/><rect x="0" width="120" y="0" height="119.999999" style="fill:#ffffff;fill-opacity:1;stroke:none;"/><rect x="0" width="120" y="0" height="119.999999" style="fill:#0a97d9;fill-opacity:1;stroke:none;"/><path style=" stroke:none;fill-rule:nonzero;fill:#ffffff;fill-opacity:1;" d="M 8.1875 14.820312 C 7.5 15.191406 5.550781 15.726562 4.871094 16.066406 L 4.871094 12.808594 C 5.777344 12.441406 8.300781 11.222656 9.148438 10.289062 L 12.578125 10.289062 L 12.578125 33.238281 L 8.1875 33.238281 Z M 19.667969 27.855469 L 12.691406 27.855469 L 12.691406 24.453125 L 18.671875 10.289062 L 23.742188 10.289062 L 23.742188 24.539062 L 25.980469 24.539062 L 25.980469 27.855469 L 23.742188 27.855469 L 23.742188 33.238281 L 19.667969 33.238281 Z M 19.667969 24.539062 L 19.667969 14.792969 L 16.148438 24.539062 Z M 37.875 10.273438 L 39.285156 10.273438 L 40.453125 16.476562 L 41.546875 10.273438 L 42.988281 10.273438 L 41.21875 19.046875 L 39.648438 19.046875 Z M 43.597656 10.273438 L 45.179688 10.273438 L 45.179688 19.046875 L 43.597656 19.046875 Z M 46.207031 10.273438 L 48.277344 10.273438 C 50.410156 10.273438 51.0625 11.125 51.0625 13 L 51.0625 16.195312 C 51.0625 18.125 50.394531 19.046875 48.339844 19.046875 L 46.207031 19.046875 Z M 48.296875 17.929688 C 49.394531 17.929688 49.4375 17.34375 49.4375 16.25 L 49.4375 12.894531 C 49.4375 11.839844 49.328125 11.410156 48.269531 11.410156 L 47.800781 11.410156 L 47.800781 17.929688 Z M 53.167969 10.273438 L 54.878906 10.273438 L 56.632812 19.046875 L 55.148438 19.046875 L 54.800781 17.019531 L 53.273438 17.019531 L 52.917969 19.046875 L 51.417969 19.046875 Z M 54.625 16 L 54.03125 12.316406 L 53.433594 16 Z M 59.488281 10.273438 L 60.605469 10.273438 L 62.738281 15.273438 L 62.738281 10.273438 L 64.0625 10.273438 L 64.0625 19.046875 L 63 19.046875 L 60.851562 13.804688 L 60.851562 19.046875 L 59.488281 19.046875 Z M 66.378906 10.273438 L 68.089844 10.273438 L 69.847656 19.046875 L 68.363281 19.046875 L 68.015625 17.019531 L 66.488281 17.019531 L 66.128906 19.046875 L 64.628906 19.046875 Z M 67.839844 16 L 67.246094 12.316406 L 66.648438 16 Z M 39.601562 24.605469 L 41.3125 24.605469 L 43.066406 33.378906 L 41.582031 33.378906 L 41.234375 31.351562 L 39.707031 31.351562 L 39.351562 33.378906 L 37.851562 33.378906 Z M 41.0625 30.332031 L 40.464844 26.648438 L 39.871094 30.332031 Z M 40.667969 21.832031 L 42.167969 21.832031 L 40.878906 24 L 40.023438 24 Z M 43.390625 30.488281 L 43.390625 27.539062 C 43.390625 25.65625 43.964844 24.507812 45.890625 24.507812 C 47.691406 24.507812 48.316406 25.4375 48.316406 27.0625 L 48.316406 27.519531 L 46.792969 27.519531 L 46.792969 27.019531 C 46.792969 26.171875 46.703125 25.675781 45.914062 25.675781 C 45.066406 25.675781 45.003906 26.359375 45.003906 27.160156 L 45.003906 30.828125 C 45.003906 31.738281 45.171875 32.3125 45.957031 32.3125 C 46.742188 32.3125 46.921875 31.703125 46.921875 30.75 L 46.921875 29.929688 L 45.976562 29.929688 L 45.976562 28.921875 L 48.363281 28.921875 L 48.363281 33.375 L 47.320312 33.375 L 47.214844 32.515625 C 47.101562 32.824219 46.910156 33.070312 46.632812 33.25 C 46.359375 33.433594 46.058594 33.511719 45.730469 33.492188 C 44 33.5 43.390625 32.332031 43.390625 30.488281 Z M 49.199219 30.542969 L 49.199219 24.605469 L 50.757812 24.605469 L 50.757812 30.726562 C 50.757812 31.558594 50.855469 32.308594 51.667969 32.308594 C 52.480469 32.308594 52.589844 31.558594 52.589844 30.726562 L 52.589844 24.605469 L 54.136719 24.605469 L 54.136719 30.542969 C 54.136719 32.382812 53.628906 33.5 51.667969 33.5 C 49.707031 33.5 49.199219 32.382812 49.199219 30.542969 Z M 56.332031 24.605469 L 58.046875 24.605469 L 59.800781 33.378906 L 58.316406 33.378906 L 57.96875 31.351562 L 56.441406 31.351562 L 56.085938 33.378906 L 54.585938 33.378906 Z M 57.800781 30.332031 L 57.203125 26.648438 L 56.609375 30.332031 Z M 92.378906 87.765625 C 90.859375 85.710938 81.027344 73.175781 67.246094 73.175781 C 55.28125 73.175781 42.476562 84.03125 42.476562 84.03125 C 42.476562 84.03125 37.667969 74.1875 27.832031 73.242188 C 27.777344 73.242188 27.714844 73.230469 27.648438 73.230469 L 27.589844 73.230469 C 27.484375 73.238281 27.398438 73.277344 27.324219 73.351562 C 27.253906 73.425781 27.214844 73.515625 27.214844 73.621094 C 27.242188 73.75 27.292969 73.871094 27.367188 73.980469 C 28.636719 76.085938 31.867188 82.074219 31.867188 88.058594 C 31.867188 94.039062 28.613281 100.058594 27.355469 102.160156 L 27.273438 102.292969 C 27.230469 102.355469 27.210938 102.425781 27.210938 102.5 C 27.210938 102.601562 27.246094 102.691406 27.316406 102.765625 C 27.386719 102.839844 27.472656 102.882812 27.574219 102.886719 L 27.679688 102.878906 C 27.710938 102.882812 27.746094 102.882812 27.78125 102.878906 C 37.648438 101.957031 42.476562 92.085938 42.476562 92.085938 C 42.476562 92.085938 55.277344 102.941406 67.246094 102.941406 C 81.027344 102.941406 90.855469 90.410156 92.378906 88.355469 C 92.421875 88.300781 92.453125 88.25 92.484375 88.214844 C 92.527344 88.113281 92.527344 88.015625 92.484375 87.914062 C 92.453125 87.875 92.421875 87.824219 92.378906 87.773438 M 74.910156 89.640625 C 74.644531 89.640625 74.382812 89.613281 74.125 89.5625 C 73.867188 89.511719 73.617188 89.433594 73.371094 89.332031 C 73.128906 89.230469 72.898438 89.105469 72.675781 88.960938 C 72.457031 88.8125 72.253906 88.644531 72.070312 88.460938 C 71.882812 88.273438 71.714844 88.070312 71.570312 87.851562 C 71.421875 87.628906 71.300781 87.398438 71.199219 87.15625 C 71.097656 86.910156 71.019531 86.660156 70.96875 86.398438 C 70.917969 86.140625 70.894531 85.878906 70.894531 85.617188 C 70.894531 85.351562 70.917969 85.089844 70.972656 84.832031 C 71.023438 84.574219 71.097656 84.320312 71.199219 84.078125 C 71.300781 83.832031 71.425781 83.601562 71.570312 83.382812 C 71.71875 83.164062 71.886719 82.960938 72.074219 82.773438 C 72.257812 82.585938 72.460938 82.421875 72.683594 82.273438 C 72.902344 82.128906 73.132812 82.003906 73.378906 81.902344 C 73.621094 81.800781 73.871094 81.726562 74.132812 81.671875 C 74.390625 81.621094 74.652344 81.597656 74.914062 81.597656 C 75.179688 81.597656 75.441406 81.621094 75.699219 81.675781 C 75.957031 81.726562 76.210938 81.800781 76.453125 81.902344 C 76.699219 82.003906 76.929688 82.128906 77.148438 82.273438 C 77.367188 82.421875 77.570312 82.585938 77.757812 82.773438 C 77.945312 82.960938 78.113281 83.164062 78.257812 83.382812 C 78.40625 83.601562 78.527344 83.835938 78.628906 84.078125 C 78.730469 84.320312 78.808594 84.574219 78.859375 84.832031 C 78.910156 85.089844 78.9375 85.351562 78.9375 85.617188 C 78.9375 85.882812 78.910156 86.144531 78.859375 86.402344 C 78.808594 86.660156 78.730469 86.914062 78.628906 87.15625 C 78.527344 87.402344 78.40625 87.632812 78.257812 87.851562 C 78.109375 88.074219 77.945312 88.277344 77.757812 88.460938 C 77.570312 88.648438 77.367188 88.816406 77.148438 88.964844 C 76.925781 89.109375 76.695312 89.234375 76.449219 89.335938 C 76.207031 89.4375 75.953125 89.511719 75.695312 89.5625 C 75.4375 89.613281 75.175781 89.640625 74.910156 89.640625 M 41.574219 61.941406 C 41.605469 61.902344 41.640625 61.867188 41.679688 61.835938 C 41.746094 61.789062 41.816406 61.765625 41.898438 61.761719 C 42 61.761719 42.089844 61.796875 42.167969 61.871094 C 42.171875 61.878906 42.175781 61.882812 42.183594 61.886719 C 49.695312 69.054688 57.578125 63.246094 59.21875 61.886719 L 59.386719 61.734375 C 59.433594 61.71875 59.480469 61.707031 59.535156 61.710938 C 59.589844 61.707031 59.644531 61.714844 59.699219 61.734375 L 59.867188 61.886719 C 61.503906 63.246094 69.382812 69.054688 76.898438 61.886719 C 76.898438 61.886719 76.90625 61.878906 76.914062 61.871094 C 76.988281 61.796875 77.074219 61.761719 77.179688 61.761719 C 77.257812 61.765625 77.332031 61.789062 77.398438 61.835938 C 77.441406 61.863281 77.476562 61.902344 77.507812 61.941406 C 78.964844 63.375 85.257812 68.796875 91.914062 63.007812 C 91.992188 62.933594 92.03125 62.839844 92.03125 62.730469 L 92.03125 59.980469 C 92.03125 59.871094 91.996094 59.78125 91.917969 59.703125 C 91.839844 59.625 91.75 59.585938 91.640625 59.585938 C 91.609375 59.589844 91.582031 59.59375 91.554688 59.601562 L 91.355469 59.703125 C 89.308594 60.730469 82.960938 63.160156 77.203125 57.71875 C 77.148438 57.667969 77.09375 57.617188 77.035156 57.558594 C 76.984375 57.53125 76.929688 57.519531 76.871094 57.523438 C 76.828125 57.519531 76.789062 57.53125 76.75 57.550781 C 76.664062 57.574219 76.597656 57.621094 76.550781 57.699219 C 74.835938 59.003906 66.953125 64.339844 59.9375 57.796875 L 59.832031 57.691406 C 59.753906 57.617188 59.660156 57.578125 59.546875 57.582031 C 59.441406 57.582031 59.351562 57.617188 59.273438 57.691406 L 59.167969 57.796875 C 52.152344 64.339844 44.265625 59.003906 42.550781 57.699219 C 42.503906 57.621094 42.441406 57.574219 42.355469 57.550781 C 42.316406 57.53125 42.273438 57.519531 42.230469 57.523438 C 42.171875 57.519531 42.117188 57.53125 42.0625 57.558594 C 42.007812 57.617188 41.953125 57.667969 41.898438 57.71875 C 36.136719 63.160156 29.796875 60.730469 27.75 59.703125 L 27.546875 59.601562 C 27.519531 59.597656 27.496094 59.589844 27.46875 59.585938 C 27.359375 59.585938 27.265625 59.625 27.191406 59.703125 C 27.113281 59.777344 27.074219 59.871094 27.074219 59.980469 L 27.074219 62.730469 C 27.074219 62.839844 27.109375 62.933594 27.1875 63.007812 C 33.839844 68.796875 40.140625 63.375 41.597656 61.941406 M 27.523438 49.621094 C 27.496094 49.613281 27.472656 49.609375 27.445312 49.605469 C 27.335938 49.605469 27.242188 49.644531 27.167969 49.722656 C 27.089844 49.800781 27.050781 49.894531 27.050781 50.003906 L 27.050781 52.746094 C 27.050781 52.859375 27.085938 52.953125 27.167969 53.03125 C 33.816406 58.8125 40.117188 53.394531 41.574219 51.964844 C 41.601562 51.917969 41.636719 51.882812 41.679688 51.851562 C 41.746094 51.808594 41.816406 51.785156 41.898438 51.78125 C 42 51.78125 42.089844 51.816406 42.164062 51.886719 C 42.171875 51.894531 42.175781 51.898438 42.183594 51.902344 C 49.699219 59.070312 57.578125 53.265625 59.214844 51.902344 L 59.382812 51.757812 C 59.429688 51.734375 59.480469 51.726562 59.535156 51.726562 C 59.585938 51.726562 59.640625 51.734375 59.691406 51.757812 L 59.855469 51.902344 C 61.496094 53.265625 69.375 59.070312 76.886719 51.902344 C 76.886719 51.902344 76.898438 51.894531 76.902344 51.886719 C 76.976562 51.816406 77.066406 51.78125 77.171875 51.78125 C 77.25 51.785156 77.324219 51.808594 77.386719 51.851562 C 77.433594 51.882812 77.46875 51.917969 77.5 51.964844 C 78.953125 53.394531 85.246094 58.8125 91.90625 53.03125 C 91.984375 52.953125 92.023438 52.859375 92.019531 52.746094 L 92.019531 50 C 92.023438 49.890625 91.984375 49.796875 91.910156 49.71875 C 91.832031 49.640625 91.738281 49.601562 91.628906 49.601562 C 91.601562 49.601562 91.574219 49.609375 91.546875 49.617188 C 91.484375 49.652344 91.417969 49.683594 91.34375 49.71875 C 89.296875 50.746094 82.953125 53.183594 77.191406 47.734375 C 77.136719 47.683594 77.082031 47.632812 77.027344 47.566406 C 76.972656 47.542969 76.917969 47.53125 76.859375 47.53125 C 76.820312 47.53125 76.78125 47.539062 76.738281 47.546875 C 76.65625 47.582031 76.589844 47.632812 76.539062 47.703125 C 74.824219 49.011719 66.945312 54.347656 59.925781 47.800781 L 59.824219 47.703125 C 59.746094 47.625 59.648438 47.585938 59.539062 47.582031 C 59.433594 47.585938 59.339844 47.628906 59.265625 47.703125 L 59.15625 47.800781 C 52.144531 54.347656 44.253906 49.011719 42.539062 47.703125 C 42.492188 47.632812 42.425781 47.582031 42.34375 47.546875 C 42.304688 47.539062 42.261719 47.53125 42.21875 47.53125 C 42.160156 47.53125 42.105469 47.542969 42.054688 47.566406 C 42 47.625 41.945312 47.679688 41.886719 47.734375 C 36.125 53.183594 29.785156 50.746094 27.738281 49.71875 C 27.664062 49.683594 27.597656 49.652344 27.535156 49.617188 "/></g></svg>