<svg xmlns="http://www.w3.org/2000/svg" xmlns:xlink="http://www.w3.org/1999/xlink" width="160" zoomAndPan="magnify" viewBox="0 0 120 119.999999" height="160" preserveAspectRatio="xMidYMid meet" version="1.2"><g id="2fc691cb46"><rect x="0" width="120" y="0" height="119.999999" style="fill:#ffffff;fill-opacity:1;stroke:none;"/><rect x="0" width="120" y="0" height="119.999999" style="fill:#ffffff;fill-opacity:1;stroke:none;"/><rect x="0" width="120" y="0" height="119.999999" style="fill:#bf8b2e;fill-opacity:1;stroke:none;"/><path style=" stroke:none;fill-rule:nonzero;fill:#ffffff;fill-opacity:1;" d="M 8.1875 14.820312 C 7.5 15.191406 5.550781 15.726562 4.871094 16.066406 L 4.871094 12.808594 C 5.777344 12.441406 8.300781 11.222656 9.148438 10.289062 L 12.578125 10.289062 L 12.578125 33.238281 L 8.1875 33.238281 Z M 13.058594 30.148438 L 18.640625 21.566406 C 19.859375 19.667969 21.078125 18.078125 21.078125 15.953125 C 21.078125 14.480469 20.511719 13.6875 19.410156 13.6875 C 17.746094 13.6875 17.34375 15.21875 17.34375 17.089844 L 17.34375 18.136719 L 13.058594 18.136719 L 13.058594 17 C 13.058594 12.949219 14.816406 10 19.320312 10 C 23.34375 10 25.414062 12.238281 25.414062 16.035156 C 25.414062 18.839844 23.96875 20.796875 22.414062 23.148438 L 17.992188 29.777344 L 24.792969 29.777344 L 24.792969 33.234375 L 13.058594 33.234375 Z M 37.980469 16.238281 L 37.980469 13.109375 C 37.980469 11.3125 38.554688 10.171875 40.480469 10.171875 C 42.28125 10.171875 42.855469 11.171875 42.855469 12.699219 L 42.855469 13.433594 L 41.316406 13.433594 L 41.316406 12.675781 C 41.316406 11.941406 41.304688 11.34375 40.492188 11.34375 C 39.683594 11.34375 39.59375 11.972656 39.59375 12.773438 L 39.59375 16.578125 C 39.59375 17.53125 39.789062 17.984375 40.492188 17.984375 C 41.285156 17.984375 41.316406 17.367188 41.316406 16.585938 L 41.316406 15.796875 L 42.855469 15.796875 L 42.855469 16.5 C 42.855469 18.050781 42.335938 19.167969 40.480469 19.167969 C 38.554688 19.167969 37.980469 17.953125 37.980469 16.238281 Z M 43.5 16.296875 L 43.5 13 C 43.5 11.222656 44.148438 10.167969 46.035156 10.167969 C 47.921875 10.167969 48.558594 11.21875 48.558594 13 L 48.558594 16.296875 C 48.558594 18.058594 47.910156 19.164062 46.035156 19.164062 C 44.160156 19.164062 43.5 18.070312 43.5 16.296875 Z M 46.933594 16.671875 L 46.933594 12.632812 C 46.933594 11.898438 46.816406 11.34375 46.035156 11.34375 C 45.253906 11.34375 45.125 11.898438 45.125 12.632812 L 45.125 16.667969 C 45.125 17.394531 45.242188 17.976562 46.035156 17.976562 C 46.828125 17.976562 46.941406 17.398438 46.941406 16.667969 Z M 49.421875 10.273438 L 50.535156 10.273438 L 52.671875 15.273438 L 52.671875 10.273438 L 54 10.273438 L 54 19.046875 L 52.9375 19.046875 L 50.785156 13.804688 L 50.785156 19.046875 L 49.421875 19.046875 Z M 54.785156 16.488281 L 56.167969 16.21875 C 56.210938 17.257812 56.460938 17.929688 57.167969 17.929688 C 57.675781 17.929688 57.894531 17.582031 57.894531 17.105469 C 57.894531 16.347656 57.503906 15.925781 56.929688 15.429688 L 55.824219 14.464844 C 55.195312 13.921875 54.804688 13.316406 54.804688 12.339844 C 54.804688 10.953125 55.671875 10.171875 57.070312 10.171875 C 58.714844 10.171875 59.183594 11.277344 59.269531 12.558594 L 57.894531 12.796875 C 57.863281 11.972656 57.742188 11.355469 57.035156 11.355469 C 56.5625 11.355469 56.300781 11.710938 56.300781 12.179688 C 56.300781 12.773438 56.550781 13.097656 57.015625 13.5 L 58.109375 14.464844 C 58.824219 15.082031 59.421875 15.851562 59.421875 17.011719 C 59.421875 18.277344 58.535156 19.164062 57.222656 19.164062 C 55.605469 19.167969 54.847656 18.234375 54.785156 16.488281 Z M 59.960938 16.207031 L 59.960938 10.273438 L 61.523438 10.273438 L 61.523438 16.390625 C 61.523438 17.226562 61.617188 17.972656 62.433594 17.972656 C 63.246094 17.972656 63.351562 17.226562 63.351562 16.390625 L 63.351562 10.273438 L 64.902344 10.273438 L 64.902344 16.207031 C 64.902344 18.042969 64.390625 19.164062 62.433594 19.164062 C 60.472656 19.164062 59.960938 18.050781 59.960938 16.207031 Z M 65.964844 10.273438 L 67.621094 10.273438 L 68.867188 16.347656 L 70.15625 10.273438 L 71.769531 10.273438 L 71.9375 19.046875 L 70.742188 19.046875 L 70.613281 12.945312 L 69.367188 19.046875 L 68.398438 19.046875 L 67.132812 12.925781 L 67.011719 19.046875 L 65.8125 19.046875 Z M 72.765625 16.296875 L 72.765625 13 C 72.765625 11.222656 73.417969 10.167969 75.300781 10.167969 C 77.1875 10.167969 77.832031 11.226562 77.832031 13 L 77.832031 16.296875 C 77.832031 18.058594 77.183594 19.164062 75.308594 19.164062 C 73.4375 19.164062 72.765625 18.070312 72.765625 16.296875 Z M 76.199219 16.667969 L 76.199219 12.632812 C 76.199219 11.898438 76.082031 11.34375 75.300781 11.34375 C 74.523438 11.34375 74.390625 11.898438 74.390625 12.632812 L 74.390625 16.667969 C 74.390625 17.394531 74.511719 17.976562 75.300781 17.976562 C 76.09375 17.976562 76.199219 17.398438 76.199219 16.667969 Z M 80.988281 10.273438 L 84.667969 10.273438 L 84.667969 11.398438 L 82.582031 11.398438 L 82.582031 13.921875 L 84.226562 13.921875 L 84.226562 15.039062 L 82.582031 15.039062 L 82.582031 17.953125 L 84.691406 17.953125 L 84.691406 19.046875 L 80.988281 19.046875 Z M 38.121094 24.605469 L 40.699219 24.605469 C 42.273438 24.605469 42.941406 25.515625 42.941406 27.105469 C 42.941406 28.828125 42.011719 29.488281 40.589844 29.488281 L 39.714844 29.488281 L 39.714844 33.386719 L 38.121094 33.386719 Z M 40.332031 28.351562 C 41.210938 28.351562 41.4375 28.019531 41.4375 27.085938 C 41.4375 26.148438 41.320312 25.730469 40.332031 25.730469 L 39.714844 25.730469 L 39.714844 28.351562 Z M 43.5 24.605469 L 45.613281 24.605469 C 47.367188 24.605469 48.363281 25.167969 48.363281 26.9375 C 48.363281 27.988281 48.101562 28.726562 47.28125 29.0625 L 48.503906 33.386719 L 46.902344 33.386719 L 45.851562 29.363281 L 45.089844 29.363281 L 45.089844 33.386719 L 43.5 33.386719 Z M 45.601562 28.363281 C 46.523438 28.363281 46.859375 27.964844 46.859375 27.019531 C 46.859375 26.132812 46.609375 25.699219 45.691406 25.699219 L 45.09375 25.699219 L 45.09375 28.363281 Z M 49.074219 30.628906 L 49.074219 27.332031 C 49.074219 25.558594 49.726562 24.5 51.609375 24.5 C 53.496094 24.5 54.132812 25.550781 54.132812 27.332031 L 54.132812 30.625 C 54.132812 32.390625 53.484375 33.496094 51.609375 33.496094 C 49.738281 33.496094 49.074219 32.40625 49.074219 30.628906 Z M 52.507812 31 L 52.507812 26.964844 C 52.507812 26.230469 52.390625 25.675781 51.609375 25.675781 C 50.828125 25.675781 50.699219 26.230469 50.699219 26.964844 L 50.699219 31 C 50.699219 31.726562 50.816406 32.3125 51.609375 32.3125 C 52.402344 32.3125 52.507812 31.734375 52.507812 31 Z M 54.988281 24.605469 L 57.058594 24.605469 C 59.191406 24.605469 59.84375 25.460938 59.84375 27.335938 L 59.84375 30.53125 C 59.84375 32.457031 59.175781 33.378906 57.125 33.378906 L 54.988281 33.378906 Z M 57.078125 32.273438 C 58.171875 32.273438 58.21875 31.6875 58.21875 30.59375 L 58.21875 27.226562 C 58.21875 26.175781 58.109375 25.742188 57.050781 25.742188 L 56.574219 25.742188 L 56.574219 32.261719 Z M 60.632812 30.542969 L 60.632812 24.605469 L 62.191406 24.605469 L 62.191406 30.726562 C 62.191406 31.558594 62.289062 32.308594 63.101562 32.308594 C 63.917969 32.308594 64.023438 31.558594 64.023438 30.726562 L 64.023438 24.605469 L 65.574219 24.605469 L 65.574219 30.542969 C 65.574219 32.382812 65.0625 33.5 63.101562 33.5 C 61.144531 33.5 60.632812 32.382812 60.632812 30.542969 Z M 69.699219 27.769531 L 69.699219 27.011719 C 69.699219 26.273438 69.691406 25.675781 68.875 25.675781 C 68.0625 25.675781 67.976562 26.304688 67.976562 27.105469 L 67.976562 30.910156 C 67.976562 31.863281 68.171875 32.316406 68.875 32.316406 C 69.667969 32.316406 69.699219 31.699219 69.699219 30.921875 L 69.699219 30.128906 L 71.238281 30.128906 L 71.238281 30.832031 C 71.238281 32.316406 70.761719 33.410156 69.082031 33.5 L 69.082031 34.042969 C 69.886719 34.042969 70.425781 34.398438 70.425781 35.070312 C 70.425781 35.839844 69.742188 36.164062 68.953125 36.164062 C 68.6875 36.164062 68.429688 36.121094 68.171875 36.046875 L 68.171875 35.363281 C 68.363281 35.421875 68.558594 35.453125 68.757812 35.449219 C 69.136719 35.449219 69.425781 35.339844 69.425781 35.050781 C 69.425781 34.660156 68.980469 34.519531 68.472656 34.464844 L 68.472656 33.476562 C 66.867188 33.3125 66.371094 32.15625 66.371094 30.574219 L 66.371094 27.441406 C 66.371094 25.644531 66.945312 24.507812 68.871094 24.507812 C 70.667969 24.507812 71.242188 25.507812 71.242188 27.03125 L 71.242188 27.769531 Z M 73.332031 24.605469 L 75.046875 24.605469 L 76.800781 33.378906 L 75.316406 33.378906 L 74.96875 31.351562 L 73.441406 31.351562 L 73.085938 33.378906 L 71.585938 33.378906 Z M 73.667969 22.945312 C 73.386719 22.945312 73.285156 23.113281 73.285156 23.390625 L 72.527344 23.390625 C 72.527344 22.613281 72.746094 22.027344 73.449219 22.027344 C 73.980469 22.027344 74.339844 22.527344 74.804688 22.527344 C 75.054688 22.527344 75.148438 22.375 75.148438 22.09375 L 75.863281 22.09375 C 75.863281 22.773438 75.746094 23.457031 75.042969 23.457031 C 74.488281 23.457031 74.121094 22.945312 73.675781 22.945312 Z M 74.804688 30.332031 L 74.207031 26.648438 L 73.613281 30.332031 Z M 77.132812 30.628906 L 77.132812 27.332031 C 77.132812 25.558594 77.78125 24.5 79.667969 24.5 C 81.550781 24.5 82.191406 25.550781 82.191406 27.332031 L 82.191406 30.625 C 82.191406 32.390625 81.542969 33.496094 79.667969 33.496094 C 77.792969 33.496094 77.132812 32.40625 77.132812 30.628906 Z M 80.566406 31 L 80.566406 26.964844 C 80.566406 26.230469 80.445312 25.675781 79.667969 25.675781 C 78.886719 25.675781 78.757812 26.230469 78.757812 26.964844 L 78.757812 31 C 78.757812 31.726562 78.875 32.3125 79.667969 32.3125 C 80.457031 32.3125 80.566406 31.734375 80.566406 31 Z M 38.121094 38.9375 L 40.234375 38.9375 C 41.988281 38.9375 42.988281 39.5 42.988281 41.273438 C 42.988281 42.324219 42.726562 43.058594 41.902344 43.394531 L 43.125 47.71875 L 41.523438 47.71875 L 40.472656 43.699219 L 39.714844 43.699219 L 39.714844 47.71875 L 38.121094 47.71875 Z M 40.222656 42.695312 C 41.144531 42.695312 41.480469 42.296875 41.480469 41.351562 C 41.480469 40.464844 41.230469 40.03125 40.3125 40.03125 L 39.71875 40.03125 L 39.71875 42.699219 Z M 43.875 38.9375 L 47.558594 38.9375 L 47.558594 40.066406 L 45.464844 40.066406 L 45.464844 42.589844 L 47.113281 42.589844 L 47.113281 43.703125 L 45.464844 43.703125 L 45.464844 46.617188 L 47.578125 46.617188 L 47.578125 47.714844 L 43.875 47.714844 Z M 47.96875 45.15625 L 49.34375 44.886719 C 49.386719 45.925781 49.636719 46.597656 50.34375 46.597656 C 50.851562 46.597656 51.070312 46.25 51.070312 45.773438 C 51.070312 45.015625 50.679688 44.59375 50.105469 44.09375 L 49 43.128906 C 48.371094 42.589844 47.980469 41.980469 47.980469 41.007812 C 47.980469 39.621094 48.847656 38.839844 50.246094 38.839844 C 51.894531 38.839844 52.359375 39.945312 52.445312 41.222656 L 51.070312 41.460938 C 51.035156 40.636719 50.917969 40.023438 50.214844 40.023438 C 49.738281 40.023438 49.476562 40.378906 49.476562 40.84375 C 49.476562 41.441406 49.726562 41.765625 50.191406 42.167969 L 51.285156 43.128906 C 52 43.75 52.597656 44.515625 52.597656 45.675781 C 52.597656 46.941406 51.707031 47.832031 50.398438 47.832031 C 48.792969 47.832031 48.035156 46.898438 47.96875 45.15625 Z M 53.210938 38.9375 L 55.789062 38.9375 C 57.363281 38.9375 58.035156 39.847656 58.035156 41.4375 C 58.035156 43.160156 57.101562 43.820312 55.683594 43.820312 L 54.804688 43.820312 L 54.804688 47.722656 L 53.210938 47.722656 Z M 55.421875 42.6875 C 56.300781 42.6875 56.527344 42.351562 56.527344 41.417969 C 56.527344 40.484375 56.410156 40.066406 55.421875 40.066406 L 54.804688 40.066406 L 54.804688 42.6875 Z M 58.453125 44.960938 L 58.453125 41.667969 C 58.453125 39.890625 59.105469 38.832031 60.988281 38.832031 C 62.875 38.832031 63.515625 39.886719 63.515625 41.667969 L 63.515625 44.960938 C 63.515625 46.726562 62.863281 47.828125 60.988281 47.828125 C 59.113281 47.828125 58.453125 46.738281 58.453125 44.960938 Z M 61.890625 45.332031 L 61.890625 41.300781 C 61.890625 40.5625 61.769531 40.011719 60.988281 40.011719 C 60.210938 40.011719 60.078125 40.5625 60.078125 41.300781 L 60.078125 45.332031 C 60.078125 46.058594 60.199219 46.644531 60.988281 46.644531 C 61.78125 46.644531 61.890625 46.066406 61.890625 45.332031 Z M 64.371094 38.9375 L 65.488281 38.9375 L 67.621094 43.9375 L 67.621094 38.9375 L 68.941406 38.9375 L 68.941406 47.714844 L 67.878906 47.714844 L 65.734375 42.46875 L 65.734375 47.714844 L 64.371094 47.714844 Z M 69.734375 45.15625 L 71.109375 44.886719 C 71.152344 45.925781 71.402344 46.597656 72.109375 46.597656 C 72.617188 46.597656 72.835938 46.25 72.835938 45.773438 C 72.835938 45.015625 72.445312 44.59375 71.871094 44.09375 L 70.765625 43.128906 C 70.136719 42.589844 69.746094 41.980469 69.746094 41.007812 C 69.746094 39.621094 70.613281 38.839844 72.011719 38.839844 C 73.660156 38.839844 74.125 39.945312 74.210938 41.222656 L 72.832031 41.460938 C 72.800781 40.636719 72.683594 40.023438 71.976562 40.023438 C 71.5 40.023438 71.238281 40.378906 71.238281 40.84375 C 71.238281 41.441406 71.488281 41.765625 71.953125 42.167969 L 73.050781 43.128906 C 73.765625 43.75 74.359375 44.515625 74.359375 45.675781 C 74.359375 46.941406 73.472656 47.832031 72.160156 47.832031 C 70.558594 47.832031 69.796875 46.898438 69.734375 45.15625 Z M 76.242188 38.9375 L 77.953125 38.9375 L 79.710938 47.714844 L 78.226562 47.714844 L 77.878906 45.6875 L 76.351562 45.6875 L 76 47.714844 L 74.5 47.714844 Z M 77.707031 44.667969 L 77.109375 40.984375 L 76.515625 44.667969 Z M 77.316406 36.167969 L 78.816406 36.167969 L 77.527344 38.332031 L 76.667969 38.332031 Z M 79.527344 38.9375 L 80.933594 38.9375 L 82.09375 45.144531 L 83.1875 38.9375 L 84.628906 38.9375 L 82.863281 47.714844 L 81.292969 47.714844 Z M 85.203125 38.9375 L 88.886719 38.9375 L 88.886719 40.066406 L 86.796875 40.066406 L 86.796875 42.589844 L 88.441406 42.589844 L 88.441406 43.703125 L 86.796875 43.703125 L 86.796875 46.617188 L 88.910156 46.617188 L 88.910156 47.714844 L 85.203125 47.714844 Z M 89.558594 38.9375 L 91.140625 38.9375 L 91.140625 47.714844 L 89.558594 47.714844 Z M 91.953125 45.15625 L 93.328125 44.886719 C 93.371094 45.925781 93.621094 46.597656 94.328125 46.597656 C 94.828125 46.597656 95.054688 46.25 95.054688 45.773438 C 95.054688 45.015625 94.664062 44.59375 94.089844 44.09375 L 92.984375 43.128906 C 92.355469 42.589844 91.964844 41.980469 91.964844 41.007812 C 91.964844 39.621094 92.832031 38.839844 94.230469 38.839844 C 95.875 38.839844 96.34375 39.945312 96.429688 41.222656 L 95.054688 41.460938 C 95.023438 40.636719 94.902344 40.023438 94.199219 40.023438 C 93.722656 40.023438 93.460938 40.378906 93.460938 40.84375 C 93.460938 41.441406 93.710938 41.765625 94.175781 42.167969 L 95.269531 43.128906 C 95.984375 43.75 96.582031 44.515625 96.582031 45.675781 C 96.582031 46.941406 95.691406 47.832031 94.382812 47.832031 C 92.773438 47.832031 92.015625 46.898438 91.953125 45.15625 Z M 90.683594 62.277344 C 85.351562 58.0625 78.269531 57.976562 75.683594 58.589844 L 75.386719 58.660156 C 72.394531 59.367188 67.640625 60.535156 62.078125 67.441406 C 62.046875 67.480469 62.011719 67.519531 61.984375 67.558594 L 61.914062 67.644531 C 61.851562 67.722656 61.820312 67.8125 61.820312 67.910156 C 61.820312 67.992188 61.839844 68.070312 61.878906 68.144531 L 62.011719 68.355469 C 62.707031 69.523438 63.589844 71.023438 64.332031 72.414062 C 64.339844 72.425781 64.347656 72.441406 64.351562 72.453125 C 64.441406 72.628906 64.582031 72.714844 64.777344 72.714844 C 64.90625 72.71875 65.019531 72.671875 65.113281 72.582031 C 65.148438 72.539062 65.183594 72.488281 65.214844 72.441406 C 70.152344 65.609375 74.035156 64.671875 76.660156 64.050781 L 76.976562 63.976562 C 78.339844 63.644531 83.523438 63.671875 87.261719 66.625 C 90.183594 68.929688 91.667969 72.597656 91.667969 77.527344 C 91.667969 85.796875 87.644531 89.027344 84.269531 90.285156 C 79.042969 92.242188 74.03125 89.621094 73.992188 89.609375 L 73.769531 89.5 C 70.898438 88.253906 66.613281 85.667969 62.570312 77.546875 C 54.421875 61.199219 47.613281 59.667969 43.105469 58.636719 L 42.863281 58.585938 C 40.8125 58.121094 33.6875 57.789062 28.089844 62.261719 C 25.160156 64.59375 21.675781 69.132812 21.675781 77.496094 C 21.675781 82.589844 22.722656 85.953125 25.414062 89.496094 C 26.003906 90.300781 32.03125 98.046875 43.6875 95.8125 C 45.550781 95.453125 48.078125 94.566406 50.851562 92.476562 L 53.417969 94.792969 C 53.503906 94.867188 53.605469 94.902344 53.71875 94.898438 C 53.832031 94.890625 53.929688 94.847656 54.007812 94.761719 C 54.078125 94.683594 54.113281 94.589844 54.109375 94.484375 L 54.109375 94.449219 L 55.960938 83.066406 L 55.960938 82.941406 C 55.957031 82.820312 55.914062 82.71875 55.824219 82.636719 C 55.746094 82.566406 55.65625 82.53125 55.550781 82.535156 L 55.472656 82.535156 L 55.351562 82.546875 L 44.449219 85.601562 L 44.25 85.632812 C 44.167969 85.648438 44.097656 85.691406 44.042969 85.753906 C 43.964844 85.839844 43.925781 85.941406 43.933594 86.054688 C 43.9375 86.171875 43.984375 86.269531 44.070312 86.34375 L 44.199219 86.464844 L 46.644531 88.671875 C 45.066406 89.691406 43.691406 90.160156 42.644531 90.363281 C 34.210938 91.972656 30.046875 86.449219 29.886719 86.234375 L 29.832031 86.167969 C 27.875 83.59375 27.210938 81.410156 27.210938 77.5 C 27.210938 72.558594 28.667969 68.886719 31.546875 66.589844 C 35.191406 63.683594 40.222656 63.664062 41.640625 63.988281 L 41.886719 64.042969 C 45.578125 64.875 50.636719 66.023438 57.605469 80.019531 C 61.226562 87.285156 65.757812 92.039062 71.460938 94.542969 C 74.203125 95.871094 77.097656 96.542969 80.148438 96.558594 C 82.226562 96.5625 84.246094 96.207031 86.195312 95.484375 C 89.503906 94.25 97.195312 90.035156 97.195312 77.53125 C 97.195312 69.175781 93.660156 64.628906 90.695312 62.285156 "/></g></svg>