<svg xmlns="http://www.w3.org/2000/svg" xmlns:xlink="http://www.w3.org/1999/xlink" width="160" zoomAndPan="magnify" viewBox="0 0 120 119.999999" height="160" preserveAspectRatio="xMidYMid meet" version="1.2"><g id="13b970232b"><rect x="0" width="120" y="0" height="119.999999" style="fill:#ffffff;fill-opacity:1;stroke:none;"/><rect x="0" width="120" y="0" height="119.999999" style="fill:#ffffff;fill-opacity:1;stroke:none;"/><rect x="0" width="120" y="0" height="119.999999" style="fill:#fd9d24;fill-opacity:1;stroke:none;"/><path style=" stroke:none;fill-rule:nonzero;fill:#ffffff;fill-opacity:1;" d="M 8.351562 14.820312 C 7.667969 15.191406 5.71875 15.726562 5.039062 16.066406 L 5.039062 12.808594 C 5.945312 12.441406 8.464844 11.222656 9.316406 10.289062 L 12.746094 10.289062 L 12.746094 33.238281 L 8.351562 33.238281 Z M 8.351562 14.820312 "/><path style=" stroke:none;fill-rule:nonzero;fill:#ffffff;fill-opacity:1;" d="M 14.386719 14.820312 C 13.707031 15.191406 11.753906 15.726562 11.074219 16.066406 L 11.074219 12.808594 C 11.980469 12.441406 14.5 11.222656 15.351562 10.289062 L 18.78125 10.289062 L 18.78125 33.238281 L 14.386719 33.238281 Z M 32.140625 16.238281 L 32.140625 13.109375 C 32.140625 11.3125 32.714844 10.171875 34.640625 10.171875 C 36.441406 10.171875 37.015625 11.171875 37.015625 12.699219 L 37.015625 13.433594 L 35.476562 13.433594 L 35.476562 12.675781 C 35.476562 11.941406 35.464844 11.34375 34.652344 11.34375 C 33.839844 11.34375 33.753906 11.972656 33.753906 12.773438 L 33.753906 16.578125 C 33.753906 17.53125 33.949219 17.984375 34.652344 17.984375 C 35.441406 17.984375 35.476562 17.367188 35.476562 16.585938 L 35.476562 15.796875 L 37.015625 15.796875 L 37.015625 16.5 C 37.015625 18.050781 36.496094 19.167969 34.640625 19.167969 C 32.714844 19.167969 32.140625 17.953125 32.140625 16.238281 Z M 37.730469 10.273438 L 39.3125 10.273438 L 39.3125 19.046875 L 37.730469 19.046875 Z M 40.222656 10.273438 L 42.292969 10.273438 C 44.425781 10.273438 45.078125 11.125 45.078125 13 L 45.078125 16.195312 C 45.078125 18.125 44.410156 19.046875 42.359375 19.046875 L 40.222656 19.046875 Z M 42.316406 17.929688 C 43.410156 17.929688 43.453125 17.34375 43.453125 16.25 L 43.453125 12.894531 C 43.453125 11.839844 43.34375 11.410156 42.292969 11.410156 L 41.816406 11.410156 L 41.816406 17.929688 Z M 47.058594 10.273438 L 48.773438 10.273438 L 50.527344 19.046875 L 49.042969 19.046875 L 48.695312 17.019531 L 47.167969 17.019531 L 46.808594 19.046875 L 45.308594 19.046875 Z M 48.523438 16 L 47.925781 12.316406 L 47.332031 16 Z M 50.960938 10.273438 L 53.027344 10.273438 C 55.164062 10.273438 55.8125 11.125 55.8125 13 L 55.8125 16.195312 C 55.8125 18.125 55.148438 19.046875 53.09375 19.046875 L 50.960938 19.046875 Z M 53.050781 17.929688 C 54.144531 17.929688 54.1875 17.34375 54.1875 16.25 L 54.1875 12.894531 C 54.1875 11.839844 54.078125 11.410156 53.023438 11.410156 L 52.546875 11.410156 L 52.546875 17.929688 Z M 56.550781 10.273438 L 60.234375 10.273438 L 60.234375 11.398438 L 58.140625 11.398438 L 58.140625 13.921875 L 59.789062 13.921875 L 59.789062 15.039062 L 58.140625 15.039062 L 58.140625 17.953125 L 60.253906 17.953125 L 60.253906 19.046875 L 56.550781 19.046875 Z M 60.523438 16.488281 L 61.902344 16.21875 C 61.945312 17.257812 62.191406 17.929688 62.902344 17.929688 C 63.410156 17.929688 63.625 17.582031 63.625 17.105469 C 63.625 16.347656 63.238281 15.925781 62.664062 15.429688 L 61.558594 14.464844 C 60.929688 13.921875 60.539062 13.316406 60.539062 12.339844 C 60.539062 10.953125 61.40625 10.171875 62.804688 10.171875 C 64.449219 10.171875 64.917969 11.277344 65.003906 12.558594 L 63.625 12.796875 C 63.59375 11.972656 63.476562 11.355469 62.773438 11.355469 C 62.296875 11.355469 62.035156 11.710938 62.035156 12.179688 C 62.035156 12.773438 62.285156 13.097656 62.75 13.5 L 63.832031 14.464844 C 64.546875 15.082031 65.144531 15.851562 65.144531 17.011719 C 65.144531 18.277344 64.257812 19.164062 62.945312 19.164062 C 61.347656 19.167969 60.589844 18.234375 60.523438 16.488281 Z M 67.832031 10.273438 L 71.515625 10.273438 L 71.515625 11.398438 L 69.429688 11.398438 L 69.429688 13.921875 L 71.078125 13.921875 L 71.078125 15.039062 L 69.429688 15.039062 L 69.429688 17.953125 L 71.542969 17.953125 L 71.542969 19.046875 L 67.832031 19.046875 Z M 32.140625 30.574219 L 32.140625 27.441406 C 32.140625 25.644531 32.714844 24.507812 34.640625 24.507812 C 36.441406 24.507812 37.015625 25.507812 37.015625 27.03125 L 37.015625 27.769531 L 35.476562 27.769531 L 35.476562 27.011719 C 35.476562 26.273438 35.464844 25.675781 34.652344 25.675781 C 33.839844 25.675781 33.753906 26.304688 33.753906 27.105469 L 33.753906 30.910156 C 33.753906 31.863281 33.949219 32.316406 34.652344 32.316406 C 35.441406 32.316406 35.476562 31.699219 35.476562 30.921875 L 35.476562 30.128906 L 37.015625 30.128906 L 37.015625 30.832031 C 37.015625 32.382812 36.496094 33.5 34.640625 33.5 C 32.714844 33.5 32.140625 32.285156 32.140625 30.574219 Z M 37.546875 30.628906 L 37.546875 27.332031 C 37.546875 25.558594 38.199219 24.5 40.082031 24.5 C 41.96875 24.5 42.609375 25.550781 42.609375 27.332031 L 42.609375 30.625 C 42.609375 32.390625 41.957031 33.496094 40.082031 33.496094 C 38.207031 33.496094 37.546875 32.40625 37.546875 30.628906 Z M 40.984375 31 L 40.984375 26.964844 C 40.984375 26.230469 40.863281 25.675781 40.082031 25.675781 C 39.304688 25.675781 39.167969 26.230469 39.167969 26.964844 L 39.167969 31 C 39.167969 31.726562 39.285156 32.3125 40.078125 32.3125 C 40.867188 32.3125 40.984375 31.734375 40.984375 31 Z M 43.472656 24.605469 L 45.140625 24.605469 L 46.386719 30.683594 L 47.667969 24.605469 L 49.28125 24.605469 L 49.445312 33.378906 L 48.253906 33.378906 L 48.125 27.28125 L 46.878906 33.378906 L 45.914062 33.378906 L 44.648438 27.257812 L 44.527344 33.378906 L 43.324219 33.378906 Z M 50.234375 30.542969 L 50.234375 24.605469 L 51.792969 24.605469 L 51.792969 30.726562 C 51.792969 31.558594 51.890625 32.308594 52.703125 32.308594 C 53.515625 32.308594 53.625 31.558594 53.625 30.726562 L 53.625 24.605469 L 55.175781 24.605469 L 55.175781 30.542969 C 55.175781 32.382812 54.664062 33.5 52.703125 33.5 C 50.742188 33.5 50.234375 32.382812 50.234375 30.542969 Z M 55.988281 24.605469 L 57.101562 24.605469 L 59.238281 29.605469 L 59.238281 24.605469 L 60.558594 24.605469 L 60.558594 33.378906 L 59.5 33.378906 L 57.355469 28.136719 L 57.355469 33.378906 L 55.988281 33.378906 Z M 61.488281 24.605469 L 63.070312 24.605469 L 63.070312 33.378906 L 61.488281 33.378906 Z M 63.980469 24.605469 L 66.050781 24.605469 C 68.183594 24.605469 68.835938 25.460938 68.835938 27.335938 L 68.835938 30.53125 C 68.835938 32.457031 68.167969 33.378906 66.113281 33.378906 L 63.980469 33.378906 Z M 66.070312 32.273438 C 67.167969 32.273438 67.210938 31.6875 67.210938 30.59375 L 67.210938 27.226562 C 67.210938 26.175781 67.101562 25.742188 66.042969 25.742188 L 65.566406 25.742188 L 65.566406 32.261719 Z M 70.816406 24.605469 L 72.527344 24.605469 L 74.285156 33.378906 L 72.800781 33.378906 L 72.453125 31.351562 L 70.925781 31.351562 L 70.566406 33.378906 L 69.066406 33.378906 Z M 72.28125 30.332031 L 71.683594 26.648438 L 71.089844 30.332031 Z M 74.714844 24.605469 L 76.785156 24.605469 C 78.921875 24.605469 79.570312 25.460938 79.570312 27.335938 L 79.570312 30.53125 C 79.570312 32.457031 78.902344 33.378906 76.851562 33.378906 L 74.714844 33.378906 Z M 76.808594 32.273438 C 77.902344 32.273438 77.945312 31.6875 77.945312 30.59375 L 77.945312 27.226562 C 77.945312 26.175781 77.835938 25.742188 76.785156 25.742188 L 76.308594 25.742188 L 76.308594 32.261719 Z M 80.308594 24.605469 L 83.988281 24.605469 L 83.988281 25.730469 L 81.898438 25.730469 L 81.898438 28.253906 L 83.546875 28.253906 L 83.546875 29.371094 L 81.898438 29.371094 L 81.898438 32.285156 L 84.011719 32.285156 L 84.011719 33.378906 L 80.308594 33.378906 Z M 84.285156 30.824219 L 85.660156 30.550781 C 85.703125 31.589844 85.953125 32.261719 86.660156 32.261719 C 87.167969 32.261719 87.386719 31.917969 87.386719 31.441406 C 87.386719 30.683594 86.996094 30.261719 86.421875 29.761719 L 85.316406 28.796875 C 84.6875 28.253906 84.296875 27.648438 84.296875 26.671875 C 84.296875 25.285156 85.164062 24.507812 86.5625 24.507812 C 88.207031 24.507812 88.671875 25.613281 88.761719 26.890625 L 87.386719 27.128906 C 87.351562 26.304688 87.234375 25.6875 86.527344 25.6875 C 86.050781 25.6875 85.792969 26.046875 85.792969 26.511719 C 85.792969 27.105469 86.042969 27.433594 86.507812 27.832031 L 87.601562 28.796875 C 88.316406 29.414062 88.910156 30.183594 88.910156 31.34375 C 88.910156 32.609375 88.023438 33.5 86.714844 33.5 C 85.105469 33.5 84.347656 32.566406 84.285156 30.824219 Z M 32.066406 45.15625 L 33.441406 44.886719 C 33.488281 45.925781 33.734375 46.597656 34.441406 46.597656 C 34.953125 46.597656 35.171875 46.25 35.171875 45.773438 C 35.171875 45.015625 34.78125 44.59375 34.207031 44.09375 L 33.101562 43.128906 C 32.472656 42.589844 32.082031 41.980469 32.082031 41.007812 C 32.082031 39.621094 32.949219 38.839844 34.347656 38.839844 C 35.992188 38.839844 36.460938 39.945312 36.546875 41.222656 L 35.167969 41.460938 C 35.136719 40.636719 35.015625 40.023438 34.3125 40.023438 C 33.835938 40.023438 33.574219 40.378906 33.574219 40.84375 C 33.574219 41.441406 33.824219 41.765625 34.289062 42.167969 L 35.382812 43.128906 C 36.097656 43.75 36.695312 44.515625 36.695312 45.675781 C 36.695312 46.941406 35.808594 47.832031 34.496094 47.832031 C 32.890625 47.832031 32.132812 46.898438 32.066406 45.15625 Z M 37.125 44.875 L 37.125 38.9375 L 38.683594 38.9375 L 38.683594 45.058594 C 38.683594 45.890625 38.785156 46.640625 39.59375 46.640625 C 40.40625 46.640625 40.515625 45.894531 40.515625 45.058594 L 40.515625 38.9375 L 42.066406 38.9375 L 42.066406 44.875 C 42.066406 46.714844 41.558594 47.832031 39.59375 47.832031 C 37.632812 47.832031 37.125 46.714844 37.125 44.875 Z M 42.667969 45.15625 L 44.042969 44.886719 C 44.085938 45.925781 44.335938 46.597656 45.042969 46.597656 C 45.550781 46.597656 45.769531 46.25 45.769531 45.773438 C 45.769531 45.015625 45.378906 44.59375 44.804688 44.09375 L 43.699219 43.128906 C 43.070312 42.589844 42.679688 41.980469 42.679688 41.007812 C 42.679688 39.621094 43.546875 38.839844 44.945312 38.839844 C 46.589844 38.839844 47.058594 39.945312 47.144531 41.222656 L 45.769531 41.460938 C 45.734375 40.636719 45.617188 40.023438 44.910156 40.023438 C 44.433594 40.023438 44.175781 40.378906 44.175781 40.84375 C 44.175781 41.441406 44.425781 41.765625 44.890625 42.167969 L 45.984375 43.128906 C 46.699219 43.75 47.296875 44.515625 47.296875 45.675781 C 47.296875 46.941406 46.40625 47.832031 45.097656 47.832031 C 43.484375 47.832031 42.726562 46.898438 42.667969 45.15625 Z M 48.667969 40.117188 L 47.269531 40.117188 L 47.269531 38.9375 L 51.636719 38.9375 L 51.636719 40.117188 L 50.265625 40.117188 L 50.265625 47.714844 L 48.667969 47.714844 Z M 51.988281 38.9375 L 55.667969 38.9375 L 55.667969 40.066406 L 53.582031 40.066406 L 53.582031 42.589844 L 55.226562 42.589844 L 55.226562 43.703125 L 53.582031 43.703125 L 53.582031 46.617188 L 55.691406 46.617188 L 55.691406 47.714844 L 51.988281 47.714844 Z M 56.183594 38.9375 L 57.296875 38.9375 L 59.433594 43.9375 L 59.433594 38.9375 L 60.753906 38.9375 L 60.753906 47.714844 L 59.691406 47.714844 L 57.546875 42.46875 L 57.546875 47.714844 L 56.183594 47.714844 Z M 62.519531 40.117188 L 61.121094 40.117188 L 61.121094 38.9375 L 65.488281 38.9375 L 65.488281 40.117188 L 64.121094 40.117188 L 64.121094 47.714844 L 62.519531 47.714844 Z M 66.9375 38.9375 L 68.648438 38.9375 L 70.40625 47.714844 L 68.921875 47.714844 L 68.574219 45.6875 L 67.046875 45.6875 L 66.691406 47.714844 L 65.191406 47.714844 Z M 68.402344 44.667969 L 67.804688 40.984375 L 67.210938 44.667969 Z M 68.011719 36.167969 L 69.511719 36.167969 L 68.222656 38.332031 L 67.367188 38.332031 Z M 70.101562 38.9375 L 71.511719 38.9375 L 72.675781 45.144531 L 73.769531 38.9375 L 75.210938 38.9375 L 73.445312 47.714844 L 71.875 47.714844 Z M 75.667969 38.9375 L 79.351562 38.9375 L 79.351562 40.066406 L 77.25 40.066406 L 77.25 42.589844 L 78.898438 42.589844 L 78.898438 43.703125 L 77.25 43.703125 L 77.25 46.617188 L 79.363281 46.617188 L 79.363281 47.714844 L 75.667969 47.714844 Z M 79.894531 38.9375 L 81.476562 38.9375 L 81.476562 47.714844 L 79.894531 47.714844 Z M 82.167969 45.15625 L 83.542969 44.886719 C 83.585938 45.925781 83.835938 46.597656 84.542969 46.597656 C 85.050781 46.597656 85.269531 46.25 85.269531 45.773438 C 85.269531 45.015625 84.878906 44.59375 84.304688 44.09375 L 83.199219 43.128906 C 82.570312 42.589844 82.179688 41.980469 82.179688 41.007812 C 82.179688 39.621094 83.046875 38.839844 84.445312 38.839844 C 86.089844 38.839844 86.558594 39.945312 86.644531 41.222656 L 85.269531 41.460938 C 85.234375 40.636719 85.117188 40.023438 84.410156 40.023438 C 83.933594 40.023438 83.675781 40.378906 83.675781 40.84375 C 83.675781 41.441406 83.925781 41.765625 84.390625 42.167969 L 85.484375 43.128906 C 86.199219 43.75 86.796875 44.515625 86.796875 45.675781 C 86.796875 46.941406 85.90625 47.832031 84.597656 47.832031 C 83 47.832031 82.234375 46.898438 82.167969 45.15625 Z M 27.800781 94.332031 L 43.589844 94.332031 C 43.757812 94.332031 43.875 94.257812 43.941406 94.105469 C 44.011719 93.949219 43.988281 93.8125 43.875 93.6875 L 43.851562 93.664062 L 36 83.5 L 35.921875 83.417969 C 35.847656 83.332031 35.75 83.289062 35.636719 83.289062 C 35.539062 83.292969 35.457031 83.324219 35.382812 83.390625 L 35.335938 83.445312 L 35.261719 83.527344 L 27.59375 93.585938 L 27.476562 93.726562 C 27.390625 93.859375 27.382812 93.992188 27.457031 94.128906 C 27.53125 94.265625 27.644531 94.332031 27.800781 94.332031 Z M 43.542969 95.769531 L 27.722656 95.769531 C 27.613281 95.769531 27.523438 95.804688 27.445312 95.882812 C 27.371094 95.957031 27.332031 96.050781 27.332031 96.15625 L 27.332031 108.535156 C 27.332031 108.644531 27.371094 108.734375 27.445312 108.8125 C 27.523438 108.886719 27.613281 108.925781 27.722656 108.925781 L 32.8125 108.925781 L 32.8125 101.136719 C 32.8125 101.03125 32.851562 100.9375 32.925781 100.863281 C 33 100.785156 33.09375 100.75 33.199219 100.75 L 37.925781 100.75 C 38.035156 100.75 38.125 100.785156 38.203125 100.863281 C 38.277344 100.9375 38.316406 101.03125 38.316406 101.136719 L 38.316406 108.925781 L 43.542969 108.925781 C 43.648438 108.925781 43.742188 108.886719 43.816406 108.8125 C 43.890625 108.734375 43.929688 108.644531 43.929688 108.535156 L 43.929688 96.15625 C 43.929688 96.050781 43.890625 95.957031 43.816406 95.882812 C 43.742188 95.804688 43.648438 95.769531 43.542969 95.769531 Z M 98.222656 92.527344 L 82.554688 92.527344 C 82.449219 92.527344 82.359375 92.5625 82.285156 92.632812 C 82.210938 92.707031 82.171875 92.796875 82.171875 92.898438 L 82.171875 108.710938 C 82.171875 108.816406 82.210938 108.902344 82.285156 108.976562 C 82.363281 109.050781 82.449219 109.085938 82.554688 109.082031 L 98.222656 109.082031 C 98.324219 109.085938 98.414062 109.050781 98.492188 108.976562 C 98.566406 108.90625 98.605469 108.816406 98.605469 108.710938 L 98.605469 92.898438 C 98.605469 92.796875 98.566406 92.707031 98.492188 92.632812 C 98.414062 92.5625 98.328125 92.527344 98.222656 92.527344 M 89.652344 102.851562 C 89.652344 102.953125 89.617188 103.042969 89.539062 103.117188 C 89.464844 103.191406 89.375 103.226562 89.273438 103.226562 L 84.59375 103.226562 C 84.488281 103.226562 84.398438 103.191406 84.324219 103.117188 C 84.246094 103.042969 84.210938 102.953125 84.207031 102.851562 L 84.207031 100.007812 C 84.210938 99.902344 84.246094 99.816406 84.324219 99.742188 C 84.398438 99.667969 84.488281 99.632812 84.59375 99.636719 L 89.273438 99.636719 C 89.375 99.632812 89.464844 99.667969 89.539062 99.742188 C 89.617188 99.816406 89.652344 99.902344 89.652344 100.007812 Z M 89.652344 97.597656 C 89.652344 97.699219 89.613281 97.789062 89.539062 97.863281 C 89.464844 97.933594 89.375 97.972656 89.273438 97.96875 L 84.59375 97.96875 C 84.488281 97.972656 84.398438 97.9375 84.324219 97.863281 C 84.25 97.789062 84.210938 97.703125 84.207031 97.597656 L 84.207031 94.75 C 84.210938 94.648438 84.25 94.558594 84.324219 94.484375 C 84.398438 94.414062 84.488281 94.375 84.59375 94.378906 L 89.273438 94.378906 C 89.375 94.375 89.464844 94.414062 89.539062 94.484375 C 89.613281 94.558594 89.652344 94.648438 89.652344 94.75 Z M 96.804688 102.851562 C 96.804688 102.953125 96.765625 103.042969 96.691406 103.117188 C 96.613281 103.191406 96.523438 103.226562 96.421875 103.226562 L 91.742188 103.226562 C 91.636719 103.226562 91.546875 103.191406 91.472656 103.117188 C 91.398438 103.042969 91.359375 102.953125 91.359375 102.851562 L 91.359375 100.007812 C 91.359375 99.902344 91.398438 99.816406 91.472656 99.742188 C 91.550781 99.667969 91.640625 99.632812 91.742188 99.636719 L 96.421875 99.636719 C 96.523438 99.632812 96.613281 99.667969 96.691406 99.742188 C 96.765625 99.816406 96.800781 99.902344 96.804688 100.007812 Z M 96.804688 97.597656 C 96.800781 97.699219 96.765625 97.789062 96.6875 97.863281 C 96.613281 97.9375 96.523438 97.972656 96.421875 97.96875 L 91.742188 97.96875 C 91.640625 97.972656 91.550781 97.9375 91.472656 97.863281 C 91.398438 97.789062 91.363281 97.699219 91.359375 97.597656 L 91.359375 94.75 C 91.359375 94.648438 91.398438 94.558594 91.472656 94.484375 C 91.550781 94.410156 91.640625 94.375 91.742188 94.378906 L 96.421875 94.378906 C 96.523438 94.375 96.613281 94.410156 96.691406 94.484375 C 96.765625 94.558594 96.800781 94.648438 96.804688 94.75 Z M 61.820312 55.832031 L 46.5 55.832031 C 46.398438 55.832031 46.308594 55.871094 46.234375 55.941406 C 46.164062 56.015625 46.125 56.105469 46.125 56.207031 L 46.125 108.570312 C 46.125 108.675781 46.164062 108.761719 46.234375 108.835938 C 46.308594 108.910156 46.398438 108.945312 46.5 108.945312 L 61.824219 108.945312 C 61.929688 108.945312 62.015625 108.910156 62.089844 108.835938 C 62.164062 108.761719 62.199219 108.675781 62.203125 108.570312 L 62.203125 56.199219 C 62.203125 56.097656 62.164062 56.007812 62.089844 55.933594 C 62.015625 55.863281 61.929688 55.824219 61.824219 55.824219 M 52.707031 102.980469 C 52.707031 103.113281 52.640625 103.179688 52.507812 103.183594 L 49 103.183594 C 48.867188 103.179688 48.800781 103.113281 48.800781 102.980469 L 48.800781 99.070312 C 48.800781 98.9375 48.867188 98.871094 49 98.871094 L 52.5 98.871094 C 52.632812 98.871094 52.699219 98.9375 52.699219 99.070312 Z M 52.707031 94 C 52.710938 94.132812 52.644531 94.199219 52.507812 94.199219 L 49 94.199219 C 48.867188 94.199219 48.800781 94.132812 48.800781 94 L 48.800781 90.089844 C 48.800781 89.957031 48.867188 89.890625 49 89.890625 L 52.5 89.890625 C 52.632812 89.890625 52.699219 89.957031 52.699219 90.089844 Z M 52.707031 85.023438 C 52.707031 85.15625 52.640625 85.222656 52.507812 85.222656 L 49 85.222656 C 48.867188 85.222656 48.800781 85.15625 48.800781 85.023438 L 48.800781 81.109375 C 48.800781 80.976562 48.867188 80.910156 49 80.910156 L 52.5 80.910156 C 52.632812 80.910156 52.699219 80.976562 52.699219 81.109375 Z M 52.707031 76.039062 C 52.707031 76.171875 52.640625 76.242188 52.507812 76.242188 L 49 76.242188 C 48.867188 76.242188 48.800781 76.171875 48.800781 76.039062 L 48.800781 72.128906 C 48.800781 71.996094 48.867188 71.929688 49 71.929688 L 52.5 71.929688 C 52.632812 71.929688 52.699219 71.996094 52.699219 72.128906 Z M 52.707031 67.0625 C 52.707031 67.195312 52.640625 67.261719 52.507812 67.261719 L 49 67.261719 C 48.867188 67.261719 48.800781 67.195312 48.800781 67.0625 L 48.800781 63.148438 C 48.800781 63.015625 48.867188 62.949219 49 62.949219 L 52.5 62.949219 C 52.632812 62.949219 52.699219 63.015625 52.699219 63.148438 Z M 59.589844 102.980469 C 59.589844 103.117188 59.523438 103.183594 59.386719 103.183594 L 55.886719 103.183594 C 55.753906 103.183594 55.683594 103.113281 55.683594 102.980469 L 55.683594 99.070312 C 55.683594 98.9375 55.753906 98.867188 55.886719 98.871094 L 59.386719 98.871094 C 59.523438 98.867188 59.589844 98.933594 59.589844 99.070312 Z M 59.589844 94 C 59.589844 94.136719 59.523438 94.203125 59.386719 94.199219 L 55.886719 94.199219 C 55.75 94.203125 55.683594 94.136719 55.683594 94 L 55.683594 90.089844 C 55.683594 89.953125 55.75 89.886719 55.886719 89.890625 L 59.386719 89.890625 C 59.523438 89.886719 59.589844 89.953125 59.589844 90.089844 Z M 59.589844 85.023438 C 59.589844 85.15625 59.519531 85.222656 59.386719 85.222656 L 55.886719 85.222656 C 55.753906 85.222656 55.6875 85.15625 55.683594 85.023438 L 55.683594 81.109375 C 55.683594 80.976562 55.753906 80.910156 55.886719 80.910156 L 59.386719 80.910156 C 59.523438 80.90625 59.589844 80.972656 59.589844 81.109375 Z M 59.589844 76.039062 C 59.589844 76.175781 59.523438 76.242188 59.386719 76.242188 L 55.886719 76.242188 C 55.753906 76.242188 55.683594 76.175781 55.683594 76.039062 L 55.683594 72.128906 C 55.6875 71.996094 55.753906 71.929688 55.886719 71.929688 L 59.386719 71.929688 C 59.519531 71.929688 59.589844 71.992188 59.589844 72.128906 Z M 59.589844 67.0625 C 59.589844 67.195312 59.519531 67.261719 59.386719 67.261719 L 55.886719 67.261719 C 55.753906 67.261719 55.6875 67.195312 55.683594 67.0625 L 55.683594 63.148438 C 55.683594 63.015625 55.753906 62.949219 55.886719 62.949219 L 59.386719 62.949219 C 59.523438 62.949219 59.589844 63.015625 59.589844 63.148438 Z M 98.589844 90.9375 C 98.589844 91.023438 98.558594 91.097656 98.496094 91.160156 C 98.433594 91.222656 98.359375 91.253906 98.273438 91.25 L 82.511719 91.25 C 82.425781 91.25 82.351562 91.222656 82.289062 91.160156 C 82.226562 91.097656 82.195312 91.023438 82.195312 90.9375 L 82.195312 87.785156 C 82.195312 87.699219 82.226562 87.625 82.289062 87.5625 C 82.351562 87.5 82.425781 87.46875 82.511719 87.46875 L 98.273438 87.46875 C 98.359375 87.46875 98.433594 87.5 98.496094 87.5625 C 98.558594 87.625 98.589844 87.699219 98.589844 87.785156 Z M 80.332031 65.714844 C 80.316406 65.652344 80.289062 65.597656 80.246094 65.550781 C 80.199219 65.503906 80.148438 65.46875 80.089844 65.445312 C 80.027344 65.421875 79.964844 65.417969 79.902344 65.425781 C 79.839844 65.433594 79.78125 65.457031 79.726562 65.492188 L 79.699219 65.511719 L 79.570312 65.679688 L 64.507812 84.78125 L 64.4375 84.875 C 64.355469 84.957031 64.3125 85.054688 64.308594 85.171875 L 64.308594 108.648438 C 64.308594 108.753906 64.34375 108.839844 64.417969 108.914062 C 64.492188 108.988281 64.578125 109.023438 64.683594 109.023438 L 80 109.023438 C 80.101562 109.023438 80.191406 108.988281 80.265625 108.914062 C 80.339844 108.839844 80.375 108.753906 80.375 108.648438 L 80.375 65.871094 C 80.371094 65.816406 80.359375 65.765625 80.332031 65.714844 Z M 73.992188 76.089844 L 74.101562 75.953125 C 75.128906 74.632812 76.867188 72.496094 77.714844 71.453125 L 77.824219 71.320312 C 77.941406 71.179688 78.085938 71.132812 78.261719 71.175781 C 78.441406 71.222656 78.546875 71.335938 78.578125 71.511719 L 78.578125 76.347656 C 78.578125 76.460938 78.539062 76.5625 78.457031 76.644531 C 78.378906 76.730469 78.277344 76.773438 78.164062 76.777344 L 74.320312 76.777344 C 74.148438 76.773438 74.023438 76.691406 73.945312 76.535156 C 73.871094 76.378906 73.886719 76.230469 73.988281 76.089844 Z M 71.609375 102.847656 C 71.609375 102.949219 71.574219 103.039062 71.5 103.113281 C 71.425781 103.183594 71.339844 103.222656 71.234375 103.222656 L 66.667969 103.222656 C 66.5625 103.222656 66.476562 103.183594 66.402344 103.113281 C 66.328125 103.039062 66.292969 102.949219 66.292969 102.847656 L 66.292969 99.988281 C 66.292969 99.886719 66.328125 99.796875 66.402344 99.722656 C 66.476562 99.652344 66.5625 99.613281 66.667969 99.613281 L 71.234375 99.613281 C 71.335938 99.613281 71.425781 99.652344 71.496094 99.722656 C 71.570312 99.796875 71.605469 99.886719 71.605469 99.988281 Z M 71.609375 97.566406 C 71.609375 97.667969 71.574219 97.757812 71.5 97.828125 C 71.425781 97.902344 71.339844 97.941406 71.234375 97.941406 L 66.667969 97.941406 C 66.5625 97.941406 66.476562 97.902344 66.402344 97.832031 C 66.328125 97.757812 66.292969 97.667969 66.292969 97.566406 L 66.292969 94.707031 C 66.292969 94.601562 66.328125 94.515625 66.402344 94.441406 C 66.476562 94.367188 66.5625 94.332031 66.667969 94.332031 L 71.234375 94.332031 C 71.335938 94.332031 71.425781 94.371094 71.5 94.441406 C 71.570312 94.515625 71.609375 94.605469 71.605469 94.707031 Z M 71.609375 92.285156 C 71.609375 92.386719 71.570312 92.472656 71.5 92.546875 C 71.425781 92.621094 71.339844 92.65625 71.234375 92.65625 L 66.667969 92.65625 C 66.5625 92.65625 66.476562 92.621094 66.402344 92.546875 C 66.328125 92.472656 66.292969 92.386719 66.292969 92.285156 L 66.292969 89.421875 C 66.292969 89.320312 66.328125 89.230469 66.402344 89.15625 C 66.476562 89.085938 66.5625 89.046875 66.667969 89.046875 L 71.234375 89.046875 C 71.335938 89.046875 71.425781 89.085938 71.496094 89.160156 C 71.570312 89.230469 71.605469 89.320312 71.605469 89.421875 Z M 71.621094 80.707031 L 71.621094 87 C 71.621094 87.101562 71.585938 87.191406 71.511719 87.265625 C 71.4375 87.335938 71.351562 87.375 71.246094 87.375 L 66.679688 87.375 C 66.574219 87.375 66.488281 87.339844 66.414062 87.265625 C 66.339844 87.191406 66.300781 87.105469 66.300781 87 L 66.300781 86.207031 C 66.304688 86.15625 66.3125 86.113281 66.332031 86.066406 C 66.335938 86.050781 66.34375 86.035156 66.351562 86.023438 C 66.363281 86.007812 66.375 85.992188 66.386719 85.976562 C 66.398438 85.957031 66.414062 85.933594 66.429688 85.914062 C 67.011719 85.078125 69.648438 81.832031 70.753906 80.476562 L 70.863281 80.339844 C 70.949219 80.234375 71.0625 80.179688 71.199219 80.175781 C 71.433594 80.175781 71.574219 80.292969 71.617188 80.527344 Z M 78.589844 102.847656 C 78.589844 102.949219 78.554688 103.039062 78.480469 103.113281 C 78.410156 103.183594 78.320312 103.222656 78.214844 103.222656 L 73.648438 103.222656 C 73.546875 103.222656 73.457031 103.1875 73.382812 103.113281 C 73.308594 103.039062 73.273438 102.949219 73.273438 102.847656 L 73.273438 99.988281 C 73.273438 99.886719 73.3125 99.796875 73.382812 99.722656 C 73.457031 99.652344 73.546875 99.613281 73.648438 99.613281 L 78.214844 99.613281 C 78.320312 99.613281 78.40625 99.652344 78.480469 99.722656 C 78.554688 99.796875 78.589844 99.886719 78.589844 99.988281 Z M 78.589844 97.566406 C 78.589844 97.667969 78.554688 97.757812 78.480469 97.828125 C 78.410156 97.902344 78.320312 97.941406 78.214844 97.941406 L 73.648438 97.941406 C 73.546875 97.941406 73.457031 97.902344 73.382812 97.832031 C 73.308594 97.757812 73.273438 97.667969 73.273438 97.566406 L 73.273438 94.707031 C 73.273438 94.601562 73.308594 94.515625 73.382812 94.441406 C 73.457031 94.367188 73.546875 94.332031 73.648438 94.332031 L 78.214844 94.332031 C 78.320312 94.332031 78.410156 94.367188 78.480469 94.441406 C 78.554688 94.515625 78.589844 94.601562 78.589844 94.707031 Z M 78.589844 92.285156 C 78.589844 92.386719 78.554688 92.472656 78.480469 92.546875 C 78.40625 92.621094 78.320312 92.65625 78.214844 92.65625 L 73.648438 92.65625 C 73.546875 92.65625 73.457031 92.621094 73.382812 92.546875 C 73.3125 92.476562 73.273438 92.386719 73.273438 92.285156 L 73.273438 89.421875 C 73.273438 89.320312 73.308594 89.230469 73.382812 89.15625 C 73.457031 89.085938 73.546875 89.046875 73.648438 89.046875 L 78.214844 89.046875 C 78.320312 89.046875 78.410156 89.085938 78.480469 89.160156 C 78.554688 89.230469 78.589844 89.320312 78.589844 89.421875 Z M 78.589844 87 C 78.589844 87.101562 78.554688 87.191406 78.480469 87.265625 C 78.40625 87.335938 78.320312 87.375 78.214844 87.375 L 73.648438 87.375 C 73.546875 87.375 73.457031 87.335938 73.382812 87.265625 C 73.3125 87.191406 73.273438 87.105469 73.273438 87 L 73.273438 84.140625 C 73.273438 84.035156 73.3125 83.949219 73.382812 83.875 C 73.457031 83.800781 73.546875 83.765625 73.648438 83.765625 L 78.214844 83.765625 C 78.320312 83.765625 78.40625 83.804688 78.480469 83.875 C 78.554688 83.949219 78.589844 84.035156 78.589844 84.140625 Z M 78.589844 81.714844 C 78.589844 81.820312 78.554688 81.90625 78.480469 81.980469 C 78.40625 82.054688 78.320312 82.089844 78.214844 82.089844 L 73.648438 82.089844 C 73.546875 82.089844 73.457031 82.054688 73.382812 81.980469 C 73.3125 81.910156 73.273438 81.820312 73.273438 81.714844 L 73.273438 78.855469 C 73.273438 78.753906 73.308594 78.664062 73.382812 78.589844 C 73.457031 78.519531 73.546875 78.480469 73.648438 78.480469 L 78.214844 78.480469 C 78.320312 78.480469 78.410156 78.519531 78.480469 78.589844 C 78.554688 78.664062 78.589844 78.753906 78.589844 78.855469 Z M 78.589844 81.714844 "/></g></svg>