<svg xmlns="http://www.w3.org/2000/svg" xmlns:xlink="http://www.w3.org/1999/xlink" width="160" zoomAndPan="magnify" viewBox="0 0 120 119.999999" height="160" preserveAspectRatio="xMidYMid meet" version="1.2"><g id="491921c4e0"><rect x="0" width="120" y="0" height="119.999999" style="fill:#ffffff;fill-opacity:1;stroke:none;"/><rect x="0" width="120" y="0" height="119.999999" style="fill:#ffffff;fill-opacity:1;stroke:none;"/><rect x="0" width="120" y="0" height="119.999999" style="fill:#dd1367;fill-opacity:1;stroke:none;"/><path style=" stroke:none;fill-rule:nonzero;fill:#ffffff;fill-opacity:1;" d="M 8.351562 14.820312 C 7.667969 15.191406 5.71875 15.726562 5.039062 16.066406 L 5.039062 12.808594 C 5.945312 12.441406 8.464844 11.222656 9.316406 10.289062 L 12.746094 10.289062 L 12.746094 33.238281 L 8.351562 33.238281 Z M 13.625 27 L 13.625 16.71875 C 13.625 12.695312 15.523438 9.976562 19.773438 9.976562 C 23.964844 9.976562 25.890625 12.695312 25.890625 16.71875 L 25.890625 27 C 25.890625 30.882812 23.796875 33.628906 19.773438 33.628906 C 15.667969 33.636719 13.625 30.914062 13.625 27 Z M 21.441406 26.914062 L 21.441406 16.804688 C 21.441406 15.585938 21.328125 13.828125 19.777344 13.828125 C 18.160156 13.828125 18.078125 15.585938 18.078125 16.804688 L 18.078125 26.921875 C 18.078125 28.054688 18.273438 29.78125 19.777344 29.78125 C 21.246094 29.78125 21.441406 28.054688 21.441406 26.921875 Z M 38.289062 10.273438 L 40.402344 10.273438 C 42.15625 10.273438 43.152344 10.835938 43.152344 12.605469 C 43.152344 13.65625 42.894531 14.394531 42.070312 14.726562 L 43.292969 19.050781 L 41.691406 19.050781 L 40.640625 15.03125 L 39.882812 15.03125 L 39.882812 19.050781 L 38.289062 19.050781 Z M 40.390625 14.03125 C 41.3125 14.03125 41.648438 13.628906 41.648438 12.6875 C 41.648438 11.796875 41.398438 11.363281 40.480469 11.363281 L 39.886719 11.363281 L 39.886719 14.03125 Z M 44.085938 10.273438 L 47.769531 10.273438 L 47.769531 11.398438 L 45.675781 11.398438 L 45.675781 13.921875 L 47.324219 13.921875 L 47.324219 15.039062 L 45.675781 15.039062 L 45.675781 17.953125 L 47.789062 17.953125 L 47.789062 19.046875 L 44.085938 19.046875 Z M 48.4375 10.273438 L 50.507812 10.273438 C 52.644531 10.273438 53.292969 11.125 53.292969 13 L 53.292969 16.195312 C 53.292969 18.125 52.625 19.046875 50.574219 19.046875 L 48.4375 19.046875 Z M 50.53125 17.929688 C 51.625 17.929688 51.667969 17.34375 51.667969 16.25 L 51.667969 12.894531 C 51.667969 11.839844 51.558594 11.410156 50.5 11.410156 L 50.023438 11.410156 L 50.023438 17.929688 Z M 54.125 16.207031 L 54.125 10.273438 L 55.6875 10.273438 L 55.6875 16.390625 C 55.6875 17.226562 55.785156 17.972656 56.597656 17.972656 C 57.410156 17.972656 57.519531 17.226562 57.519531 16.390625 L 57.519531 10.273438 L 59.066406 10.273438 L 59.066406 16.207031 C 59.066406 18.042969 58.566406 19.164062 56.597656 19.164062 C 54.625 19.164062 54.125 18.050781 54.125 16.207031 Z M 63.238281 13.433594 L 63.238281 12.675781 C 63.238281 11.941406 63.226562 11.34375 62.414062 11.34375 C 61.601562 11.34375 61.515625 11.972656 61.515625 12.773438 L 61.515625 16.578125 C 61.515625 17.53125 61.710938 17.984375 62.414062 17.984375 C 63.203125 17.984375 63.238281 17.367188 63.238281 16.585938 L 63.238281 15.796875 L 64.777344 15.796875 L 64.777344 16.5 C 64.777344 17.984375 64.296875 19.078125 62.621094 19.167969 L 62.621094 19.707031 C 63.421875 19.707031 63.964844 20.066406 63.964844 20.738281 C 63.964844 21.507812 63.28125 21.832031 62.488281 21.832031 C 62.222656 21.828125 61.964844 21.789062 61.710938 21.714844 L 61.710938 21.03125 C 61.902344 21.089844 62.09375 21.117188 62.296875 21.117188 C 62.671875 21.117188 62.960938 21.007812 62.960938 20.714844 C 62.960938 20.328125 62.519531 20.183594 62.007812 20.132812 L 62.007812 19.144531 C 60.40625 18.976562 59.90625 17.824219 59.90625 16.242188 L 59.90625 13.109375 C 59.90625 11.3125 60.480469 10.171875 62.40625 10.171875 C 64.203125 10.171875 64.78125 11.171875 64.78125 12.699219 L 64.78125 13.433594 Z M 66.921875 10.273438 L 68.632812 10.273438 L 70.386719 19.046875 L 68.902344 19.046875 L 68.558594 17.019531 L 67.027344 17.019531 L 66.667969 19.046875 L 65.167969 19.046875 Z M 67.253906 8.605469 C 66.972656 8.605469 66.875 8.773438 66.875 9.050781 L 66.113281 9.050781 C 66.113281 8.269531 66.332031 7.683594 67.035156 7.683594 C 67.566406 7.683594 67.925781 8.183594 68.390625 8.183594 C 68.640625 8.183594 68.738281 8.035156 68.738281 7.75 L 69.453125 7.75 C 69.453125 8.433594 69.332031 9.117188 68.628906 9.117188 C 68.066406 9.125 67.699219 8.613281 67.257812 8.613281 Z M 68.382812 16 L 67.785156 12.316406 L 67.191406 16 Z M 70.753906 16.296875 L 70.753906 13 C 70.753906 11.222656 71.40625 10.167969 73.289062 10.167969 C 75.175781 10.167969 75.816406 11.21875 75.816406 13 L 75.816406 16.296875 C 75.816406 18.058594 75.164062 19.164062 73.289062 19.164062 C 71.414062 19.164062 70.753906 18.070312 70.753906 16.296875 Z M 74.191406 16.667969 L 74.191406 12.632812 C 74.191406 11.898438 74.070312 11.34375 73.289062 11.34375 C 72.511719 11.34375 72.378906 11.898438 72.378906 12.632812 L 72.378906 16.667969 C 72.378906 17.394531 72.5 17.976562 73.289062 17.976562 C 74.078125 17.976562 74.191406 17.398438 74.191406 16.667969 Z M 79.066406 10.273438 L 81.132812 10.273438 C 83.269531 10.273438 83.917969 11.125 83.917969 13 L 83.917969 16.195312 C 83.917969 18.125 83.25 19.046875 81.199219 19.046875 L 79.066406 19.046875 Z M 81.15625 17.929688 C 82.25 17.929688 82.292969 17.34375 82.292969 16.25 L 82.292969 12.894531 C 82.292969 11.839844 82.183594 11.410156 81.125 11.410156 L 80.648438 11.410156 L 80.648438 17.929688 Z M 86.0625 10.273438 L 87.773438 10.273438 L 89.53125 19.046875 L 88.046875 19.046875 L 87.699219 17.019531 L 86.167969 17.019531 L 85.808594 19.046875 L 84.308594 19.046875 Z M 87.523438 16 L 86.929688 12.316406 L 86.332031 16 Z M 89.863281 16.488281 L 91.242188 16.21875 C 91.285156 17.257812 91.535156 17.929688 92.242188 17.929688 C 92.75 17.929688 92.964844 17.582031 92.964844 17.105469 C 92.964844 16.347656 92.578125 15.925781 92.003906 15.429688 L 90.898438 14.464844 C 90.269531 13.921875 89.878906 13.316406 89.878906 12.339844 C 89.878906 10.953125 90.746094 10.171875 92.144531 10.171875 C 93.789062 10.171875 94.257812 11.277344 94.34375 12.558594 L 92.964844 12.796875 C 92.933594 11.972656 92.816406 11.355469 92.113281 11.355469 C 91.636719 11.355469 91.375 11.710938 91.375 12.179688 C 91.375 12.773438 91.625 13.097656 92.089844 13.5 L 93.183594 14.464844 C 93.898438 15.082031 94.496094 15.851562 94.496094 17.011719 C 94.496094 18.277344 93.605469 19.164062 92.296875 19.164062 C 90.6875 19.167969 89.929688 18.234375 89.863281 16.488281 Z M 38.289062 24.605469 L 40.359375 24.605469 C 42.492188 24.605469 43.140625 25.460938 43.140625 27.335938 L 43.140625 30.53125 C 43.140625 32.457031 42.476562 33.378906 40.421875 33.378906 L 38.289062 33.378906 Z M 40.378906 32.273438 C 41.472656 32.273438 41.515625 31.6875 41.515625 30.59375 L 41.515625 27.226562 C 41.515625 26.175781 41.410156 25.742188 40.359375 25.742188 L 39.882812 25.742188 L 39.882812 32.261719 Z M 44.042969 24.605469 L 47.726562 24.605469 L 47.726562 25.730469 L 45.632812 25.730469 L 45.632812 28.253906 L 47.28125 28.253906 L 47.28125 29.371094 L 45.632812 29.371094 L 45.632812 32.285156 L 47.746094 32.285156 L 47.746094 33.378906 L 44.042969 33.378906 Z M 48.179688 30.824219 L 49.554688 30.550781 C 49.597656 31.589844 49.847656 32.261719 50.554688 32.261719 C 51.066406 32.261719 51.28125 31.917969 51.28125 31.441406 C 51.28125 30.683594 50.890625 30.261719 50.316406 29.761719 L 49.210938 28.796875 C 48.582031 28.253906 48.191406 27.648438 48.191406 26.671875 C 48.191406 25.285156 49.058594 24.507812 50.457031 24.507812 C 52.105469 24.507812 52.570312 25.613281 52.65625 26.890625 L 51.28125 27.128906 C 51.25 26.304688 51.128906 25.6875 50.425781 25.6875 C 49.949219 25.6875 49.6875 26.046875 49.6875 26.511719 C 49.6875 27.105469 49.9375 27.433594 50.402344 27.832031 L 51.5 28.796875 C 52.214844 29.414062 52.808594 30.183594 52.808594 31.34375 C 52.808594 32.609375 51.921875 33.5 50.609375 33.5 C 49 33.5 48.242188 32.566406 48.179688 30.824219 Z M 53.507812 24.605469 L 55.089844 24.605469 L 55.089844 33.378906 L 53.507812 33.378906 Z M 56.023438 30.488281 L 56.023438 27.539062 C 56.023438 25.65625 56.597656 24.507812 58.523438 24.507812 C 60.320312 24.507812 60.949219 25.4375 60.949219 27.0625 L 60.949219 27.519531 L 59.421875 27.519531 L 59.421875 27.019531 C 59.421875 26.171875 59.332031 25.675781 58.542969 25.675781 C 57.699219 25.675781 57.632812 26.359375 57.632812 27.160156 L 57.632812 30.828125 C 57.632812 31.738281 57.800781 32.3125 58.585938 32.3125 C 59.375 32.3125 59.550781 31.703125 59.550781 30.75 L 59.550781 29.929688 L 58.609375 29.929688 L 58.609375 28.921875 L 61 28.921875 L 61 33.375 L 59.960938 33.375 L 59.851562 32.515625 C 59.613281 33.078125 59.183594 33.492188 58.367188 33.492188 C 56.628906 33.5 56.023438 32.332031 56.023438 30.488281 Z M 61.871094 30.542969 L 61.871094 24.605469 L 63.433594 24.605469 L 63.433594 30.726562 C 63.433594 31.558594 63.53125 32.308594 64.339844 32.308594 C 65.152344 32.308594 65.261719 31.558594 65.261719 30.726562 L 65.261719 24.605469 L 66.8125 24.605469 L 66.8125 30.542969 C 66.8125 32.382812 66.304688 33.5 64.339844 33.5 C 62.378906 33.5 61.871094 32.382812 61.871094 30.542969 Z M 69.054688 24.605469 L 70.765625 24.605469 L 72.523438 33.378906 L 71.035156 33.378906 L 70.691406 31.351562 L 69.167969 31.351562 L 68.808594 33.378906 L 67.308594 33.378906 Z M 70.515625 30.332031 L 69.921875 26.648438 L 69.332031 30.332031 Z M 73.117188 24.605469 L 74.710938 24.605469 L 74.710938 32.285156 L 76.84375 32.285156 L 76.84375 33.378906 L 73.117188 33.378906 Z M 77.398438 24.605469 L 79.464844 24.605469 C 81.601562 24.605469 82.25 25.460938 82.25 27.335938 L 82.25 30.53125 C 82.25 32.457031 81.582031 33.378906 79.53125 33.378906 L 77.398438 33.378906 Z M 79.488281 32.273438 C 80.582031 32.273438 80.625 31.6875 80.625 30.59375 L 80.625 27.226562 C 80.625 26.175781 80.515625 25.742188 79.457031 25.742188 L 78.980469 25.742188 L 78.980469 32.261719 Z M 84.394531 24.605469 L 86.105469 24.605469 L 87.863281 33.378906 L 86.375 33.378906 L 86.03125 31.351562 L 84.5 31.351562 L 84.140625 33.378906 L 82.640625 33.378906 Z M 85.855469 30.332031 L 85.261719 26.648438 L 84.667969 30.332031 Z M 88.457031 24.605469 L 90.527344 24.605469 C 92.660156 24.605469 93.308594 25.460938 93.308594 27.335938 L 93.308594 30.53125 C 93.308594 32.457031 92.644531 33.378906 90.589844 33.378906 L 88.457031 33.378906 Z M 90.546875 32.273438 C 91.640625 32.273438 91.683594 31.6875 91.683594 30.59375 L 91.683594 27.226562 C 91.683594 26.175781 91.578125 25.742188 90.519531 25.742188 L 90.050781 25.742188 L 90.050781 32.261719 Z M 94.207031 24.605469 L 97.894531 24.605469 L 97.894531 25.730469 L 95.800781 25.730469 L 95.800781 28.253906 L 97.449219 28.253906 L 97.449219 29.371094 L 95.800781 29.371094 L 95.800781 32.285156 L 97.914062 32.285156 L 97.914062 33.378906 L 94.207031 33.378906 Z M 98.347656 30.824219 L 99.722656 30.550781 C 99.765625 31.589844 100.015625 32.261719 100.722656 32.261719 C 101.222656 32.261719 101.449219 31.917969 101.449219 31.441406 C 101.449219 30.683594 101.058594 30.261719 100.484375 29.761719 L 99.378906 28.796875 C 98.75 28.253906 98.363281 27.648438 98.363281 26.671875 C 98.363281 25.285156 99.226562 24.507812 100.625 24.507812 C 102.273438 24.507812 102.738281 25.613281 102.824219 26.890625 L 101.449219 27.128906 C 101.417969 26.304688 101.296875 25.6875 100.59375 25.6875 C 100.117188 25.6875 99.855469 26.046875 99.855469 26.511719 C 99.855469 27.105469 100.105469 27.433594 100.570312 27.832031 L 101.664062 28.796875 C 102.382812 29.414062 102.976562 30.183594 102.976562 31.34375 C 102.976562 32.609375 102.089844 33.5 100.777344 33.5 C 99.167969 33.5 98.410156 32.566406 98.347656 30.824219 Z M 71.167969 78.800781 L 49 78.800781 C 48.929688 78.804688 48.871094 78.832031 48.824219 78.882812 C 48.777344 78.9375 48.757812 79 48.761719 79.066406 L 48.761719 85.734375 C 48.753906 85.902344 48.832031 85.992188 49 86 L 71.167969 86 C 71.238281 85.996094 71.296875 85.96875 71.34375 85.914062 C 71.394531 85.863281 71.414062 85.800781 71.410156 85.726562 L 71.410156 79.0625 C 71.414062 78.894531 71.332031 78.808594 71.167969 78.800781 M 71.167969 64.625 L 49 64.625 C 48.929688 64.628906 48.871094 64.65625 48.824219 64.710938 C 48.777344 64.761719 48.757812 64.824219 48.761719 64.894531 L 48.761719 71.558594 C 48.753906 71.632812 48.777344 71.695312 48.824219 71.746094 C 48.871094 71.800781 48.929688 71.828125 49 71.832031 L 71.167969 71.832031 C 71.238281 71.828125 71.296875 71.800781 71.34375 71.75 C 71.394531 71.695312 71.414062 71.632812 71.410156 71.5625 L 71.410156 64.894531 C 71.414062 64.824219 71.390625 64.761719 71.34375 64.710938 C 71.296875 64.660156 71.238281 64.628906 71.167969 64.625 M 70.855469 54.554688 L 60.214844 43.914062 C 60.128906 43.828125 60.042969 43.828125 59.957031 43.914062 L 49.316406 54.554688 C 49.257812 54.613281 49.246094 54.679688 49.277344 54.753906 C 49.308594 54.832031 49.363281 54.867188 49.445312 54.867188 L 70.726562 54.867188 C 70.808594 54.867188 70.867188 54.832031 70.898438 54.753906 C 70.929688 54.679688 70.914062 54.613281 70.855469 54.554688 Z M 80.84375 86.082031 L 91.484375 75.441406 C 91.570312 75.355469 91.570312 75.269531 91.484375 75.183594 L 80.84375 64.542969 C 80.785156 64.484375 80.71875 64.472656 80.644531 64.503906 C 80.570312 64.535156 80.53125 64.589844 80.53125 64.671875 L 80.53125 85.953125 C 80.53125 86.035156 80.570312 86.089844 80.644531 86.121094 C 80.71875 86.152344 80.785156 86.140625 80.84375 86.082031 Z M 49.316406 96.070312 L 59.957031 106.710938 C 60.042969 106.796875 60.128906 106.796875 60.214844 106.710938 L 70.855469 96.070312 C 70.914062 96.011719 70.925781 95.945312 70.894531 95.871094 C 70.863281 95.796875 70.808594 95.757812 70.726562 95.757812 L 49.445312 95.757812 C 49.363281 95.757812 49.308594 95.796875 49.277344 95.871094 C 49.246094 95.945312 49.257812 96.011719 49.316406 96.070312 Z M 39.332031 64.542969 L 28.6875 75.183594 C 28.601562 75.269531 28.601562 75.355469 28.6875 75.441406 L 39.332031 86.082031 C 39.390625 86.140625 39.457031 86.15625 39.535156 86.125 C 39.609375 86.09375 39.648438 86.035156 39.648438 85.953125 L 39.648438 64.667969 C 39.644531 64.585938 39.605469 64.53125 39.53125 64.5 C 39.457031 64.472656 39.390625 64.484375 39.332031 64.542969 Z M 39.332031 64.542969 "/></g></svg>