<svg xmlns="http://www.w3.org/2000/svg" xmlns:xlink="http://www.w3.org/1999/xlink" width="160" zoomAndPan="magnify" viewBox="0 0 120 119.999999" height="160" preserveAspectRatio="xMidYMid meet" version="1.2"><g id="8ea0506c91"><rect x="0" width="120" y="0" height="119.999999" style="fill:#ffffff;fill-opacity:1;stroke:none;"/><rect x="0" width="120" y="0" height="119.999999" style="fill:#ffffff;fill-opacity:1;stroke:none;"/><rect x="0" width="120" y="0" height="119.999999" style="fill:#00689d;fill-opacity:1;stroke:none;"/><path style=" stroke:none;fill-rule:nonzero;fill:#ffffff;fill-opacity:1;" d="M 8.1875 14.820312 C 7.5 15.191406 5.550781 15.726562 4.871094 16.066406 L 4.871094 12.808594 C 5.777344 12.441406 8.300781 11.222656 9.148438 10.289062 L 12.578125 10.289062 L 12.578125 33.238281 L 8.1875 33.238281 Z M 13.398438 26.011719 L 13.398438 17.847656 C 13.398438 13.375 14.648438 10 19.578125 10 C 23.796875 10 25.355469 12.066406 25.386719 15.808594 L 25.386719 16.203125 L 21.25 16.203125 C 21.25 14.277344 21.050781 13.34375 19.605469 13.34375 C 18.214844 13.34375 17.847656 14.449219 17.847656 17.988281 L 17.847656 20.3125 C 18.328125 19.492188 19.433594 19.011719 20.796875 18.980469 C 24.449219 18.921875 25.753906 21.785156 25.753906 25.582031 C 25.753906 30.257812 24.28125 33.542969 19.605469 33.542969 C 15.214844 33.550781 13.398438 30.347656 13.398438 26.011719 Z M 21.363281 26.332031 C 21.363281 24.011719 21.304688 22.332031 19.605469 22.332031 C 19.242188 22.34375 18.902344 22.441406 18.589844 22.628906 C 18.277344 22.816406 18.03125 23.066406 17.847656 23.382812 L 17.847656 27.035156 C 17.847656 28.761719 18.214844 30.292969 19.632812 30.292969 C 21.078125 30.292969 21.363281 28.847656 21.363281 26.332031 Z M 38.289062 10.273438 L 40.867188 10.273438 C 42.4375 10.273438 43.109375 11.183594 43.109375 12.761719 C 43.109375 14.484375 42.179688 15.148438 40.757812 15.148438 L 39.882812 15.148438 L 39.882812 19.046875 L 38.289062 19.046875 Z M 40.5 14.019531 C 41.378906 14.019531 41.605469 13.6875 41.605469 12.75 C 41.605469 11.816406 41.488281 11.398438 40.5 11.398438 L 39.882812 11.398438 L 39.882812 14.019531 Z M 44.636719 10.273438 L 46.347656 10.273438 L 48.101562 19.046875 L 46.621094 19.046875 L 46.273438 17.019531 L 44.746094 17.019531 L 44.386719 19.046875 L 42.886719 19.046875 Z M 46.101562 16 L 45.5 12.316406 L 44.910156 16 Z M 48.472656 18.015625 L 50.824219 11.375 L 48.589844 11.375 L 48.589844 10.273438 L 52.4375 10.273438 L 52.4375 11.09375 L 49.988281 17.953125 L 52.449219 17.953125 L 52.449219 19.046875 L 48.472656 19.046875 Z M 53.023438 19.976562 C 53.238281 19.929688 53.414062 19.820312 53.546875 19.644531 C 53.679688 19.464844 53.738281 19.269531 53.726562 19.046875 L 52.945312 19.046875 L 52.945312 17.582031 L 54.386719 17.582031 L 54.386719 18.917969 C 54.386719 19.847656 53.984375 20.355469 53.171875 20.507812 Z M 57.105469 18.136719 C 58.027344 18.136719 58.273438 17.96875 58.273438 17.042969 L 58.273438 10.273438 L 59.863281 10.273438 L 59.863281 17.085938 C 59.863281 18.558594 59.441406 19.261719 57.882812 19.261719 L 57.113281 19.261719 Z M 60.910156 16.207031 L 60.910156 10.273438 L 62.46875 10.273438 L 62.46875 16.390625 C 62.46875 17.226562 62.566406 17.972656 63.378906 17.972656 C 64.191406 17.972656 64.296875 17.226562 64.296875 16.390625 L 64.296875 10.273438 L 65.847656 10.273438 L 65.847656 16.207031 C 65.847656 18.042969 65.339844 19.164062 63.378906 19.164062 C 61.417969 19.164062 60.910156 18.050781 60.910156 16.207031 Z M 66.667969 16.488281 L 68.042969 16.21875 C 68.085938 17.257812 68.335938 17.929688 69.042969 17.929688 C 69.550781 17.929688 69.769531 17.582031 69.769531 17.105469 C 69.769531 16.347656 69.378906 15.925781 68.804688 15.429688 L 67.699219 14.464844 C 67.070312 13.921875 66.679688 13.316406 66.679688 12.339844 C 66.679688 10.953125 67.546875 10.171875 68.945312 10.171875 C 70.589844 10.171875 71.058594 11.277344 71.144531 12.558594 L 69.769531 12.796875 C 69.734375 11.972656 69.617188 11.355469 68.910156 11.355469 C 68.433594 11.355469 68.175781 11.710938 68.175781 12.179688 C 68.175781 12.773438 68.425781 13.097656 68.890625 13.5 L 69.984375 14.464844 C 70.699219 15.082031 71.296875 15.851562 71.296875 17.011719 C 71.296875 18.277344 70.40625 19.164062 69.097656 19.164062 C 67.5 19.167969 66.738281 18.234375 66.667969 16.488281 Z M 72.898438 11.453125 L 71.5 11.453125 L 71.5 10.273438 L 75.863281 10.273438 L 75.863281 11.453125 L 74.5 11.453125 L 74.5 19.046875 L 72.898438 19.046875 Z M 76.5 10.273438 L 78.082031 10.273438 L 78.082031 19.046875 L 76.5 19.046875 Z M 82.410156 13.433594 L 82.410156 12.675781 C 82.410156 11.941406 82.402344 11.34375 81.589844 11.34375 C 80.773438 11.34375 80.691406 11.972656 80.691406 12.773438 L 80.691406 16.578125 C 80.691406 17.53125 80.886719 17.984375 81.589844 17.984375 C 82.378906 17.984375 82.410156 17.367188 82.410156 16.585938 L 82.410156 15.796875 L 83.949219 15.796875 L 83.949219 16.5 C 83.949219 17.984375 83.472656 19.078125 81.796875 19.167969 L 81.796875 19.707031 C 82.597656 19.707031 83.136719 20.066406 83.136719 20.738281 C 83.136719 21.507812 82.453125 21.832031 81.664062 21.832031 C 81.398438 21.828125 81.140625 21.789062 80.886719 21.714844 L 80.886719 21.03125 C 81.074219 21.089844 81.269531 21.117188 81.46875 21.117188 C 81.847656 21.117188 82.136719 21.007812 82.136719 20.714844 C 82.136719 20.328125 81.691406 20.183594 81.183594 20.132812 L 81.183594 19.144531 C 79.578125 18.976562 79.082031 17.824219 79.082031 16.242188 L 79.082031 13.109375 C 79.082031 11.3125 79.65625 10.171875 81.582031 10.171875 C 83.378906 10.171875 83.953125 11.171875 83.953125 12.699219 L 83.953125 13.433594 Z M 86.167969 10.273438 L 87.878906 10.273438 L 89.632812 19.046875 L 88.148438 19.046875 L 87.804688 17.019531 L 86.273438 17.019531 L 85.917969 19.046875 L 84.417969 19.046875 Z M 87.625 16 L 87.027344 12.316406 L 86.433594 16 Z M 92.703125 10.273438 L 96.386719 10.273438 L 96.386719 11.398438 L 94.296875 11.398438 L 94.296875 13.921875 L 95.941406 13.921875 L 95.941406 15.039062 L 94.296875 15.039062 L 94.296875 17.953125 L 96.410156 17.953125 L 96.410156 19.046875 L 92.703125 19.046875 Z M 38.332031 24.605469 L 39.914062 24.605469 L 39.914062 33.378906 L 38.332031 33.378906 Z M 41.050781 24.605469 L 42.167969 24.605469 L 44.300781 29.605469 L 44.300781 24.605469 L 45.625 24.605469 L 45.625 33.378906 L 44.5625 33.378906 L 42.417969 28.136719 L 42.417969 33.378906 L 41.050781 33.378906 Z M 46.523438 30.824219 L 47.898438 30.550781 C 47.941406 31.589844 48.191406 32.261719 48.898438 32.261719 C 49.40625 32.261719 49.625 31.917969 49.625 31.441406 C 49.625 30.683594 49.234375 30.261719 48.660156 29.761719 L 47.554688 28.796875 C 46.925781 28.253906 46.535156 27.648438 46.535156 26.671875 C 46.535156 25.285156 47.402344 24.507812 48.800781 24.507812 C 50.445312 24.507812 50.914062 25.613281 51 26.890625 L 49.625 27.128906 C 49.589844 26.304688 49.472656 25.6875 48.769531 25.6875 C 48.292969 25.6875 48.03125 26.046875 48.03125 26.511719 C 48.03125 27.105469 48.28125 27.433594 48.746094 27.832031 L 49.839844 28.796875 C 50.554688 29.414062 51.152344 30.183594 51.152344 31.34375 C 51.152344 32.609375 50.261719 33.5 48.953125 33.5 C 47.34375 33.5 46.585938 32.566406 46.523438 30.824219 Z M 52.75 25.785156 L 51.351562 25.785156 L 51.351562 24.605469 L 55.71875 24.605469 L 55.71875 25.785156 L 54.355469 25.785156 L 54.355469 33.378906 L 52.75 33.378906 Z M 56.347656 24.605469 L 57.929688 24.605469 L 57.929688 33.378906 L 56.347656 33.378906 Z M 59.941406 25.785156 L 58.546875 25.785156 L 58.546875 24.605469 L 62.910156 24.605469 L 62.910156 25.785156 L 61.546875 25.785156 L 61.546875 33.378906 L 59.941406 33.378906 Z M 63.433594 30.542969 L 63.433594 24.605469 L 65 24.605469 L 65 30.726562 C 65 31.558594 65.097656 32.308594 65.910156 32.308594 C 66.722656 32.308594 66.832031 31.558594 66.832031 30.726562 L 66.832031 24.605469 L 68.378906 24.605469 L 68.378906 30.542969 C 68.378906 32.382812 67.871094 33.5 65.910156 33.5 C 63.949219 33.5 63.433594 32.382812 63.433594 30.542969 Z M 69.453125 24.605469 L 71.035156 24.605469 L 71.035156 33.378906 L 69.453125 33.378906 Z M 75.371094 27.769531 L 75.371094 27.011719 C 75.371094 26.273438 75.359375 25.675781 74.546875 25.675781 C 73.734375 25.675781 73.648438 26.304688 73.648438 27.105469 L 73.648438 30.910156 C 73.648438 31.863281 73.84375 32.316406 74.546875 32.316406 C 75.339844 32.316406 75.371094 31.699219 75.371094 30.921875 L 75.371094 30.128906 L 76.910156 30.128906 L 76.910156 30.832031 C 76.910156 32.316406 76.433594 33.410156 74.753906 33.5 L 74.753906 34.042969 C 75.554688 34.042969 76.097656 34.398438 76.097656 35.070312 C 76.097656 35.839844 75.414062 36.164062 74.625 36.164062 C 74.359375 36.164062 74.097656 36.121094 73.84375 36.046875 L 73.84375 35.363281 C 74.035156 35.421875 74.230469 35.453125 74.429688 35.449219 C 74.808594 35.449219 75.09375 35.339844 75.09375 35.050781 C 75.09375 34.660156 74.652344 34.519531 74.140625 34.464844 L 74.140625 33.476562 C 72.539062 33.3125 72.039062 32.15625 72.039062 30.574219 L 72.039062 27.441406 C 72.039062 25.644531 72.613281 24.507812 74.539062 24.507812 C 76.339844 24.507812 76.910156 25.507812 76.910156 27.03125 L 76.910156 27.769531 Z M 77.667969 30.628906 L 77.667969 27.332031 C 77.667969 25.558594 78.316406 24.5 80.203125 24.5 C 82.085938 24.5 82.726562 25.550781 82.726562 27.332031 L 82.726562 30.625 C 82.726562 32.390625 82.078125 33.496094 80.203125 33.496094 C 78.328125 33.496094 77.667969 32.40625 77.667969 30.628906 Z M 79.667969 22.945312 C 79.386719 22.945312 79.285156 23.113281 79.285156 23.390625 L 78.535156 23.390625 C 78.535156 22.613281 78.75 22.027344 79.453125 22.027344 C 79.984375 22.027344 80.34375 22.527344 80.808594 22.527344 C 81.058594 22.527344 81.15625 22.375 81.15625 22.09375 L 81.871094 22.09375 C 81.871094 22.773438 81.75 23.457031 81.046875 23.457031 C 80.484375 23.457031 80.113281 22.945312 79.667969 22.945312 Z M 81.101562 31 L 81.101562 26.964844 C 81.101562 26.230469 80.980469 25.675781 80.203125 25.675781 C 79.421875 25.675781 79.292969 26.230469 79.292969 26.964844 L 79.292969 31 C 79.292969 31.726562 79.410156 32.3125 80.203125 32.3125 C 80.992188 32.3125 81.101562 31.734375 81.101562 31 Z M 83.691406 24.605469 L 87.375 24.605469 L 87.375 25.730469 L 85.285156 25.730469 L 85.285156 28.253906 L 86.929688 28.253906 L 86.929688 29.371094 L 85.285156 29.371094 L 85.285156 32.285156 L 87.394531 32.285156 L 87.394531 33.378906 L 83.691406 33.378906 Z M 87.894531 30.824219 L 89.269531 30.550781 C 89.3125 31.589844 89.5625 32.261719 90.269531 32.261719 C 90.769531 32.261719 90.996094 31.917969 90.996094 31.441406 C 90.996094 30.683594 90.605469 30.261719 90.03125 29.761719 L 88.925781 28.796875 C 88.296875 28.253906 87.910156 27.648438 87.910156 26.671875 C 87.910156 25.285156 88.773438 24.507812 90.171875 24.507812 C 91.816406 24.507812 92.285156 25.613281 92.371094 26.890625 L 91 27.128906 C 90.96875 26.304688 90.847656 25.6875 90.144531 25.6875 C 89.667969 25.6875 89.410156 26.046875 89.410156 26.511719 C 89.410156 27.105469 89.65625 27.433594 90.125 27.832031 L 91.214844 28.796875 C 91.933594 29.414062 92.527344 30.183594 92.527344 31.34375 C 92.527344 32.609375 91.640625 33.5 90.328125 33.5 C 88.714844 33.5 87.957031 32.566406 87.894531 30.824219 Z M 38.289062 38.9375 L 41.972656 38.9375 L 41.972656 40.066406 L 39.882812 40.066406 L 39.882812 42.589844 L 41.527344 42.589844 L 41.527344 43.703125 L 39.882812 43.703125 L 39.882812 46.617188 L 42 46.617188 L 42 47.714844 L 38.289062 47.714844 Z M 42.707031 38.9375 L 46.316406 38.9375 L 46.316406 40.042969 L 44.300781 40.042969 L 44.300781 42.601562 L 45.949219 42.601562 L 45.949219 43.714844 L 44.300781 43.714844 L 44.300781 47.714844 L 42.707031 47.714844 Z M 47.011719 38.9375 L 48.589844 38.9375 L 48.589844 47.714844 L 47.011719 47.714844 Z M 49.589844 44.90625 L 49.589844 41.777344 C 49.589844 39.976562 50.160156 38.839844 52.089844 38.839844 C 53.886719 38.839844 54.460938 39.839844 54.460938 41.363281 L 54.460938 42.101562 L 52.921875 42.101562 L 52.921875 41.34375 C 52.921875 40.605469 52.910156 40.011719 52.101562 40.011719 C 51.289062 40.011719 51.199219 40.636719 51.199219 41.441406 L 51.199219 45.242188 C 51.199219 46.195312 51.394531 46.652344 52.101562 46.652344 C 52.890625 46.652344 52.921875 46.035156 52.921875 45.253906 L 52.921875 44.464844 L 54.460938 44.464844 L 54.460938 45.167969 C 54.460938 46.714844 53.941406 47.832031 52.089844 47.832031 C 50.167969 47.832031 49.589844 46.617188 49.589844 44.90625 Z M 56.667969 38.9375 L 58.378906 38.9375 L 60.136719 47.714844 L 58.648438 47.714844 L 58.304688 45.6875 L 56.777344 45.6875 L 56.417969 47.714844 L 54.917969 47.714844 Z M 58.136719 44.667969 L 57.539062 40.984375 L 56.941406 44.667969 Z M 60.5 46.683594 L 62.851562 40.042969 L 60.625 40.042969 L 60.625 38.9375 L 64.472656 38.9375 L 64.472656 39.761719 L 62.023438 46.617188 L 64.484375 46.617188 L 64.484375 47.714844 L 60.5 47.714844 Z M 65.1875 38.9375 L 68.871094 38.9375 L 68.871094 40.066406 L 66.78125 40.066406 L 66.78125 42.589844 L 68.425781 42.589844 L 68.425781 43.703125 L 66.78125 43.703125 L 66.78125 46.617188 L 68.890625 46.617188 L 68.890625 47.714844 L 65.1875 47.714844 Z M 69.390625 45.15625 L 70.765625 44.886719 C 70.808594 45.925781 71.058594 46.597656 71.765625 46.597656 C 72.273438 46.597656 72.492188 46.25 72.492188 45.773438 C 72.492188 45.015625 72.101562 44.59375 71.527344 44.09375 L 70.421875 43.128906 C 69.796875 42.589844 69.40625 41.980469 69.40625 41.007812 C 69.40625 39.621094 70.273438 38.839844 71.667969 38.839844 C 73.316406 38.839844 73.78125 39.945312 73.867188 41.222656 L 72.492188 41.460938 C 72.460938 40.636719 72.339844 40.023438 71.636719 40.023438 C 71.160156 40.023438 70.898438 40.378906 70.898438 40.84375 C 70.898438 41.441406 71.148438 41.765625 71.613281 42.167969 L 72.707031 43.128906 C 73.421875 43.75 74.019531 44.515625 74.019531 45.675781 C 74.019531 46.941406 73.132812 47.832031 71.820312 47.832031 C 70.214844 47.832031 69.453125 46.898438 69.390625 45.15625 Z M 79.800781 54.558594 C 79.800781 54.558594 78.632812 56.113281 78.964844 57.632812 C 79.300781 59.152344 81.042969 60.054688 81.042969 60.054688 C 81.042969 60.054688 82.214844 58.496094 81.875 56.976562 C 81.535156 55.460938 79.800781 54.558594 79.800781 54.558594 M 77.886719 63.457031 C 77.886719 63.457031 79.0625 61.898438 78.71875 60.378906 C 78.378906 58.859375 76.648438 57.957031 76.648438 57.957031 C 76.648438 57.957031 75.472656 59.515625 75.8125 61.035156 C 76.15625 62.554688 77.886719 63.457031 77.886719 63.457031 M 82.710938 61.789062 C 82.710938 61.789062 83.949219 63.039062 85.363281 62.910156 C 86.773438 62.785156 87.820312 61.332031 87.820312 61.332031 C 87.820312 61.332031 86.582031 60.082031 85.167969 60.207031 C 83.753906 60.332031 82.710938 61.785156 82.710938 61.785156 M 84.742188 55.113281 C 83.59375 56.277344 83.753906 58.339844 83.753906 58.339844 C 83.753906 58.339844 85.78125 58.511719 86.929688 57.351562 C 88.078125 56.1875 87.917969 54.125 87.917969 54.125 C 87.917969 54.125 85.890625 53.949219 84.742188 55.113281 M 82.207031 66.421875 C 83.613281 66.589844 84.9375 65.378906 84.9375 65.378906 C 84.9375 65.378906 83.976562 63.902344 82.574219 63.738281 C 81.167969 63.570312 79.84375 64.78125 79.84375 64.78125 C 79.84375 64.78125 80.800781 66.253906 82.207031 66.421875 M 83.464844 89.03125 L 72.953125 89.03125 C 72.753906 89.03125 72.566406 89.070312 72.382812 89.144531 C 72.199219 89.21875 72.039062 89.328125 71.902344 89.46875 C 71.761719 89.605469 71.652344 89.765625 71.578125 89.949219 C 71.503906 90.132812 71.464844 90.320312 71.464844 90.519531 C 71.464844 90.714844 71.503906 90.90625 71.578125 91.085938 C 71.652344 91.269531 71.761719 91.429688 71.902344 91.570312 C 72.039062 91.707031 72.199219 91.816406 72.382812 91.890625 C 72.566406 91.96875 72.753906 92.003906 72.953125 92.003906 L 83.464844 92.003906 C 83.660156 92.003906 83.851562 91.96875 84.03125 91.890625 C 84.214844 91.816406 84.375 91.707031 84.515625 91.570312 C 84.652344 91.429688 84.761719 91.269531 84.835938 91.085938 C 84.914062 90.90625 84.949219 90.714844 84.949219 90.519531 C 84.949219 90.320312 84.914062 90.132812 84.835938 89.949219 C 84.761719 89.765625 84.652344 89.605469 84.515625 89.46875 C 84.375 89.328125 84.214844 89.21875 84.03125 89.144531 C 83.851562 89.070312 83.660156 89.03125 83.464844 89.03125 M 83.464844 105.421875 L 72.953125 105.421875 C 72.75 105.417969 72.554688 105.449219 72.367188 105.523438 C 72.179688 105.59375 72.011719 105.699219 71.867188 105.839844 C 71.722656 105.980469 71.609375 106.144531 71.53125 106.328125 C 71.453125 106.515625 71.414062 106.710938 71.414062 106.910156 C 71.414062 107.113281 71.453125 107.304688 71.53125 107.492188 C 71.609375 107.675781 71.722656 107.839844 71.867188 107.980469 C 72.011719 108.121094 72.179688 108.226562 72.367188 108.300781 C 72.554688 108.371094 72.75 108.40625 72.953125 108.398438 L 83.464844 108.398438 C 83.65625 108.390625 83.839844 108.347656 84.015625 108.269531 C 84.195312 108.191406 84.347656 108.085938 84.484375 107.945312 C 84.617188 107.808594 84.722656 107.648438 84.792969 107.46875 C 84.867188 107.289062 84.902344 107.105469 84.902344 106.910156 C 84.902344 106.71875 84.867188 106.53125 84.792969 106.351562 C 84.722656 106.171875 84.617188 106.015625 84.484375 105.875 C 84.347656 105.738281 84.195312 105.628906 84.015625 105.550781 C 83.839844 105.472656 83.65625 105.429688 83.464844 105.421875 M 36.1875 85.421875 C 35.945312 85.34375 35.703125 85.28125 35.457031 85.234375 C 35.457031 85.234375 35.726562 85.316406 36.1875 85.421875 "/><path style=" stroke:none;fill-rule:nonzero;fill:#ffffff;fill-opacity:1;" d="M 83.078125 93.042969 L 73.332031 93.042969 C 73.101562 93.042969 72.898438 93.125 72.734375 93.292969 C 72.570312 93.457031 72.488281 93.65625 72.488281 93.890625 L 72.488281 96.832031 L 66.128906 97.53125 L 56.832031 97.332031 L 56.832031 91.652344 C 58.085938 91.492188 59.316406 91.242188 60.53125 90.902344 C 69.472656 88.378906 71.421875 82.808594 71.226562 77.691406 C 71.035156 72.484375 72.699219 70.460938 75.097656 69.558594 C 75.742188 69.320312 76.402344 69.144531 77.082031 69.035156 C 77.109375 70.3125 77.367188 71.800781 77.941406 73.574219 C 78.152344 73.5625 78.363281 73.546875 78.574219 73.523438 C 77.96875 71.707031 77.710938 70.214844 77.699219 68.945312 C 78.402344 68.855469 79.109375 68.835938 79.816406 68.882812 C 79.101562 68.464844 78.429688 67.984375 77.800781 67.441406 C 78.203125 64.976562 79.671875 63.460938 81.183594 61.914062 C 82.019531 61.058594 82.878906 60.179688 83.554688 59.128906 L 83.027344 58.796875 C 82.386719 59.796875 81.546875 60.648438 80.734375 61.480469 C 79.257812 62.992188 77.769531 64.535156 77.261719 66.980469 C 76.722656 66.496094 76.214844 65.980469 75.730469 65.4375 C 73.527344 62.964844 70.6875 64.785156 66.640625 68.550781 C 62.589844 72.320312 57.496094 72.449219 52.523438 67.359375 C 45.960938 60.640625 40.234375 60.679688 36.308594 61.058594 C 38.996094 62.203125 39.933594 64.714844 41.296875 71.089844 C 42.71875 77.785156 46.3125 80.8125 51.226562 81.230469 C 48.949219 81.601562 48.355469 81.914062 44.695312 84.445312 C 41.835938 86.417969 37.8125 85.796875 36.179688 85.421875 C 39.179688 86.355469 42.722656 89.5 45.894531 90.589844 C 47.773438 91.230469 49.707031 91.628906 51.6875 91.777344 L 51.6875 97.210938 L 34.070312 96.832031 L 34.070312 100.625 L 66.128906 99.910156 L 72.488281 100.613281 L 72.488281 103.558594 C 72.488281 103.792969 72.570312 103.992188 72.738281 104.15625 C 72.902344 104.324219 73.101562 104.40625 73.335938 104.40625 L 83.078125 104.40625 C 83.3125 104.40625 83.511719 104.324219 83.675781 104.160156 C 83.839844 103.992188 83.925781 103.792969 83.925781 103.558594 L 83.925781 93.894531 C 83.925781 93.660156 83.84375 93.457031 83.675781 93.292969 C 83.511719 93.125 83.3125 93.042969 83.078125 93.042969 Z M 53.222656 91.855469 C 53.917969 91.867188 54.613281 91.847656 55.308594 91.796875 L 55.308594 97.296875 L 53.222656 97.25 Z M 33.167969 100 C 33.167969 100.796875 32.609375 101.445312 31.921875 101.445312 L 31.167969 101.445312 C 30.480469 101.445312 29.921875 100.796875 29.921875 100 L 29.921875 97.371094 C 29.921875 96.570312 30.480469 95.925781 31.167969 95.925781 L 31.914062 95.925781 C 32.601562 95.925781 33.160156 96.570312 33.160156 97.371094 Z M 33.167969 100 "/></g></svg>