<svg xmlns="http://www.w3.org/2000/svg" xmlns:xlink="http://www.w3.org/1999/xlink" width="160" zoomAndPan="magnify" viewBox="0 0 120 119.999999" height="160" preserveAspectRatio="xMidYMid meet" version="1.2"><g id="4f5d8f51fc"><rect x="0" width="120" y="0" height="119.999999" style="fill:#ffffff;fill-opacity:1;stroke:none;"/><rect x="0" width="120" y="0" height="119.999999" style="fill:#ffffff;fill-opacity:1;stroke:none;"/><rect x="0" width="120" y="0" height="119.999999" style="fill:#3f7e44;fill-opacity:1;stroke:none;"/><path style=" stroke:none;fill-rule:nonzero;fill:#ffffff;fill-opacity:1;" d="M 8.519531 14.820312 C 7.832031 15.191406 5.886719 15.726562 5.203125 16.066406 L 5.203125 12.808594 C 6.113281 12.441406 8.632812 11.222656 9.484375 10.289062 L 12.910156 10.289062 L 12.910156 33.238281 L 8.519531 33.238281 Z M 13.308594 26.691406 L 13.308594 25.898438 L 17.667969 25.898438 L 17.667969 26.667969 C 17.695312 28.90625 18.089844 29.953125 19.535156 29.953125 C 21.011719 29.953125 21.320312 28.820312 21.320312 26.636719 C 21.320312 24.34375 20.785156 23.039062 18.773438 22.984375 C 18.515625 22.953125 18.261719 22.945312 18.007812 22.953125 L 18.007812 19.75 L 18.6875 19.75 C 20.726562 19.75 21.320312 18.703125 21.320312 16.351562 C 21.320312 14.519531 20.898438 13.460938 19.453125 13.460938 C 18.007812 13.460938 17.699219 14.707031 17.667969 16.5 L 17.667969 17.519531 L 13.308594 17.519531 L 13.308594 16.265625 C 13.308594 12.242188 15.574219 9.976562 19.457031 9.976562 C 23.367188 9.976562 25.632812 12.128906 25.632812 16.125 C 25.632812 18.816406 24.386719 20.6875 22.742188 21.140625 C 24.410156 21.761719 25.632812 23.292969 25.632812 26.550781 C 25.632812 30.71875 23.964844 33.636719 19.484375 33.636719 C 14.894531 33.636719 13.308594 30.859375 13.308594 26.691406 Z M 39.933594 10.273438 L 41.644531 10.273438 L 43.398438 19.046875 L 41.914062 19.046875 L 41.566406 17.019531 L 40.042969 17.019531 L 39.683594 19.046875 L 38.183594 19.046875 Z M 41.394531 16 L 40.800781 12.316406 L 40.203125 16 Z M 47.09375 13.433594 L 47.09375 12.675781 C 47.09375 11.941406 47.082031 11.34375 46.269531 11.34375 C 45.457031 11.34375 45.371094 11.972656 45.371094 12.773438 L 45.371094 16.578125 C 45.371094 17.53125 45.566406 17.984375 46.269531 17.984375 C 47.0625 17.984375 47.09375 17.367188 47.09375 16.585938 L 47.09375 15.796875 L 48.632812 15.796875 L 48.632812 16.5 C 48.632812 17.984375 48.15625 19.078125 46.476562 19.167969 L 46.476562 19.707031 C 47.277344 19.707031 47.820312 20.066406 47.820312 20.738281 C 47.820312 21.507812 47.136719 21.832031 46.347656 21.832031 C 46.082031 21.828125 45.820312 21.789062 45.566406 21.714844 L 45.566406 21.03125 C 45.757812 21.089844 45.953125 21.117188 46.152344 21.117188 C 46.53125 21.117188 46.816406 21.007812 46.816406 20.714844 C 46.816406 20.328125 46.375 20.183594 45.863281 20.132812 L 45.863281 19.144531 C 44.261719 18.976562 43.761719 17.824219 43.761719 16.242188 L 43.761719 13.109375 C 43.761719 11.3125 44.339844 10.171875 46.261719 10.171875 C 48.0625 10.171875 48.636719 11.171875 48.636719 12.699219 L 48.636719 13.433594 Z M 50.734375 10.273438 L 52.445312 10.273438 L 54.199219 19.046875 L 52.714844 19.046875 L 52.371094 17.019531 L 50.839844 17.019531 L 50.484375 19.046875 L 48.984375 19.046875 Z M 51.066406 8.605469 C 50.785156 8.605469 50.6875 8.773438 50.6875 9.050781 L 49.929688 9.050781 C 49.929688 8.269531 50.144531 7.683594 50.851562 7.683594 C 51.378906 7.683594 51.738281 8.183594 52.203125 8.183594 C 52.453125 8.183594 52.550781 8.035156 52.550781 7.75 L 53.265625 7.75 C 53.265625 8.433594 53.148438 9.117188 52.441406 9.117188 C 51.882812 9.125 51.511719 8.613281 51.070312 8.613281 Z M 52.195312 16 L 51.601562 12.316406 L 51 16 Z M 54.523438 16.296875 L 54.523438 13 C 54.523438 11.222656 55.175781 10.167969 57.058594 10.167969 C 58.945312 10.167969 59.585938 11.21875 59.585938 13 L 59.585938 16.296875 C 59.585938 18.058594 58.933594 19.164062 57.058594 19.164062 C 55.183594 19.164062 54.523438 18.070312 54.523438 16.296875 Z M 57.960938 16.667969 L 57.960938 12.632812 C 57.960938 11.898438 57.839844 11.34375 57.058594 11.34375 C 56.28125 11.34375 56.148438 11.898438 56.148438 12.632812 L 56.148438 16.667969 C 56.148438 17.394531 56.269531 17.976562 57.058594 17.976562 C 57.851562 17.976562 57.960938 17.398438 57.960938 16.667969 Z M 62.605469 16.238281 L 62.605469 13.109375 C 62.605469 11.3125 63.179688 10.171875 65.105469 10.171875 C 66.90625 10.171875 67.480469 11.171875 67.480469 12.699219 L 67.480469 13.433594 L 65.941406 13.433594 L 65.941406 12.675781 C 65.941406 11.941406 65.929688 11.34375 65.117188 11.34375 C 64.308594 11.34375 64.21875 11.972656 64.21875 12.773438 L 64.21875 16.578125 C 64.21875 17.53125 64.414062 17.984375 65.117188 17.984375 C 65.910156 17.984375 65.941406 17.367188 65.941406 16.585938 L 65.941406 15.796875 L 67.480469 15.796875 L 67.480469 16.5 C 67.480469 18.050781 66.960938 19.167969 65.105469 19.167969 C 63.179688 19.167969 62.605469 17.953125 62.605469 16.238281 Z M 68.132812 16.296875 L 68.132812 13 C 68.132812 11.222656 68.78125 10.167969 70.667969 10.167969 C 72.550781 10.167969 73.191406 11.21875 73.191406 13 L 73.191406 16.296875 C 73.191406 18.058594 72.539062 19.164062 70.667969 19.164062 C 68.792969 19.164062 68.132812 18.070312 68.132812 16.296875 Z M 71.566406 16.671875 L 71.566406 12.632812 C 71.566406 11.898438 71.445312 11.34375 70.667969 11.34375 C 69.886719 11.34375 69.757812 11.898438 69.757812 12.632812 L 69.757812 16.667969 C 69.757812 17.394531 69.875 17.976562 70.667969 17.976562 C 71.457031 17.976562 71.566406 17.398438 71.566406 16.667969 Z M 74.046875 10.273438 L 75.167969 10.273438 L 77.300781 15.273438 L 77.300781 10.273438 L 78.625 10.273438 L 78.625 19.046875 L 77.5625 19.046875 L 75.410156 13.804688 L 75.410156 19.046875 L 74.046875 19.046875 Z M 80.5 11.453125 L 79.101562 11.453125 L 79.101562 10.273438 L 83.46875 10.273438 L 83.46875 11.453125 L 82.101562 11.453125 L 82.101562 19.046875 L 80.5 19.046875 Z M 83.949219 10.273438 L 86.058594 10.273438 C 87.816406 10.273438 88.8125 10.835938 88.8125 12.605469 C 88.8125 13.65625 88.550781 14.394531 87.726562 14.726562 L 88.953125 19.050781 L 87.351562 19.050781 L 86.296875 15.03125 L 85.539062 15.03125 L 85.539062 19.050781 L 83.949219 19.050781 Z M 86.050781 14.03125 C 86.96875 14.03125 87.308594 13.628906 87.308594 12.6875 C 87.308594 11.796875 87.058594 11.363281 86.140625 11.363281 L 85.542969 11.363281 L 85.542969 14.03125 Z M 91.011719 10.273438 L 92.722656 10.273438 L 94.476562 19.046875 L 93 19.046875 L 92.652344 17.019531 L 91.125 17.019531 L 90.769531 19.046875 L 89.269531 19.046875 Z M 92.472656 16 L 91.878906 12.316406 L 91.28125 16 Z M 98.648438 10.273438 L 100.359375 10.273438 L 102.113281 19.046875 L 100.632812 19.046875 L 100.285156 17.019531 L 98.757812 17.019531 L 98.398438 19.046875 L 96.898438 19.046875 Z M 100.113281 16 L 99.515625 12.316406 L 98.921875 16 Z M 38.75 24.605469 L 40.417969 24.605469 L 41.664062 30.683594 L 42.953125 24.605469 L 44.566406 24.605469 L 44.734375 33.378906 L 43.542969 33.378906 L 43.410156 27.28125 L 42.164062 33.378906 L 41.203125 33.378906 L 39.933594 27.257812 L 39.816406 33.378906 L 38.601562 33.378906 Z M 45.632812 30.542969 L 45.632812 24.605469 L 47.191406 24.605469 L 47.191406 30.726562 C 47.191406 31.558594 47.289062 32.308594 48.101562 32.308594 C 48.914062 32.308594 49.023438 31.558594 49.023438 30.726562 L 49.023438 24.605469 L 50.570312 24.605469 L 50.570312 30.542969 C 50.570312 32.382812 50.0625 33.5 48.101562 33.5 C 46.140625 33.5 45.632812 32.382812 45.632812 30.542969 Z M 51.5 24.605469 L 53.566406 24.605469 C 55.703125 24.605469 56.351562 25.460938 56.351562 27.335938 L 56.351562 30.53125 C 56.351562 32.457031 55.6875 33.378906 53.632812 33.378906 L 51.5 33.378906 Z M 53.589844 32.273438 C 54.683594 32.273438 54.726562 31.6875 54.726562 30.59375 L 54.726562 27.226562 C 54.726562 26.175781 54.621094 25.742188 53.5625 25.742188 L 53.085938 25.742188 L 53.085938 32.261719 Z M 58.457031 24.605469 L 60.167969 24.605469 L 61.921875 33.378906 L 60.4375 33.378906 L 60.089844 31.351562 L 58.566406 31.351562 L 58.207031 33.378906 L 56.707031 33.378906 Z M 59.921875 30.332031 L 59.332031 26.652344 L 58.726562 30.332031 Z M 62.476562 24.605469 L 63.59375 24.605469 L 65.726562 29.605469 L 65.726562 24.605469 L 67.046875 24.605469 L 67.046875 33.378906 L 65.988281 33.378906 L 63.839844 28.136719 L 63.839844 33.378906 L 62.476562 33.378906 Z M 71.25 27.769531 L 71.25 27.011719 C 71.25 26.273438 71.242188 25.675781 70.429688 25.675781 C 69.613281 25.675781 69.53125 26.304688 69.53125 27.105469 L 69.53125 30.910156 C 69.53125 31.863281 69.726562 32.316406 70.429688 32.316406 C 71.21875 32.316406 71.25 31.699219 71.25 30.921875 L 71.25 30.128906 L 72.789062 30.128906 L 72.789062 30.832031 C 72.789062 32.316406 72.3125 33.410156 70.636719 33.5 L 70.636719 34.042969 C 71.4375 34.042969 71.976562 34.398438 71.976562 35.070312 C 71.976562 35.839844 71.296875 36.164062 70.503906 36.164062 C 70.238281 36.164062 69.980469 36.121094 69.726562 36.046875 L 69.726562 35.363281 C 69.914062 35.421875 70.109375 35.453125 70.308594 35.449219 C 70.6875 35.449219 70.976562 35.339844 70.976562 35.050781 C 70.976562 34.660156 70.535156 34.519531 70.023438 34.464844 L 70.023438 33.476562 C 68.421875 33.3125 67.921875 32.15625 67.921875 30.574219 L 67.921875 27.441406 C 67.921875 25.644531 68.496094 24.507812 70.421875 24.507812 C 72.21875 24.507812 72.792969 25.507812 72.792969 27.03125 L 72.792969 27.769531 Z M 74.890625 24.605469 L 76.601562 24.605469 L 78.359375 33.378906 L 76.875 33.378906 L 76.527344 31.351562 L 75 31.351562 L 74.640625 33.378906 L 73.140625 33.378906 Z M 76.351562 30.332031 L 75.757812 26.648438 L 75.167969 30.332031 Z M 81.078125 30.488281 L 81.078125 27.539062 C 81.078125 25.65625 81.652344 24.507812 83.578125 24.507812 C 85.375 24.507812 86.003906 25.4375 86.003906 27.0625 L 86.003906 27.519531 L 84.476562 27.519531 L 84.476562 27.019531 C 84.476562 26.171875 84.386719 25.675781 83.597656 25.675781 C 82.753906 25.675781 82.6875 26.359375 82.6875 27.160156 L 82.6875 30.828125 C 82.6875 31.738281 82.855469 32.3125 83.640625 32.3125 C 84.429688 32.3125 84.605469 31.703125 84.605469 30.75 L 84.605469 29.929688 L 83.667969 29.929688 L 83.667969 28.921875 L 86.050781 28.921875 L 86.050781 33.375 L 85.011719 33.375 L 84.902344 32.515625 C 84.664062 33.078125 84.234375 33.492188 83.417969 33.492188 C 81.683594 33.5 81.078125 32.332031 81.078125 30.488281 Z M 86.949219 24.605469 L 88.542969 24.605469 L 88.542969 32.285156 L 90.675781 32.285156 L 90.675781 33.378906 L 86.949219 33.378906 Z M 90.933594 30.628906 L 90.933594 27.332031 C 90.933594 25.558594 91.585938 24.5 93.46875 24.5 C 95.355469 24.5 96 25.558594 96 27.332031 L 96 30.625 C 96 32.390625 95.351562 33.496094 93.476562 33.496094 C 91.601562 33.496094 90.933594 32.40625 90.933594 30.628906 Z M 94.371094 31 L 94.371094 26.964844 C 94.371094 26.230469 94.25 25.675781 93.46875 25.675781 C 92.691406 25.675781 92.558594 26.230469 92.558594 26.964844 L 92.558594 31 C 92.558594 31.726562 92.679688 32.3125 93.46875 32.3125 C 94.261719 32.3125 94.371094 31.734375 94.371094 31 Z M 96.851562 24.605469 L 99.015625 24.605469 C 100.554688 24.605469 101.585938 25.125 101.585938 26.859375 C 101.585938 27.929688 101.140625 28.523438 100.316406 28.65625 C 101.347656 28.851562 101.832031 29.589844 101.832031 30.824219 C 101.832031 32.5 101.011719 33.378906 99.386719 33.378906 L 96.851562 33.378906 Z M 99 28.191406 C 99.953125 28.191406 100.203125 27.769531 100.203125 26.878906 C 100.203125 25.949219 99.75 25.714844 98.773438 25.714844 L 98.441406 25.714844 L 98.441406 28.183594 Z M 99.066406 32.253906 C 100.039062 32.253906 100.3125 31.796875 100.3125 30.8125 C 100.3125 29.773438 99.964844 29.296875 99.011719 29.296875 L 98.449219 29.296875 L 98.449219 32.253906 Z M 103.859375 24.605469 L 105.570312 24.605469 L 107.332031 33.378906 L 105.847656 33.378906 L 105.5 31.351562 L 103.972656 31.351562 L 103.613281 33.378906 L 102.113281 33.378906 Z M 105.320312 30.332031 L 104.726562 26.648438 L 104.128906 30.332031 Z M 107.878906 24.605469 L 109.472656 24.605469 L 109.472656 32.285156 L 111.605469 32.285156 L 111.605469 33.378906 L 107.878906 33.378906 Z M 38.621094 38.9375 L 40.691406 38.9375 C 42.824219 38.9375 43.476562 39.792969 43.476562 41.667969 L 43.476562 44.863281 C 43.476562 46.792969 42.808594 47.714844 40.757812 47.714844 L 38.621094 47.714844 Z M 40.714844 46.597656 C 41.808594 46.597656 41.851562 46.011719 41.851562 44.917969 L 41.851562 41.558594 C 41.851562 40.507812 41.742188 40.074219 40.691406 40.074219 L 40.214844 40.074219 L 40.214844 46.597656 Z M 44.191406 44.960938 L 44.191406 41.667969 C 44.191406 39.890625 44.839844 38.832031 46.726562 38.832031 C 48.609375 38.832031 49.25 39.886719 49.25 41.667969 L 49.25 44.960938 C 49.25 46.726562 48.601562 47.828125 46.726562 47.828125 C 44.851562 47.828125 44.191406 46.738281 44.191406 44.960938 Z M 47.625 45.332031 L 47.625 41.300781 C 47.625 40.5625 47.503906 40.011719 46.726562 40.011719 C 45.945312 40.011719 45.816406 40.5625 45.816406 41.300781 L 45.816406 45.332031 C 45.816406 46.058594 45.933594 46.644531 46.726562 46.644531 C 47.515625 46.644531 47.625 46.066406 47.625 45.332031 Z M 52.273438 44.90625 L 52.273438 41.777344 C 52.273438 39.976562 52.847656 38.839844 54.773438 38.839844 C 56.570312 38.839844 57.144531 39.839844 57.144531 41.363281 L 57.144531 42.101562 L 55.605469 42.101562 L 55.605469 41.34375 C 55.605469 40.605469 55.59375 40.011719 54.78125 40.011719 C 53.96875 40.011719 53.882812 40.636719 53.882812 41.441406 L 53.882812 45.242188 C 53.882812 46.195312 54.078125 46.652344 54.78125 46.652344 C 55.574219 46.652344 55.605469 46.035156 55.605469 45.253906 L 55.605469 44.464844 L 57.144531 44.464844 L 57.144531 45.167969 C 57.144531 46.714844 56.625 47.832031 54.773438 47.832031 C 52.847656 47.832031 52.273438 46.617188 52.273438 44.90625 Z M 57.9375 38.9375 L 59.53125 38.9375 L 59.53125 46.617188 L 61.667969 46.617188 L 61.667969 47.714844 L 57.9375 47.714844 Z M 62.214844 38.9375 L 63.796875 38.9375 L 63.796875 47.714844 L 62.214844 47.714844 Z M 64.957031 38.9375 L 66.613281 38.9375 L 67.859375 45.015625 L 69.148438 38.9375 L 70.761719 38.9375 L 70.929688 47.714844 L 69.738281 47.714844 L 69.609375 41.613281 L 68.363281 47.714844 L 67.398438 47.714844 L 66.128906 41.589844 L 66.011719 47.714844 L 64.808594 47.714844 Z M 73.210938 38.9375 L 74.921875 38.9375 L 76.679688 47.714844 L 75.195312 47.714844 L 74.847656 45.6875 L 73.320312 45.6875 L 72.964844 47.714844 L 71.464844 47.714844 Z M 74.675781 44.667969 L 74.078125 40.984375 L 73.484375 44.667969 Z M 105.261719 77.800781 C 102.082031 73.332031 87.699219 55.46875 60.914062 55.433594 C 34.128906 55.398438 19.691406 73.214844 16.5 77.683594 C 16.363281 77.871094 16.246094 78.039062 16.148438 78.183594 C 16.246094 78.328125 16.363281 78.492188 16.5 78.683594 C 19.683594 83.152344 34.0625 101.015625 60.851562 101.046875 C 87.644531 101.082031 102.070312 83.261719 105.261719 78.800781 C 105.402344 78.605469 105.515625 78.441406 105.609375 78.300781 C 105.515625 78.160156 105.402344 77.996094 105.261719 77.800781 M 45.953125 66.691406 C 46.195312 66.339844 47 65.328125 47.097656 65.191406 C 47.304688 64.929688 47.714844 64.875 48 64.824219 C 48.289062 64.773438 48.667969 64.929688 48.710938 65.144531 C 48.75 65.355469 48.601562 66.1875 48.457031 66.328125 C 48.066406 66.738281 47.042969 67.308594 46.476562 67.21875 C 46.042969 67.152344 45.871094 66.8125 45.953125 66.683594 M 45 68.59375 C 45.042969 68.546875 45.078125 68.503906 45.097656 68.484375 C 45.429688 68.101562 46.105469 68.019531 46.566406 67.945312 C 47.03125 67.875 47.652344 68.101562 47.726562 68.410156 C 47.800781 68.722656 46.558594 69.28125 46.332031 69.488281 C 45.6875 70.082031 44.675781 71.292969 44.085938 71.421875 C 43.921875 71.460938 43.757812 71.445312 43.605469 71.371094 C 43.992188 70.40625 44.457031 69.480469 45 68.59375 M 55 89.175781 C 54.636719 90.601562 54.210938 91.113281 53.851562 91.5625 C 53.488281 92.011719 52.152344 92.597656 51.304688 92.535156 C 50.453125 92.46875 50.339844 90.199219 50.339844 89.035156 C 50.339844 88.628906 49.773438 89.824219 49.476562 87.398438 C 49.289062 85.84375 48.289062 87.566406 48.222656 86.523438 C 48.152344 85.480469 47.65625 85.691406 47.132812 85.046875 C 46.609375 84.40625 45.964844 85.109375 45.234375 85.433594 C 44.5 85.761719 44.808594 85.933594 43.777344 85.601562 C 43.75 85.601562 43.738281 85.585938 43.714844 85.578125 C 42.734375 83.253906 42.25 80.832031 42.257812 78.3125 C 42.257812 77.683594 42.292969 77.0625 42.351562 76.449219 C 42.386719 76.390625 42.421875 76.335938 42.464844 76.285156 C 43.457031 75.117188 43.433594 74.84375 43.433594 74.84375 L 44.527344 74.464844 C 45.566406 74.632812 46.585938 74.890625 47.582031 75.234375 C 48.664062 75.640625 50.367188 76.566406 51.355469 76.160156 C 52.074219 75.863281 52.636719 75.472656 52.566406 74.875 C 52.488281 74.128906 51.902344 73.949219 51.183594 74.453125 C 50.921875 74.636719 50.363281 73.324219 49.921875 73.390625 C 49.484375 73.453125 50.464844 74.933594 50.089844 74.996094 C 49.714844 75.058594 48.964844 73.453125 48.839844 73.195312 C 48.710938 72.933594 48.132812 72.292969 47.613281 72.78125 C 46.511719 73.828125 44.722656 73.761719 44.363281 74.027344 C 43.269531 74.84375 42.984375 73.757812 43.007812 73.097656 C 43.050781 72.945312 43.097656 72.792969 43.144531 72.644531 C 43.503906 72.25 44.785156 72.121094 45.222656 72.414062 C 45.703125 72.738281 46.058594 72.332031 46.238281 72.136719 C 46.421875 71.941406 46.363281 71.636719 46.238281 71.378906 C 46.113281 71.121094 46.480469 70.929688 46.730469 70.863281 C 46.980469 70.800781 47.816406 70.214844 48.148438 70.023438 C 48.480469 69.828125 50.207031 69.625 50.980469 70.011719 C 51.296875 70.179688 51.628906 70.226562 51.980469 70.15625 C 52.332031 70.085938 52.617188 69.914062 52.84375 69.636719 C 53.230469 69.183594 53.679688 68.804688 54.199219 68.511719 C 54.46875 68.386719 53.53125 67.511719 52.761719 68.464844 C 51.996094 69.414062 51.597656 69.496094 51.234375 69.496094 C 50.875 69.496094 48.71875 68.953125 48.453125 68.273438 C 48.191406 67.589844 49.121094 67.085938 49.925781 66.703125 C 50.730469 66.316406 52.898438 66.332031 53.453125 66.203125 C 54.582031 65.953125 56.03125 65.386719 56.757812 65.886719 C 57.488281 66.382812 53.714844 67.226562 54.953125 67.898438 C 55.390625 68.136719 57.386719 66.753906 58.066406 66.398438 C 59.671875 65.570312 56.511719 65.292969 56.925781 63.613281 C 57.390625 61.710938 53.050781 62.445312 50.886719 62.597656 C 51.511719 62.199219 52.15625 61.839844 52.824219 61.519531 C 53.492188 61.195312 54.175781 60.917969 54.878906 60.675781 C 55.578125 60.4375 56.292969 60.238281 57.015625 60.085938 C 57.742188 59.929688 58.472656 59.816406 59.210938 59.75 C 59.949219 59.683594 60.6875 59.660156 61.425781 59.679688 C 62.167969 59.699219 62.90625 59.765625 63.636719 59.871094 C 64.371094 59.980469 65.09375 60.132812 65.8125 60.324219 C 66.527344 60.519531 67.226562 60.757812 67.914062 61.035156 C 68.601562 61.3125 69.269531 61.628906 69.917969 61.988281 C 70.566406 62.34375 71.191406 62.738281 71.792969 63.171875 C 72.394531 63.605469 72.96875 64.070312 73.515625 64.570312 C 74.0625 65.070312 74.578125 65.601562 75.0625 66.164062 C 75.542969 66.726562 75.992188 67.316406 76.40625 67.929688 C 76.820312 68.546875 77.195312 69.183594 77.53125 69.84375 C 77.867188 70.503906 78.164062 71.179688 78.421875 71.875 C 78.675781 72.570312 78.890625 73.277344 79.0625 74 C 79.074219 74.292969 79.042969 74.578125 78.972656 74.863281 C 78.804688 75.53125 77.523438 76.113281 76.785156 75.03125 C 76.597656 74.757812 75.796875 74 75.824219 75.292969 C 75.847656 76.582031 77.078125 76.71875 75.886719 77.496094 C 74.691406 78.269531 74.472656 78.082031 73.921875 78.277344 C 73.371094 78.472656 72.835938 79.800781 72.964844 80.515625 C 73.097656 81.226562 74.800781 83.183594 73.535156 83.09375 C 73.238281 83.070312 71.011719 81.546875 70.644531 80.566406 C 70.257812 79.535156 69.835938 78.523438 69.535156 77.746094 C 69.238281 76.964844 68.445312 76.773438 67.777344 77.226562 C 67.109375 77.683594 67.964844 78.136719 67.484375 79.105469 C 67.003906 80.078125 66.664062 80.941406 65.964844 80.140625 C 64.148438 78.050781 61.5 79.074219 61.085938 76.753906 C 60.863281 75.492188 59.78125 75.613281 58.875 74.898438 C 57.964844 74.183594 57.457031 73.800781 57.304688 74.316406 C 57.167969 74.765625 60.152344 77.136719 60.363281 77.746094 C 60.679688 78.648438 59.464844 79.441406 58.578125 79.652344 C 57.691406 79.863281 57.308594 79.152344 56.441406 78.246094 C 55.570312 77.339844 55.191406 76.691406 55.128906 77.402344 C 55.042969 78.429688 55.953125 79.941406 56.839844 80.503906 C 57.589844 80.984375 58.4375 81.203125 58.191406 81.976562 C 57.945312 82.75 58.191406 82.308594 57.339844 83.144531 C 56.488281 83.976562 56.328125 84.253906 56.390625 85.414062 C 56.449219 86.574219 56.148438 86.648438 55.964844 87.617188 C 55.78125 88.585938 55.359375 87.746094 54.992188 89.167969 M 75.019531 81.753906 C 75.648438 81.703125 76.589844 82.574219 76.21875 82.90625 C 75.851562 83.238281 74.910156 83.113281 74.441406 82.738281 C 73.972656 82.363281 74.738281 81.769531 75.019531 81.75 M 74.226562 81.171875 C 74.027344 81.097656 73.851562 80.90625 73.699219 80.449219 C 73.546875 79.988281 73.933594 79.730469 74.308594 79.914062 C 74.683594 80.101562 75.1875 80.683594 75.1875 80.988281 C 75.1875 81.292969 74.433594 81.253906 74.226562 81.171875 M 66 81.144531 C 65.628906 81.476562 64.6875 81.351562 64.214844 80.976562 C 63.742188 80.601562 64.515625 80.007812 64.796875 79.984375 C 65.421875 79.929688 66.363281 80.808594 66 81.140625 M 58.367188 84.832031 C 58.109375 85.253906 57.402344 88.390625 56.933594 88.023438 C 56.464844 87.65625 57.128906 84.386719 57.265625 84.136719 C 58.003906 82.785156 59.601562 82.851562 58.367188 84.832031 M 60.886719 97 C 59.105469 96.996094 57.355469 96.742188 55.644531 96.238281 C 55.507812 96.132812 55.417969 95.992188 55.378906 95.824219 C 55.335938 95.652344 55.347656 95.488281 55.421875 95.328125 C 56 93.828125 57.71875 93.238281 59.078125 93.109375 C 62.101562 92.816406 66.078125 95.082031 66.710938 94.71875 C 67.34375 94.355469 68.625 92.691406 70.503906 92.765625 C 71.785156 92.816406 71.773438 93.03125 72.203125 93.191406 C 70.578125 94.433594 68.796875 95.378906 66.859375 96.03125 C 64.921875 96.683594 62.929688 97.003906 60.886719 97 M 74.054688 91.585938 C 73.851562 91.53125 73.65625 91.460938 73.46875 91.367188 C 72.449219 90.847656 72.570312 91.675781 72.070312 91.492188 C 71.566406 91.308594 72.636719 90.144531 71.132812 91.125 C 69.625 92.109375 70.039062 90.972656 69.386719 89.3125 C 68.734375 87.648438 70.144531 85.757812 71.332031 85.332031 C 72.953125 84.75 73.960938 84.628906 74.722656 84.441406 C 76.964844 83.886719 77.441406 82.558594 77.847656 83.367188 C 77.921875 83.519531 77.996094 83.664062 78.0625 83.796875 C 78.246094 84.183594 78.34375 84.589844 78.351562 85.015625 C 77.394531 87.515625 75.964844 89.707031 74.0625 91.589844 M 79.1875 82.179688 C 78.6875 82.039062 76.597656 79.140625 78.253906 77.238281 C 78.53125 76.921875 77.703125 76 77.921875 75.984375 C 78.828125 75.914062 79.308594 76.484375 79.546875 77.289062 C 79.5625 77.644531 79.578125 78.003906 79.578125 78.371094 C 79.574219 79.652344 79.441406 80.921875 79.183594 82.179688 "/></g></svg>