<svg xmlns="http://www.w3.org/2000/svg" xmlns:xlink="http://www.w3.org/1999/xlink" width="160" zoomAndPan="magnify" viewBox="0 0 120 119.999999" height="160" preserveAspectRatio="xMidYMid meet" version="1.2"><g id="5382070b48"><rect x="0" width="120" y="0" height="119.999999" style="fill:#ffffff;fill-opacity:1;stroke:none;"/><rect x="0" width="120" y="0" height="119.999999" style="fill:#ffffff;fill-opacity:1;stroke:none;"/><rect x="0" width="120" y="0" height="119.999999" style="fill:#dda83a;fill-opacity:1;stroke:none;"/><path style=" stroke:none;fill-rule:nonzero;fill:#ffffff;fill-opacity:1;" d="M 9.1875 30.148438 L 14.769531 21.566406 C 15.988281 19.667969 17.203125 18.078125 17.203125 15.953125 C 17.203125 14.480469 16.636719 13.6875 15.539062 13.6875 C 13.871094 13.6875 13.46875 15.21875 13.46875 17.089844 L 13.46875 18.136719 L 9.1875 18.136719 L 9.1875 17 C 9.1875 12.949219 10.941406 10 15.449219 10 C 19.472656 10 21.539062 12.238281 21.539062 16.035156 C 21.539062 18.839844 20.09375 20.796875 18.539062 23.148438 L 14.117188 29.78125 L 20.917969 29.78125 L 20.917969 33.238281 L 9.1875 33.238281 Z M 31.5 10.273438 L 35.109375 10.273438 L 35.109375 11.375 L 33.085938 11.375 L 33.085938 13.933594 L 34.734375 13.933594 L 34.734375 15.046875 L 33.085938 15.046875 L 33.085938 19.046875 L 31.5 19.046875 Z M 35.773438 16.296875 L 35.773438 13 C 35.773438 11.222656 36.421875 10.167969 38.308594 10.167969 C 40.191406 10.167969 40.832031 11.226562 40.832031 13 L 40.832031 16.296875 C 40.832031 18.058594 40.183594 19.164062 38.308594 19.164062 C 36.4375 19.164062 35.773438 18.070312 35.773438 16.296875 Z M 39.207031 16.671875 L 39.207031 12.632812 C 39.207031 11.898438 39.089844 11.34375 38.308594 11.34375 C 37.527344 11.34375 37.398438 11.898438 37.398438 12.632812 L 37.398438 16.667969 C 37.398438 17.394531 37.515625 17.976562 38.308594 17.976562 C 39.101562 17.976562 39.207031 17.398438 39.207031 16.667969 Z M 42.089844 10.273438 L 43.753906 10.273438 L 45 16.347656 L 46.289062 10.273438 L 47.902344 10.273438 L 48.070312 19.046875 L 46.867188 19.046875 L 46.738281 12.945312 L 45.488281 19.046875 L 44.527344 19.046875 L 43.257812 12.925781 L 43.140625 19.046875 L 41.9375 19.046875 Z M 49.304688 10.273438 L 52.988281 10.273438 L 52.988281 11.398438 L 50.898438 11.398438 L 50.898438 13.921875 L 52.542969 13.921875 L 52.542969 15.039062 L 50.898438 15.039062 L 50.898438 17.953125 L 53.007812 17.953125 L 53.007812 19.046875 L 49.304688 19.046875 Z M 56.167969 18.015625 L 58.519531 11.375 L 56.292969 11.375 L 56.292969 10.273438 L 60.136719 10.273438 L 60.136719 11.09375 L 57.6875 17.953125 L 60.148438 17.953125 L 60.148438 19.046875 L 56.167969 19.046875 Z M 61.015625 10.273438 L 64.699219 10.273438 L 64.699219 11.398438 L 62.605469 11.398438 L 62.605469 13.921875 L 64.253906 13.921875 L 64.253906 15.039062 L 62.605469 15.039062 L 62.605469 17.953125 L 64.71875 17.953125 L 64.71875 19.046875 L 61.015625 19.046875 Z M 65.597656 10.273438 L 67.710938 10.273438 C 69.464844 10.273438 70.460938 10.835938 70.460938 12.605469 C 70.460938 13.65625 70.203125 14.394531 69.378906 14.726562 L 70.601562 19.050781 L 69 19.050781 L 67.949219 15.03125 L 67.191406 15.03125 L 67.191406 19.050781 L 65.597656 19.050781 Z M 67.699219 14.03125 C 68.621094 14.03125 68.953125 13.628906 68.953125 12.6875 C 68.953125 11.796875 68.707031 11.363281 67.789062 11.363281 L 67.191406 11.363281 L 67.191406 14.03125 Z M 71.4375 16.296875 L 71.4375 13 C 71.4375 11.222656 72.085938 10.167969 73.972656 10.167969 C 75.855469 10.167969 76.5 11.226562 76.5 13 L 76.5 16.296875 C 76.5 18.058594 75.851562 19.164062 73.976562 19.164062 C 72.101562 19.164062 71.4375 18.070312 71.4375 16.296875 Z M 74.871094 16.671875 L 74.871094 12.632812 C 74.871094 11.898438 74.75 11.34375 73.972656 11.34375 C 73.191406 11.34375 73.0625 11.898438 73.0625 12.632812 L 73.0625 16.667969 C 73.0625 17.394531 73.179688 17.976562 73.972656 17.976562 C 74.761719 17.976562 74.871094 17.398438 74.871094 16.667969 Z M 31.5 24.605469 L 35.183594 24.605469 L 35.183594 25.730469 L 33.085938 25.730469 L 33.085938 28.253906 L 34.734375 28.253906 L 34.734375 29.371094 L 33.085938 29.371094 L 33.085938 32.285156 L 35.199219 32.285156 L 35.199219 33.378906 L 31.5 33.378906 Z M 39.964844 24.605469 L 41.675781 24.605469 L 43.433594 33.378906 L 41.949219 33.378906 L 41.601562 31.351562 L 40.074219 31.351562 L 39.714844 33.378906 L 38.214844 33.378906 Z M 41.429688 30.332031 L 40.832031 26.652344 L 40.238281 30.332031 Z M 44.027344 30.488281 L 44.027344 27.539062 C 44.027344 25.65625 44.601562 24.507812 46.527344 24.507812 C 48.328125 24.507812 48.953125 25.4375 48.953125 27.0625 L 48.953125 27.519531 L 47.429688 27.519531 L 47.429688 27.019531 C 47.429688 26.171875 47.339844 25.675781 46.550781 25.675781 C 45.703125 25.675781 45.640625 26.359375 45.640625 27.160156 L 45.640625 30.828125 C 45.640625 31.738281 45.808594 32.3125 46.59375 32.3125 C 47.378906 32.3125 47.558594 31.703125 47.558594 30.75 L 47.558594 29.929688 L 46.617188 29.929688 L 46.617188 28.921875 L 49 28.921875 L 49 33.375 L 47.960938 33.375 L 47.851562 32.515625 C 47.742188 32.824219 47.546875 33.070312 47.273438 33.25 C 46.996094 33.433594 46.695312 33.511719 46.367188 33.492188 C 44.636719 33.5 44.027344 32.332031 44.027344 30.488281 Z M 50.167969 24.605469 L 52.285156 24.605469 C 54.039062 24.605469 55.035156 25.167969 55.035156 26.9375 C 55.035156 27.988281 54.773438 28.726562 53.953125 29.0625 L 55.175781 33.386719 L 53.570312 33.386719 L 52.523438 29.363281 L 51.761719 29.363281 L 51.761719 33.386719 L 50.167969 33.386719 Z M 52.269531 28.363281 C 53.191406 28.363281 53.523438 27.964844 53.523438 27.019531 C 53.523438 26.132812 53.277344 25.699219 52.359375 25.699219 L 51.761719 25.699219 L 51.761719 28.363281 Z M 56.238281 24.605469 L 57.816406 24.605469 L 57.816406 33.378906 L 56.238281 33.378906 Z M 58.976562 30.574219 L 58.976562 27.441406 C 58.976562 25.644531 59.550781 24.507812 61.476562 24.507812 C 63.277344 24.507812 63.851562 25.507812 63.851562 27.03125 L 63.851562 27.769531 L 62.3125 27.769531 L 62.3125 27.011719 C 62.3125 26.273438 62.300781 25.675781 61.488281 25.675781 C 60.679688 25.675781 60.589844 26.304688 60.589844 27.105469 L 60.589844 30.910156 C 60.589844 31.863281 60.785156 32.316406 61.488281 32.316406 C 62.28125 32.316406 62.3125 31.699219 62.3125 30.921875 L 62.3125 30.128906 L 63.851562 30.128906 L 63.851562 30.832031 C 63.851562 32.382812 63.332031 33.5 61.476562 33.5 C 59.550781 33.5 58.976562 32.285156 58.976562 30.574219 Z M 64.851562 30.542969 L 64.851562 24.605469 L 66.410156 24.605469 L 66.410156 30.726562 C 66.410156 31.558594 66.507812 32.308594 67.320312 32.308594 C 68.132812 32.308594 68.238281 31.558594 68.238281 30.726562 L 68.238281 24.605469 L 69.789062 24.605469 L 69.789062 30.542969 C 69.789062 32.382812 69.28125 33.5 67.320312 33.5 C 65.359375 33.5 64.851562 32.382812 64.851562 30.542969 Z M 71 24.605469 L 72.59375 24.605469 L 72.59375 32.285156 L 74.726562 32.285156 L 74.726562 33.378906 L 71 33.378906 Z M 75.941406 25.785156 L 74.546875 25.785156 L 74.546875 24.605469 L 78.910156 24.605469 L 78.910156 25.785156 L 77.546875 25.785156 L 77.546875 33.378906 L 75.941406 33.378906 Z M 79.59375 30.542969 L 79.59375 24.605469 L 81.152344 24.605469 L 81.152344 30.726562 C 81.152344 31.558594 81.25 32.308594 82.0625 32.308594 C 82.875 32.308594 82.984375 31.558594 82.984375 30.726562 L 82.984375 24.605469 L 84.535156 24.605469 L 84.535156 30.542969 C 84.535156 32.382812 84.023438 33.5 82.0625 33.5 C 80.101562 33.5 79.59375 32.382812 79.59375 30.542969 Z M 85.734375 24.605469 L 87.847656 24.605469 C 89.601562 24.605469 90.601562 25.167969 90.601562 26.9375 C 90.601562 27.988281 90.339844 28.726562 89.515625 29.0625 L 90.738281 33.386719 L 89.136719 33.386719 L 88.085938 29.363281 L 87.332031 29.363281 L 87.332031 33.386719 L 85.738281 33.386719 Z M 87.832031 28.363281 C 88.753906 28.363281 89.089844 27.964844 89.089844 27.019531 C 89.089844 26.132812 88.839844 25.699219 87.921875 25.699219 L 87.332031 25.699219 L 87.332031 28.363281 Z M 93.070312 24.605469 L 94.78125 24.605469 L 96.535156 33.378906 L 95.050781 33.378906 L 94.703125 31.351562 L 93.179688 31.351562 L 92.820312 33.378906 L 91.320312 33.378906 Z M 94.53125 30.332031 L 93.9375 26.648438 L 93.332031 30.332031 Z M 31.277344 45.15625 L 32.652344 44.886719 C 32.695312 45.925781 32.945312 46.597656 33.652344 46.597656 C 34.152344 46.597656 34.378906 46.25 34.378906 45.773438 C 34.378906 45.015625 33.988281 44.59375 33.414062 44.09375 L 32.308594 43.128906 C 31.683594 42.589844 31.292969 41.980469 31.292969 41.007812 C 31.292969 39.621094 32.160156 38.839844 33.554688 38.839844 C 35.203125 38.839844 35.667969 39.945312 35.753906 41.222656 L 34.378906 41.460938 C 34.347656 40.636719 34.226562 40.023438 33.523438 40.023438 C 33.046875 40.023438 32.785156 40.378906 32.785156 40.84375 C 32.785156 41.441406 33.035156 41.765625 33.5 42.167969 L 34.59375 43.128906 C 35.3125 43.75 35.90625 44.515625 35.90625 45.675781 C 35.90625 46.941406 35.019531 47.832031 33.707031 47.832031 C 32.101562 47.832031 31.339844 46.898438 31.277344 45.15625 Z M 36.726562 44.875 L 36.726562 38.9375 L 38.285156 38.9375 L 38.285156 45.058594 C 38.285156 45.890625 38.382812 46.640625 39.195312 46.640625 C 40.011719 46.640625 40.117188 45.894531 40.117188 45.058594 L 40.117188 38.9375 L 41.667969 38.9375 L 41.667969 44.875 C 41.667969 46.714844 41.15625 47.832031 39.195312 47.832031 C 37.238281 47.832031 36.726562 46.714844 36.726562 44.875 Z M 42.652344 45.15625 L 44.027344 44.886719 C 44.070312 45.925781 44.320312 46.597656 45.027344 46.597656 C 45.535156 46.597656 45.753906 46.25 45.753906 45.773438 C 45.753906 45.015625 45.363281 44.59375 44.789062 44.09375 L 43.683594 43.128906 C 43.058594 42.589844 42.667969 41.980469 42.667969 41.007812 C 42.667969 39.621094 43.535156 38.839844 44.929688 38.839844 C 46.578125 38.839844 47.042969 39.945312 47.128906 41.222656 L 45.753906 41.460938 C 45.722656 40.636719 45.601562 40.023438 44.898438 40.023438 C 44.421875 40.023438 44.160156 40.378906 44.160156 40.84375 C 44.160156 41.441406 44.410156 41.765625 44.875 42.167969 L 45.96875 43.128906 C 46.683594 43.75 47.28125 44.515625 47.28125 45.675781 C 47.28125 46.941406 46.394531 47.832031 45.082031 47.832031 C 43.476562 47.832031 42.714844 46.898438 42.652344 45.15625 Z M 49.042969 40.117188 L 47.648438 40.117188 L 47.648438 38.9375 L 52.011719 38.9375 L 52.011719 40.117188 L 50.648438 40.117188 L 50.648438 47.714844 L 49.042969 47.714844 Z M 52.761719 38.9375 L 56.441406 38.9375 L 56.441406 40.066406 L 54.351562 40.066406 L 54.351562 42.589844 L 56 42.589844 L 56 43.703125 L 54.351562 43.703125 L 54.351562 46.617188 L 56.464844 46.617188 L 56.464844 47.714844 L 52.761719 47.714844 Z M 57.339844 38.9375 L 58.457031 38.9375 L 60.589844 43.9375 L 60.589844 38.9375 L 61.914062 38.9375 L 61.914062 47.714844 L 60.851562 47.714844 L 58.707031 42.46875 L 58.707031 47.714844 L 57.339844 47.714844 Z M 64.070312 40.117188 L 62.667969 40.117188 L 62.667969 38.9375 L 67.035156 38.9375 L 67.035156 40.117188 L 65.667969 40.117188 L 65.667969 47.714844 L 64.0625 47.714844 Z M 68.878906 38.9375 L 70.589844 38.9375 L 72.347656 47.714844 L 70.863281 47.714844 L 70.515625 45.6875 L 68.988281 45.6875 L 68.628906 47.714844 L 67.128906 47.714844 Z M 70.339844 44.667969 L 69.746094 40.984375 L 69.148438 44.667969 Z M 69.953125 36.167969 L 71.453125 36.167969 L 70.167969 38.332031 L 69.308594 38.332031 Z M 72.433594 38.9375 L 73.832031 38.9375 L 75 45.144531 L 76.09375 38.9375 L 77.535156 38.9375 L 75.769531 47.714844 L 74.199219 47.714844 Z M 78.378906 38.9375 L 82.0625 38.9375 L 82.0625 40.066406 L 79.972656 40.066406 L 79.972656 42.589844 L 81.617188 42.589844 L 81.617188 43.703125 L 79.972656 43.703125 L 79.972656 46.617188 L 82.085938 46.617188 L 82.085938 47.714844 L 78.378906 47.714844 Z M 82.960938 38.9375 L 84.554688 38.9375 L 84.554688 46.617188 L 86.6875 46.617188 L 86.6875 47.714844 L 82.960938 47.714844 Z M 47.773438 106.621094 L 47.773438 108.320312 C 47.773438 108.332031 47.773438 108.34375 47.773438 108.359375 C 47.773438 108.371094 47.773438 108.386719 47.773438 108.398438 C 47.78125 108.609375 47.863281 108.789062 48.015625 108.933594 C 48.164062 109.082031 48.347656 109.15625 48.558594 109.160156 L 68.570312 109.160156 C 68.789062 109.15625 68.976562 109.078125 69.128906 108.921875 C 69.28125 108.769531 69.359375 108.582031 69.359375 108.363281 L 69.359375 106.429688 C 80.585938 102.746094 89 93.648438 90.847656 82.558594 C 90.847656 82.535156 90.847656 82.511719 90.859375 82.492188 C 90.867188 82.453125 90.871094 82.417969 90.871094 82.378906 C 90.871094 82.15625 90.792969 81.964844 90.632812 81.808594 C 90.476562 81.652344 90.285156 81.574219 90.0625 81.574219 L 26.5 81.574219 C 26.277344 81.574219 26.085938 81.652344 25.929688 81.808594 C 25.769531 81.964844 25.691406 82.15625 25.691406 82.378906 L 25.734375 82.742188 C 27.667969 93.9375 36.3125 103.089844 47.773438 106.621094 M 69.332031 54.441406 C 69.070312 54.816406 62.929688 63.65625 69.46875 70.808594 C 72.46875 74.089844 72.210938 76.984375 71.351562 78.9375 L 75.546875 78.9375 C 76.398438 76.050781 76.046875 72.429688 72.640625 68.707031 C 67.824219 63.441406 72.703125 56.320312 72.777344 56.207031 C 73.351562 55.394531 73.042969 54.347656 72.097656 53.859375 C 71.148438 53.371094 69.910156 53.632812 69.332031 54.441406 M 58.714844 78.9375 L 62.910156 78.9375 C 63.761719 76.050781 63.410156 72.4375 60 68.707031 C 55.179688 63.441406 60.058594 56.320312 60.136719 56.207031 C 60.707031 55.398438 60.40625 54.355469 59.453125 53.863281 C 58.5 53.375 57.269531 53.636719 56.691406 54.445312 C 56.429688 54.816406 50.285156 63.660156 56.828125 70.808594 C 59.828125 74.089844 59.566406 76.988281 58.714844 78.941406 M 44.046875 54.441406 C 43.78125 54.816406 37.636719 63.65625 44.179688 70.808594 C 47.179688 74.089844 46.921875 76.984375 46.066406 78.9375 L 50.261719 78.9375 C 51.113281 76.054688 50.761719 72.4375 47.351562 68.707031 C 42.53125 63.441406 47.410156 56.320312 47.488281 56.207031 C 48.058594 55.398438 47.753906 54.351562 46.804688 53.863281 C 45.851562 53.375 44.621094 53.636719 44.046875 54.441406 "/></g></svg>