<svg xmlns="http://www.w3.org/2000/svg" xmlns:xlink="http://www.w3.org/1999/xlink" width="160" zoomAndPan="magnify" viewBox="0 0 120 119.999999" height="160" preserveAspectRatio="xMidYMid meet" version="1.2"><g id="f5152fbb48"><rect x="0" width="120" y="0" height="119.999999" style="fill:#ffffff;fill-opacity:1;stroke:none;"/><rect x="0" width="120" y="0" height="119.999999" style="fill:#ffffff;fill-opacity:1;stroke:none;"/><rect x="0" width="120" y="0" height="119.999999" style="fill:#4c9f38;fill-opacity:1;stroke:none;"/><path style=" stroke:none;fill-rule:nonzero;fill:#ffffff;fill-opacity:1;" d="M 9.101562 26.691406 L 9.101562 25.898438 L 13.464844 25.898438 L 13.464844 26.667969 C 13.5 28.902344 13.890625 29.953125 15.332031 29.953125 C 16.808594 29.953125 17.117188 28.816406 17.117188 26.636719 C 17.117188 24.339844 16.578125 23.039062 14.566406 22.980469 C 14.3125 22.953125 14.058594 22.941406 13.804688 22.953125 L 13.804688 19.75 L 14.484375 19.75 C 16.523438 19.75 17.117188 18.703125 17.117188 16.351562 C 17.117188 14.519531 16.691406 13.460938 15.25 13.460938 C 13.804688 13.460938 13.5 14.707031 13.464844 16.5 L 13.464844 17.519531 L 9.101562 17.519531 L 9.101562 16.265625 C 9.101562 12.242188 11.367188 9.976562 15.25 9.976562 C 19.160156 9.976562 21.425781 12.128906 21.425781 16.125 C 21.425781 18.816406 20.179688 20.6875 18.535156 21.140625 C 20.203125 21.761719 21.425781 23.292969 21.425781 26.550781 C 21.425781 30.71875 19.761719 33.636719 15.277344 33.636719 C 10.6875 33.636719 9.101562 30.859375 9.101562 26.691406 Z M 31.277344 16.488281 L 32.652344 16.21875 C 32.695312 17.257812 32.945312 17.929688 33.652344 17.929688 C 34.152344 17.929688 34.378906 17.582031 34.378906 17.105469 C 34.378906 16.347656 33.988281 15.925781 33.414062 15.429688 L 32.308594 14.464844 C 31.683594 13.921875 31.292969 13.316406 31.292969 12.339844 C 31.292969 10.953125 32.160156 10.171875 33.554688 10.171875 C 35.203125 10.171875 35.667969 11.277344 35.753906 12.558594 L 34.378906 12.796875 C 34.347656 11.972656 34.226562 11.355469 33.523438 11.355469 C 33.046875 11.355469 32.785156 11.710938 32.785156 12.179688 C 32.785156 12.773438 33.035156 13.097656 33.5 13.5 L 34.59375 14.464844 C 35.308594 15.082031 35.90625 15.851562 35.90625 17.011719 C 35.90625 18.277344 35.019531 19.164062 33.707031 19.164062 C 32.101562 19.167969 31.339844 18.234375 31.277344 16.488281 Z M 38.058594 10.273438 L 39.769531 10.273438 L 41.523438 19.046875 L 40.042969 19.046875 L 39.695312 17.019531 L 38.167969 17.019531 L 37.808594 19.046875 L 36.308594 19.046875 Z M 39.523438 16 L 38.925781 12.316406 L 38.332031 16 Z M 42.238281 16.207031 L 42.238281 10.273438 L 43.800781 10.273438 L 43.800781 16.390625 C 43.800781 17.226562 43.898438 17.972656 44.710938 17.972656 C 45.523438 17.972656 45.632812 17.226562 45.632812 16.390625 L 45.632812 10.273438 L 47.179688 10.273438 L 47.179688 16.207031 C 47.179688 18.042969 46.671875 19.164062 44.710938 19.164062 C 42.75 19.164062 42.238281 18.050781 42.238281 16.207031 Z M 44.925781 7.5 L 46.425781 7.5 L 45.132812 9.667969 L 44.277344 9.667969 Z M 48.382812 10.273438 L 50.453125 10.273438 C 52.585938 10.273438 53.238281 11.125 53.238281 13 L 53.238281 16.195312 C 53.238281 18.125 52.570312 19.046875 50.515625 19.046875 L 48.382812 19.046875 Z M 50.472656 17.929688 C 51.566406 17.929688 51.613281 17.34375 51.613281 16.25 L 51.613281 12.894531 C 51.613281 11.839844 51.503906 11.410156 50.445312 11.410156 L 49.96875 11.410156 L 49.96875 17.929688 Z M 54.363281 10.273438 L 58.046875 10.273438 L 58.046875 11.398438 L 55.953125 11.398438 L 55.953125 13.921875 L 57.601562 13.921875 L 57.601562 15.039062 L 55.953125 15.039062 L 55.953125 17.953125 L 58.066406 17.953125 L 58.066406 19.046875 L 54.363281 19.046875 Z M 61.523438 10.273438 L 65.207031 10.273438 L 65.207031 11.398438 L 63.117188 11.398438 L 63.117188 13.921875 L 64.761719 13.921875 L 64.761719 15.039062 L 63.117188 15.039062 L 63.117188 17.953125 L 65.226562 17.953125 L 65.226562 19.046875 L 61.523438 19.046875 Z M 31.5 24.605469 L 33.667969 24.605469 C 35.203125 24.605469 36.234375 25.125 36.234375 26.859375 C 36.234375 27.929688 35.789062 28.523438 34.964844 28.65625 C 35.996094 28.851562 36.484375 29.589844 36.484375 30.824219 C 36.484375 32.5 35.660156 33.378906 34.035156 33.378906 L 31.5 33.378906 Z M 33.644531 28.191406 C 34.597656 28.191406 34.847656 27.769531 34.847656 26.878906 C 34.847656 25.949219 34.394531 25.714844 33.417969 25.714844 L 33.09375 25.714844 L 33.09375 28.183594 Z M 33.710938 32.253906 C 34.683594 32.253906 34.957031 31.796875 34.957031 30.8125 C 34.957031 29.773438 34.609375 29.296875 33.65625 29.296875 L 33.09375 29.296875 L 33.09375 32.253906 Z M 37.472656 24.605469 L 41.15625 24.605469 L 41.15625 25.730469 L 39.066406 25.730469 L 39.066406 28.253906 L 40.714844 28.253906 L 40.714844 29.371094 L 39.066406 29.371094 L 39.066406 32.285156 L 41.179688 32.285156 L 41.179688 33.378906 L 37.472656 33.378906 Z M 42.1875 24.605469 L 43.84375 24.605469 L 45.089844 30.683594 L 46.378906 24.605469 L 48 24.605469 L 48.167969 33.378906 L 46.976562 33.378906 L 46.84375 27.28125 L 45.601562 33.378906 L 44.636719 33.378906 L 43.367188 27.257812 L 43.25 33.378906 L 42.046875 33.378906 Z M 49.359375 29.332031 L 51.96875 29.332031 L 51.96875 30.332031 L 49.359375 30.332031 Z M 53.191406 24.605469 L 56.875 24.605469 L 56.875 25.730469 L 54.785156 25.730469 L 54.785156 28.253906 L 56.433594 28.253906 L 56.433594 29.371094 L 54.785156 29.371094 L 54.785156 32.285156 L 56.898438 32.285156 L 56.898438 33.378906 L 53.191406 33.378906 Z M 57.558594 30.824219 L 58.933594 30.550781 C 58.976562 31.589844 59.226562 32.261719 59.933594 32.261719 C 60.441406 32.261719 60.660156 31.917969 60.660156 31.441406 C 60.660156 30.683594 60.269531 30.261719 59.695312 29.761719 L 58.589844 28.796875 C 57.964844 28.253906 57.574219 27.648438 57.574219 26.671875 C 57.574219 25.285156 58.441406 24.507812 59.835938 24.507812 C 61.484375 24.507812 61.949219 25.613281 62.035156 26.890625 L 60.660156 27.128906 C 60.628906 26.304688 60.507812 25.6875 59.804688 25.6875 C 59.328125 25.6875 59.066406 26.046875 59.066406 26.511719 C 59.066406 27.105469 59.316406 27.433594 59.785156 27.832031 L 60.875 28.796875 C 61.589844 29.414062 62.1875 30.183594 62.1875 31.34375 C 62.1875 32.609375 61.300781 33.5 59.988281 33.5 C 58.382812 33.5 57.625 32.566406 57.558594 30.824219 Z M 63.949219 25.785156 L 62.554688 25.785156 L 62.554688 24.605469 L 66.917969 24.605469 L 66.917969 25.785156 L 65.554688 25.785156 L 65.554688 33.378906 L 63.949219 33.378906 Z M 68.761719 24.605469 L 70.472656 24.605469 L 72.226562 33.378906 L 70.742188 33.378906 L 70.398438 31.351562 L 68.867188 31.351562 L 68.511719 33.378906 L 67.011719 33.378906 Z M 70.222656 30.332031 L 69.625 26.648438 L 69.03125 30.332031 Z M 73.050781 24.605469 L 75.167969 24.605469 C 76.921875 24.605469 77.917969 25.167969 77.917969 26.9375 C 77.917969 27.988281 77.660156 28.726562 76.835938 29.0625 L 78.058594 33.386719 L 76.453125 33.386719 L 75.40625 29.363281 L 74.648438 29.363281 L 74.648438 33.386719 L 73.050781 33.386719 Z M 75.152344 28.363281 C 76.074219 28.363281 76.410156 27.964844 76.410156 27.019531 C 76.410156 26.132812 76.160156 25.699219 75.242188 25.699219 L 74.648438 25.699219 L 74.648438 28.363281 Z M 100.613281 75.109375 C 100.613281 71.707031 98.429688 68.941406 95.121094 68.941406 C 93.46875 68.941406 91.472656 70.753906 90.390625 71.867188 C 89.308594 70.75 87.445312 68.941406 85.792969 68.941406 C 82.484375 68.941406 80.167969 71.699219 80.167969 75.105469 C 80.164062 75.917969 80.316406 76.703125 80.621094 77.457031 C 80.921875 78.210938 81.359375 78.878906 81.921875 79.464844 L 90.398438 87.953125 L 98.863281 79.472656 C 99.425781 78.886719 99.859375 78.21875 100.164062 77.464844 C 100.464844 76.707031 100.617188 75.921875 100.613281 75.109375 Z M 100.613281 75.109375 "/><path style=" stroke:none;fill-rule:nonzero;fill:#ffffff;fill-opacity:1;" d="M 64.523438 101.816406 L 64.441406 101.816406 C 64.117188 101.796875 63.835938 101.679688 63.597656 101.464844 C 63.355469 101.25 63.207031 100.980469 63.152344 100.664062 L 58.847656 75.589844 L 52.332031 87.679688 C 52.191406 87.945312 51.984375 88.140625 51.714844 88.273438 C 51.445312 88.402344 51.160156 88.441406 50.863281 88.386719 C 50.570312 88.335938 50.316406 88.203125 50.109375 87.984375 C 49.898438 87.769531 49.773438 87.515625 49.730469 87.214844 L 46.957031 67.867188 L 41.890625 79.242188 C 41.78125 79.496094 41.609375 79.699219 41.378906 79.847656 C 41.148438 80 40.894531 80.074219 40.617188 80.078125 L 20.933594 80.078125 C 20.746094 80.078125 20.570312 80.042969 20.398438 79.972656 C 20.230469 79.898438 20.078125 79.800781 19.949219 79.667969 C 19.816406 79.539062 19.714844 79.386719 19.644531 79.21875 C 19.574219 79.046875 19.539062 78.871094 19.539062 78.683594 C 19.539062 78.5 19.574219 78.324219 19.644531 78.152344 C 19.714844 77.980469 19.816406 77.832031 19.949219 77.699219 C 20.078125 77.570312 20.230469 77.46875 20.398438 77.398438 C 20.570312 77.328125 20.746094 77.292969 20.933594 77.292969 L 39.714844 77.292969 L 46.382812 62.328125 C 46.507812 62.046875 46.707031 61.828125 46.976562 61.679688 C 47.25 61.527344 47.539062 61.472656 47.84375 61.515625 C 48.152344 61.558594 48.414062 61.691406 48.632812 61.910156 C 48.855469 62.128906 48.984375 62.390625 49.03125 62.699219 L 51.886719 82.648438 L 58.316406 70.726562 C 58.457031 70.464844 58.660156 70.269531 58.925781 70.136719 C 59.195312 70.007812 59.472656 69.964844 59.765625 70.011719 C 60.058594 70.0625 60.3125 70.191406 60.523438 70.398438 C 60.734375 70.609375 60.863281 70.859375 60.914062 71.152344 L 64.898438 94.375 L 79.429688 46.105469 C 79.511719 45.832031 79.664062 45.605469 79.890625 45.425781 C 80.113281 45.242188 80.367188 45.140625 80.652344 45.121094 C 80.941406 45.097656 81.207031 45.15625 81.457031 45.300781 C 81.707031 45.445312 81.890625 45.644531 82.015625 45.902344 L 89.667969 61.746094 C 89.746094 61.910156 89.792969 62.085938 89.800781 62.269531 C 89.8125 62.457031 89.789062 62.632812 89.726562 62.808594 C 89.664062 62.984375 89.574219 63.140625 89.449219 63.277344 C 89.328125 63.414062 89.183594 63.523438 89.015625 63.601562 C 88.851562 63.683594 88.675781 63.730469 88.492188 63.738281 C 88.304688 63.75 88.128906 63.722656 87.953125 63.664062 C 87.777344 63.601562 87.621094 63.511719 87.484375 63.386719 C 87.347656 63.265625 87.238281 63.121094 87.160156 62.953125 L 81.0625 50.332031 L 65.859375 100.832031 C 65.769531 101.125 65.601562 101.363281 65.355469 101.546875 C 65.109375 101.726562 64.832031 101.820312 64.523438 101.816406 Z M 64.523438 101.816406 "/></g></svg>