<svg xmlns="http://www.w3.org/2000/svg" xmlns:xlink="http://www.w3.org/1999/xlink" width="160" zoomAndPan="magnify" viewBox="0 0 120 119.999999" height="160" preserveAspectRatio="xMidYMid meet" version="1.2"><g id="337d8f3040"><rect x="0" width="120" y="0" height="119.999999" style="fill:#ffffff;fill-opacity:1;stroke:none;"/><rect x="0" width="120" y="0" height="119.999999" style="fill:#ffffff;fill-opacity:1;stroke:none;"/><rect x="0" width="120" y="0" height="119.999999" style="fill:#c5192d;fill-opacity:1;stroke:none;"/><path style=" stroke:none;fill-rule:nonzero;fill:#ffffff;fill-opacity:1;" d="M 15.789062 27.855469 L 8.816406 27.855469 L 8.816406 24.453125 L 14.796875 10.289062 L 19.867188 10.289062 L 19.867188 24.539062 L 22.105469 24.539062 L 22.105469 27.855469 L 19.867188 27.855469 L 19.867188 33.238281 L 15.789062 33.238281 Z M 15.789062 24.539062 L 15.789062 14.792969 L 12.273438 24.539062 Z M 31.5 10.273438 L 35.183594 10.273438 L 35.183594 11.398438 L 33.085938 11.398438 L 33.085938 13.921875 L 34.734375 13.921875 L 34.734375 15.039062 L 33.085938 15.039062 L 33.085938 17.953125 L 35.199219 17.953125 L 35.199219 19.046875 L 31.5 19.046875 Z M 36.078125 10.273438 L 38.144531 10.273438 C 40.28125 10.273438 40.929688 11.125 40.929688 13 L 40.929688 16.195312 C 40.929688 18.125 40.261719 19.046875 38.210938 19.046875 L 36.078125 19.046875 Z M 38.167969 17.929688 C 39.261719 17.929688 39.304688 17.34375 39.304688 16.25 L 39.304688 12.894531 C 39.304688 11.839844 39.195312 11.410156 38.136719 11.410156 L 37.667969 11.410156 L 37.667969 17.929688 Z M 42 16.207031 L 42 10.273438 L 43.558594 10.273438 L 43.558594 16.390625 C 43.558594 17.226562 43.65625 17.972656 44.46875 17.972656 C 45.285156 17.972656 45.390625 17.226562 45.390625 16.390625 L 45.390625 10.273438 L 46.941406 10.273438 L 46.941406 16.207031 C 46.941406 18.042969 46.429688 19.164062 44.46875 19.164062 C 42.511719 19.164062 42 18.050781 42 16.207031 Z M 48 16.238281 L 48 13.109375 C 48 11.3125 48.566406 10.167969 50.5 10.167969 C 52.296875 10.167969 52.875 11.167969 52.875 12.691406 L 52.875 13.429688 L 51.332031 13.429688 L 51.332031 12.675781 C 51.332031 11.941406 51.320312 11.34375 50.511719 11.34375 C 49.699219 11.34375 49.609375 11.972656 49.609375 12.773438 L 49.609375 16.578125 C 49.609375 17.53125 49.804688 17.984375 50.511719 17.984375 C 51.300781 17.984375 51.332031 17.367188 51.332031 16.585938 L 51.332031 15.796875 L 52.871094 15.796875 L 52.871094 16.5 C 52.871094 18.050781 52.351562 19.167969 50.5 19.167969 C 48.566406 19.167969 48 17.953125 48 16.238281 Z M 55.238281 10.273438 L 56.953125 10.273438 L 58.707031 19.046875 L 57.222656 19.046875 L 56.875 17.019531 L 55.347656 17.019531 L 55 19.046875 L 53.5 19.046875 Z M 56.703125 16 L 56.105469 12.316406 L 55.511719 16 Z M 62.667969 13.433594 L 62.667969 12.675781 C 62.667969 11.941406 62.65625 11.34375 61.84375 11.34375 C 61.03125 11.34375 60.945312 11.972656 60.945312 12.773438 L 60.945312 16.578125 C 60.945312 17.53125 61.140625 17.984375 61.84375 17.984375 C 62.636719 17.984375 62.667969 17.367188 62.667969 16.585938 L 62.667969 15.796875 L 64.203125 15.796875 L 64.203125 16.5 C 64.203125 17.984375 63.726562 19.078125 62.050781 19.167969 L 62.050781 19.707031 C 62.851562 19.707031 63.394531 20.066406 63.394531 20.738281 C 63.394531 21.507812 62.710938 21.832031 61.921875 21.832031 C 61.65625 21.828125 61.394531 21.789062 61.140625 21.714844 L 61.140625 21.03125 C 61.332031 21.089844 61.527344 21.117188 61.726562 21.117188 C 62.101562 21.117188 62.390625 21.007812 62.390625 20.714844 C 62.390625 20.328125 61.949219 20.183594 61.4375 20.132812 L 61.4375 19.144531 C 59.835938 18.976562 59.335938 17.824219 59.335938 16.242188 L 59.335938 13.109375 C 59.332031 11.3125 59.910156 10.167969 61.832031 10.167969 C 63.632812 10.167969 64.203125 11.167969 64.203125 12.691406 L 64.203125 13.429688 Z M 66.582031 10.273438 L 68.296875 10.273438 L 70.050781 19.046875 L 68.566406 19.046875 L 68.21875 17.019531 L 66.691406 17.019531 L 66.332031 19.046875 L 64.832031 19.046875 Z M 66.917969 8.605469 C 66.636719 8.605469 66.539062 8.773438 66.539062 9.050781 L 65.78125 9.050781 C 65.78125 8.269531 65.996094 7.683594 66.699219 7.683594 C 67.230469 7.683594 67.589844 8.183594 68.054688 8.183594 C 68.304688 8.183594 68.402344 8.035156 68.402344 7.75 L 69.117188 7.75 C 69.117188 8.433594 68.996094 9.117188 68.292969 9.117188 C 67.730469 9.125 67.363281 8.613281 66.917969 8.613281 Z M 68.046875 16 L 67.449219 12.316406 L 66.851562 16 Z M 70.644531 16.296875 L 70.644531 13 C 70.644531 11.222656 71.296875 10.167969 73.179688 10.167969 C 75.066406 10.167969 75.703125 11.21875 75.703125 13 L 75.703125 16.296875 C 75.703125 18.058594 75.054688 19.164062 73.179688 19.164062 C 71.304688 19.164062 70.644531 18.070312 70.644531 16.296875 Z M 74.078125 16.667969 L 74.078125 12.632812 C 74.078125 11.898438 73.960938 11.34375 73.179688 11.34375 C 72.398438 11.34375 72.269531 11.898438 72.269531 12.632812 L 72.269531 16.667969 C 72.269531 17.394531 72.390625 17.976562 73.179688 17.976562 C 73.96875 17.976562 74.078125 17.398438 74.078125 16.667969 Z M 31.5 24.605469 L 33.570312 24.605469 C 35.703125 24.605469 36.351562 25.460938 36.351562 27.335938 L 36.351562 30.53125 C 36.351562 32.457031 35.6875 33.378906 33.636719 33.378906 L 31.5 33.378906 Z M 33.589844 32.273438 C 34.683594 32.273438 34.726562 31.6875 34.726562 30.59375 L 34.726562 27.226562 C 34.726562 26.175781 34.621094 25.742188 33.5625 25.742188 L 33.085938 25.742188 L 33.085938 32.261719 Z M 37.472656 24.605469 L 41.15625 24.605469 L 41.15625 25.730469 L 39.066406 25.730469 L 39.066406 28.253906 L 40.714844 28.253906 L 40.714844 29.371094 L 39.066406 29.371094 L 39.066406 32.285156 L 41.179688 32.285156 L 41.179688 33.378906 L 37.472656 33.378906 Z M 47.214844 33.488281 C 47.152344 33.496094 47.089844 33.5 47.027344 33.5 C 45.132812 33.5 44.5 32.40625 44.5 30.628906 L 44.5 27.332031 C 44.5 25.558594 45.148438 24.5 47.035156 24.5 C 48.921875 24.5 49.558594 25.550781 49.558594 27.332031 L 49.558594 30.625 C 49.558594 31.882812 49.226562 32.816406 48.347656 33.226562 C 48.597656 33.550781 48.890625 33.832031 49.222656 34.070312 L 48.921875 35.132812 C 48.382812 34.886719 47.648438 34.136719 47.214844 33.488281 Z M 47.9375 31 L 47.9375 26.964844 C 47.9375 26.230469 47.808594 25.675781 47.027344 25.675781 C 46.25 25.675781 46.117188 26.230469 46.117188 26.964844 L 46.117188 31 C 46.117188 31.726562 46.238281 32.3125 47.027344 32.3125 C 47.816406 32.3125 47.9375 31.734375 47.9375 31 Z M 50.625 30.542969 L 50.625 24.605469 L 52.183594 24.605469 L 52.183594 30.726562 C 52.183594 31.558594 52.285156 32.308594 53.09375 32.308594 C 53.90625 32.308594 54.015625 31.558594 54.015625 30.726562 L 54.015625 24.605469 L 55.566406 24.605469 L 55.566406 30.542969 C 55.566406 32.382812 55.058594 33.5 53.09375 33.5 C 51.132812 33.5 50.625 32.382812 50.625 30.542969 Z M 58.035156 24.605469 L 59.746094 24.605469 L 61.5 33.378906 L 60.015625 33.378906 L 59.667969 31.351562 L 58.136719 31.351562 L 57.78125 33.378906 L 56.28125 33.378906 Z M 59.5 30.332031 L 58.902344 26.648438 L 58.308594 30.332031 Z M 62.332031 24.605469 L 63.925781 24.605469 L 63.925781 32.285156 L 66.058594 32.285156 L 66.058594 33.378906 L 62.332031 33.378906 Z M 66.875 24.605469 L 68.457031 24.605469 L 68.457031 33.378906 L 66.875 33.378906 Z M 69.757812 24.605469 L 71.832031 24.605469 C 73.964844 24.605469 74.617188 25.460938 74.617188 27.335938 L 74.617188 30.53125 C 74.617188 32.457031 73.949219 33.378906 71.898438 33.378906 L 69.757812 33.378906 Z M 71.847656 32.273438 C 72.941406 32.273438 72.984375 31.6875 72.984375 30.59375 L 72.984375 27.226562 C 72.984375 26.175781 72.875 25.742188 71.816406 25.742188 L 71.351562 25.742188 L 71.351562 32.261719 Z M 76.984375 24.605469 L 78.695312 24.605469 L 80.449219 33.378906 L 78.964844 33.378906 L 78.617188 31.351562 L 77.089844 31.351562 L 76.734375 33.378906 L 75.234375 33.378906 Z M 78.445312 30.332031 L 77.851562 26.648438 L 77.253906 30.332031 Z M 81.273438 24.605469 L 83.339844 24.605469 C 85.476562 24.605469 86.125 25.460938 86.125 27.335938 L 86.125 30.53125 C 86.125 32.457031 85.460938 33.378906 83.40625 33.378906 L 81.273438 33.378906 Z M 83.363281 32.273438 C 84.457031 32.273438 84.5 31.6875 84.5 30.59375 L 84.5 27.226562 C 84.5 26.175781 84.394531 25.742188 83.339844 25.742188 L 82.863281 25.742188 L 82.863281 32.261719 Z M 87.25 24.605469 L 90.933594 24.605469 L 90.933594 25.730469 L 88.84375 25.730469 L 88.84375 28.253906 L 90.5 28.253906 L 90.5 29.371094 L 88.851562 29.371094 L 88.851562 32.285156 L 90.964844 32.285156 L 90.964844 33.378906 L 87.25 33.378906 Z M 53.160156 64.375 L 31.472656 51.851562 L 31.472656 92.363281 L 53.160156 98.902344 Z M 55.546875 64.457031 L 55.546875 98.917969 L 77.371094 92.355469 L 77.371094 51.855469 Z M 89.898438 91.644531 L 89.261719 91.644531 L 91.828125 100.609375 L 94.394531 91.644531 L 93.757812 91.644531 L 94.394531 91.644531 L 94.394531 55.601562 L 89.261719 55.601562 L 89.261719 91.644531 Z M 89.898438 91.644531 "/><path style=" stroke:none;fill-rule:nonzero;fill:#ffffff;fill-opacity:1;" d="M 82.027344 53.59375 L 79.703125 51.757812 L 79.703125 93.460938 L 55.609375 101.246094 L 53.160156 101.246094 L 29.171875 94.542969 L 29.171875 51.757812 L 26.84375 53.59375 L 26.84375 96.175781 L 53.050781 103.429688 L 55.71875 103.429688 L 79.894531 95.753906 L 82.027344 95.125 Z M 94.394531 50.832031 C 94.402344 50.488281 94.34375 50.152344 94.21875 49.832031 C 94.09375 49.507812 93.910156 49.222656 93.667969 48.976562 C 93.425781 48.726562 93.144531 48.539062 92.828125 48.402344 C 92.507812 48.269531 92.175781 48.199219 91.828125 48.199219 C 91.484375 48.199219 91.152344 48.269531 90.832031 48.402344 C 90.511719 48.539062 90.234375 48.726562 89.992188 48.976562 C 89.75 49.222656 89.566406 49.507812 89.441406 49.832031 C 89.3125 50.152344 89.253906 50.488281 89.261719 50.832031 L 89.261719 53.601562 L 94.394531 53.601562 Z M 94.394531 50.832031 "/></g></svg>