<svg xmlns="http://www.w3.org/2000/svg" xmlns:xlink="http://www.w3.org/1999/xlink" width="160" zoomAndPan="magnify" viewBox="0 0 120 119.999999" height="160" preserveAspectRatio="xMidYMid meet" version="1.2"><g id="bd0b2798bb"><rect x="0" width="120" y="0" height="119.999999" style="fill:#ffffff;fill-opacity:1;stroke:none;"/><rect x="0" width="120" y="0" height="119.999999" style="fill:#ffffff;fill-opacity:1;stroke:none;"/><rect x="0" width="120" y="0" height="119.999999" style="fill:#ff3a21;fill-opacity:1;stroke:none;"/><path style=" stroke:none;fill-rule:nonzero;fill:#ffffff;fill-opacity:1;" d="M 9.273438 26.578125 L 13.523438 26.578125 C 13.523438 29.101562 13.832031 30.414062 15.421875 30.347656 C 17.085938 30.292969 17.175781 28.421875 17.175781 25.417969 C 17.175781 22.980469 16.921875 21.25 15.222656 21.25 C 14.203125 21.25 13.554688 21.960938 13.265625 23.320312 L 9.5 23.320312 L 9.8125 10.285156 L 20.351562 10.285156 L 20.351562 14.058594 L 13.378906 14.058594 L 13.152344 19.128906 C 13.605469 18.5625 14.769531 18.109375 16.042969 18.023438 C 19.585938 17.710938 21.3125 20.523438 21.3125 25.21875 C 21.3125 30.09375 20.378906 33.605469 15.164062 33.605469 C 10.320312 33.605469 9.273438 30.832031 9.273438 26.578125 Z M 31.535156 10.273438 L 33.117188 10.273438 L 33.117188 19.046875 L 31.535156 19.046875 Z M 34.277344 16.152344 L 34.277344 13.207031 C 34.277344 11.320312 34.851562 10.171875 36.777344 10.171875 C 38.578125 10.171875 39.207031 11.105469 39.207031 12.730469 L 39.207031 13.183594 L 37.679688 13.183594 L 37.679688 12.683594 C 37.679688 11.839844 37.589844 11.339844 36.800781 11.339844 C 35.953125 11.339844 35.890625 12.023438 35.890625 12.828125 L 35.890625 16.5 C 35.890625 17.410156 36.058594 17.984375 36.84375 17.984375 C 37.628906 17.984375 37.808594 17.378906 37.808594 16.425781 L 37.808594 15.601562 L 36.867188 15.601562 L 36.867188 14.601562 L 39.25 14.601562 L 39.25 19.054688 L 38.210938 19.054688 L 38.101562 18.199219 C 37.992188 18.507812 37.796875 18.753906 37.523438 18.933594 C 37.246094 19.113281 36.945312 19.195312 36.617188 19.171875 C 34.886719 19.167969 34.277344 18 34.277344 16.152344 Z M 40.355469 16.207031 L 40.355469 10.273438 L 41.914062 10.273438 L 41.914062 16.390625 C 41.914062 17.226562 42.011719 17.972656 42.824219 17.972656 C 43.636719 17.972656 43.746094 17.226562 43.746094 16.390625 L 43.746094 10.273438 L 45.296875 10.273438 L 45.296875 16.207031 C 45.296875 18.042969 44.796875 19.164062 42.824219 19.164062 C 40.855469 19.164062 40.355469 18.050781 40.355469 16.207031 Z M 47.765625 10.273438 L 49.476562 10.273438 L 51.230469 19.046875 L 49.75 19.046875 L 49.402344 17.019531 L 47.875 17.019531 L 47.515625 19.046875 L 46.015625 19.046875 Z M 49.226562 16 L 48.632812 12.316406 L 48.035156 16 Z M 52.054688 10.273438 L 53.648438 10.273438 L 53.648438 17.953125 L 55.78125 17.953125 L 55.78125 19.046875 L 52.054688 19.046875 Z M 56.5625 10.273438 L 58.632812 10.273438 C 60.765625 10.273438 61.414062 11.125 61.414062 13 L 61.414062 16.195312 C 61.414062 18.125 60.75 19.046875 58.695312 19.046875 L 56.5625 19.046875 Z M 58.652344 17.929688 C 59.746094 17.929688 59.789062 17.34375 59.789062 16.25 L 59.789062 12.894531 C 59.789062 11.839844 59.683594 11.410156 58.632812 11.410156 L 58.15625 11.410156 L 58.15625 17.929688 Z M 63.789062 10.273438 L 65.5 10.273438 L 67.253906 19.046875 L 65.769531 19.046875 L 65.421875 17.019531 L 63.898438 17.019531 L 63.539062 19.046875 L 62.039062 19.046875 Z M 65.25 16 L 64.65625 12.316406 L 64.058594 16 Z M 68.078125 10.273438 L 70.148438 10.273438 C 72.28125 10.273438 72.933594 11.125 72.933594 13 L 72.933594 16.195312 C 72.933594 18.125 72.265625 19.046875 70.210938 19.046875 L 68.078125 19.046875 Z M 70.167969 17.929688 C 71.261719 17.929688 71.304688 17.34375 71.304688 16.25 L 71.304688 12.894531 C 71.304688 11.839844 71.195312 11.410156 70.136719 11.410156 L 69.667969 11.410156 L 69.667969 17.929688 Z M 74.058594 10.273438 L 77.742188 10.273438 L 77.742188 11.398438 L 75.648438 11.398438 L 75.648438 13.921875 L 77.296875 13.921875 L 77.296875 15.039062 L 75.648438 15.039062 L 75.648438 17.953125 L 77.761719 17.953125 L 77.761719 19.046875 L 74.058594 19.046875 Z M 31.5 24.605469 L 33.570312 24.605469 C 35.703125 24.605469 36.355469 25.460938 36.355469 27.335938 L 36.355469 30.53125 C 36.355469 32.457031 35.6875 33.378906 33.636719 33.378906 L 31.5 33.378906 Z M 33.589844 32.273438 C 34.683594 32.273438 34.730469 31.6875 34.730469 30.59375 L 34.730469 27.226562 C 34.730469 26.175781 34.621094 25.742188 33.5625 25.742188 L 33.085938 25.742188 L 33.085938 32.261719 Z M 37.472656 24.605469 L 41.15625 24.605469 L 41.15625 25.730469 L 39.066406 25.730469 L 39.066406 28.253906 L 40.714844 28.253906 L 40.714844 29.371094 L 39.066406 29.371094 L 39.066406 32.285156 L 41.179688 32.285156 L 41.179688 33.378906 L 37.472656 33.378906 Z M 44.5 30.488281 L 44.5 27.539062 C 44.5 25.65625 45.074219 24.507812 47 24.507812 C 48.796875 24.507812 49.425781 25.4375 49.425781 27.0625 L 49.425781 27.519531 L 47.898438 27.519531 L 47.898438 27.019531 C 47.898438 26.171875 47.8125 25.675781 47.023438 25.675781 C 46.175781 25.675781 46.113281 26.359375 46.113281 27.160156 L 46.113281 30.828125 C 46.113281 31.738281 46.277344 32.3125 47.066406 32.3125 C 47.851562 32.3125 48.027344 31.703125 48.027344 30.75 L 48.027344 29.929688 L 47.082031 29.929688 L 47.082031 28.921875 L 49.464844 28.921875 L 49.464844 33.375 L 48.425781 33.375 L 48.316406 32.515625 C 48.078125 33.078125 47.652344 33.492188 46.832031 33.492188 C 45.101562 33.5 44.5 32.332031 44.5 30.488281 Z M 50.636719 24.605469 L 54.320312 24.605469 L 54.320312 25.730469 L 52.226562 25.730469 L 52.226562 28.253906 L 53.875 28.253906 L 53.875 29.371094 L 52.226562 29.371094 L 52.226562 32.285156 L 54.339844 32.285156 L 54.339844 33.378906 L 50.636719 33.378906 Z M 51.832031 21.917969 L 53.167969 21.917969 L 54.167969 23.917969 L 53.074219 23.917969 L 52.511719 22.617188 L 51.957031 23.917969 L 50.875 23.917969 Z M 55.21875 24.605469 L 56.332031 24.605469 L 58.464844 29.605469 L 58.464844 24.605469 L 59.789062 24.605469 L 59.789062 33.378906 L 58.726562 33.378906 L 56.582031 28.136719 L 56.582031 33.378906 L 55.21875 33.378906 Z M 61.066406 24.605469 L 64.75 24.605469 L 64.75 25.730469 L 62.667969 25.730469 L 62.667969 28.253906 L 64.3125 28.253906 L 64.3125 29.371094 L 62.667969 29.371094 L 62.667969 32.285156 L 64.777344 32.285156 L 64.777344 33.378906 L 61.066406 33.378906 Z M 65.652344 24.605469 L 67.761719 24.605469 C 69.519531 24.605469 70.515625 25.167969 70.515625 26.9375 C 70.515625 27.988281 70.253906 28.726562 69.433594 29.0625 L 70.65625 33.386719 L 69.054688 33.386719 L 68 29.359375 L 67.242188 29.359375 L 67.242188 33.378906 L 65.648438 33.378906 Z M 67.753906 28.363281 C 68.671875 28.363281 69.011719 27.964844 69.011719 27.019531 C 69.011719 26.132812 68.761719 25.699219 67.84375 25.699219 L 67.246094 25.699219 L 67.246094 28.363281 Z M 71.488281 30.628906 L 71.488281 27.332031 C 71.488281 25.558594 72.140625 24.5 74.023438 24.5 C 75.910156 24.5 76.550781 25.550781 76.550781 27.332031 L 76.550781 30.625 C 76.550781 32.390625 75.898438 33.496094 74.023438 33.496094 C 72.148438 33.496094 71.488281 32.40625 71.488281 30.628906 Z M 74.925781 31 L 74.925781 26.964844 C 74.925781 26.230469 74.804688 25.675781 74.023438 25.675781 C 73.246094 25.675781 73.113281 26.230469 73.113281 26.964844 L 73.113281 31 C 73.113281 31.726562 73.234375 32.3125 74.023438 32.3125 C 74.816406 32.3125 74.925781 31.734375 74.925781 31 Z M 87.613281 45.296875 L 72.585938 45.296875 C 72.460938 45.296875 72.394531 45.359375 72.394531 45.484375 L 72.394531 50.484375 C 72.394531 50.613281 72.460938 50.675781 72.585938 50.675781 L 78.570312 50.675781 L 71.925781 57.316406 C 71.203125 56.75 70.445312 56.234375 69.652344 55.773438 C 68.859375 55.3125 68.035156 54.910156 67.183594 54.5625 C 66.335938 54.21875 65.464844 53.933594 64.574219 53.707031 C 63.683594 53.484375 62.78125 53.324219 61.867188 53.226562 C 60.953125 53.128906 60.039062 53.09375 59.121094 53.125 C 58.203125 53.15625 57.292969 53.25 56.386719 53.40625 C 55.484375 53.566406 54.59375 53.785156 53.71875 54.070312 C 52.847656 54.351562 51.996094 54.695312 51.171875 55.09375 C 50.34375 55.496094 49.550781 55.953125 48.789062 56.46875 C 48.027344 56.980469 47.304688 57.542969 46.625 58.15625 C 45.941406 58.773438 45.304688 59.429688 44.714844 60.132812 C 44.121094 60.835938 43.585938 61.578125 43.097656 62.355469 C 42.609375 63.136719 42.179688 63.945312 41.808594 64.785156 C 41.433594 65.621094 41.121094 66.484375 40.867188 67.367188 C 40.617188 68.25 40.425781 69.144531 40.296875 70.054688 C 40.171875 70.964844 40.109375 71.878906 40.109375 72.796875 C 40.109375 82.796875 47.59375 91.058594 57.25 92.308594 L 57.25 98.0625 L 51.324219 98.0625 C 51.195312 98.0625 51.128906 98.125 51.128906 98.253906 L 51.128906 103.605469 C 51.128906 103.738281 51.191406 103.800781 51.324219 103.796875 L 57.25 103.796875 L 57.25 109.464844 C 57.25 109.59375 57.3125 109.65625 57.441406 109.65625 L 62.792969 109.65625 C 62.921875 109.65625 62.984375 109.59375 62.984375 109.464844 L 62.984375 103.796875 L 68.910156 103.796875 C 69.039062 103.796875 69.101562 103.734375 69.101562 103.605469 L 69.101562 98.253906 C 69.101562 98.125 69.039062 98.0625 68.910156 98.0625 L 62.984375 98.0625 L 62.984375 92.214844 C 63.394531 92.148438 63.800781 92.070312 64.203125 91.976562 C 64.609375 91.882812 65.007812 91.777344 65.40625 91.660156 C 65.804688 91.542969 66.195312 91.414062 66.585938 91.269531 C 66.976562 91.125 67.359375 90.972656 67.738281 90.804688 C 68.117188 90.636719 68.492188 90.457031 68.859375 90.265625 C 69.226562 90.078125 69.589844 89.875 69.945312 89.660156 C 70.296875 89.445312 70.648438 89.222656 70.988281 88.988281 C 71.328125 88.75 71.660156 88.503906 71.988281 88.246094 C 72.3125 87.992188 72.628906 87.722656 72.9375 87.449219 C 73.246094 87.171875 73.546875 86.882812 73.835938 86.589844 C 74.125 86.292969 74.40625 85.988281 74.679688 85.675781 C 74.949219 85.363281 75.210938 85.039062 75.460938 84.710938 C 75.710938 84.378906 75.953125 84.042969 76.183594 83.699219 C 76.410156 83.351562 76.628906 83 76.835938 82.640625 C 77.042969 82.28125 77.238281 81.917969 77.425781 81.546875 C 77.609375 81.175781 77.78125 80.796875 77.941406 80.414062 C 78.101562 80.035156 78.25 79.648438 78.386719 79.253906 C 78.519531 78.863281 78.644531 78.46875 78.753906 78.070312 C 78.867188 77.667969 78.964844 77.265625 79.050781 76.859375 C 79.136719 76.457031 79.207031 76.046875 79.265625 75.636719 C 79.328125 75.226562 79.375 74.816406 79.40625 74.402344 C 79.441406 73.988281 79.460938 73.574219 79.46875 73.160156 C 79.476562 72.746094 79.46875 72.332031 79.453125 71.917969 C 79.433594 71.503906 79.402344 71.089844 79.355469 70.679688 C 79.3125 70.269531 79.253906 69.859375 79.183594 69.449219 C 79.113281 69.039062 79.027344 68.636719 78.929688 68.230469 C 78.835938 67.828125 78.726562 67.429688 78.605469 67.03125 C 78.484375 66.636719 78.347656 66.246094 78.203125 65.855469 C 78.054688 65.46875 77.898438 65.085938 77.726562 64.710938 C 77.554688 64.332031 77.371094 63.960938 77.179688 63.59375 C 76.984375 63.226562 76.777344 62.867188 76.5625 62.515625 C 76.34375 62.160156 76.117188 61.816406 75.878906 61.476562 L 82.429688 54.925781 L 82.429688 60.515625 C 82.429688 60.644531 82.492188 60.707031 82.621094 60.703125 L 87.613281 60.703125 C 87.742188 60.707031 87.804688 60.644531 87.808594 60.515625 L 87.808594 45.484375 C 87.804688 45.355469 87.742188 45.292969 87.613281 45.296875 M 59.792969 87.285156 C 58.839844 87.285156 57.898438 87.191406 56.964844 87.007812 C 56.03125 86.820312 55.125 86.546875 54.246094 86.183594 C 53.367188 85.820312 52.53125 85.371094 51.742188 84.84375 C 50.949219 84.316406 50.21875 83.714844 49.546875 83.042969 C 48.875 82.371094 48.273438 81.636719 47.742188 80.847656 C 47.214844 80.054688 46.769531 79.222656 46.40625 78.34375 C 46.039062 77.464844 45.765625 76.558594 45.582031 75.625 C 45.394531 74.691406 45.300781 73.75 45.300781 72.796875 C 45.300781 71.847656 45.394531 70.902344 45.578125 69.972656 C 45.765625 69.039062 46.039062 68.132812 46.402344 67.253906 C 46.769531 66.375 47.214844 65.539062 47.742188 64.75 C 48.269531 63.957031 48.871094 63.226562 49.542969 62.550781 C 50.21875 61.878906 50.949219 61.277344 51.738281 60.75 C 52.53125 60.222656 53.367188 59.777344 54.246094 59.410156 C 55.125 59.046875 56.03125 58.773438 56.960938 58.585938 C 57.894531 58.402344 58.839844 58.308594 59.789062 58.308594 C 60.742188 58.308594 61.683594 58.402344 62.617188 58.585938 C 63.550781 58.773438 64.457031 59.046875 65.335938 59.410156 C 66.214844 59.773438 67.046875 60.222656 67.839844 60.75 C 68.628906 61.277344 69.363281 61.878906 70.035156 62.550781 C 70.707031 63.222656 71.308594 63.957031 71.835938 64.746094 C 72.363281 65.539062 72.8125 66.375 73.175781 67.253906 C 73.539062 68.132812 73.8125 69.035156 74 69.96875 C 74.183594 70.902344 74.277344 71.84375 74.277344 72.796875 C 74.277344 73.746094 74.183594 74.691406 74 75.621094 C 73.8125 76.554688 73.535156 77.460938 73.171875 78.339844 C 72.808594 79.21875 72.363281 80.050781 71.832031 80.84375 C 71.304688 81.632812 70.703125 82.363281 70.03125 83.039062 C 69.359375 83.710938 68.628906 84.308594 67.835938 84.839844 C 67.046875 85.367188 66.210938 85.8125 65.332031 86.179688 C 64.457031 86.542969 63.550781 86.816406 62.617188 87.003906 C 61.683594 87.191406 60.742188 87.285156 59.792969 87.285156 "/><path style=" stroke:none;fill-rule:nonzero;fill:#ffffff;fill-opacity:1;" d="M 68.640625 66.851562 L 51.066406 66.851562 C 50.949219 66.84375 50.886719 66.898438 50.875 67.015625 L 50.875 71.269531 C 50.882812 71.394531 50.945312 71.453125 51.066406 71.445312 L 68.640625 71.445312 C 68.765625 71.453125 68.832031 71.394531 68.835938 71.269531 L 68.835938 67.023438 C 68.824219 66.902344 68.757812 66.847656 68.640625 66.855469 M 68.640625 74.445312 L 51.066406 74.445312 C 50.945312 74.441406 50.882812 74.5 50.875 74.625 L 50.875 78.875 C 50.886719 78.996094 50.949219 79.050781 51.066406 79.042969 L 68.640625 79.042969 C 68.761719 79.050781 68.824219 78.996094 68.835938 78.875 L 68.835938 74.625 C 68.828125 74.5 68.765625 74.441406 68.640625 74.445312 "/></g></svg>