<svg xmlns="http://www.w3.org/2000/svg" xmlns:xlink="http://www.w3.org/1999/xlink" width="160" zoomAndPan="magnify" viewBox="0 0 120 119.999999" height="160" preserveAspectRatio="xMidYMid meet" version="1.2"><g id="754ecbd2e5"><rect x="0" width="120" y="0" height="119.999999" style="fill:#ffffff;fill-opacity:1;stroke:none;"/><rect x="0" width="120" y="0" height="119.999999" style="fill:#ffffff;fill-opacity:1;stroke:none;"/><rect x="0" width="120" y="0" height="119.999999" style="fill:#26bde2;fill-opacity:1;stroke:none;"/><path style=" stroke:none;fill-rule:nonzero;fill:#ffffff;fill-opacity:1;" d="M 9.527344 26.011719 L 9.527344 17.847656 C 9.527344 13.375 10.773438 10 15.703125 10 C 19.925781 10 21.484375 12.066406 21.511719 15.808594 L 21.511719 16.203125 L 17.375 16.203125 C 17.375 14.277344 17.175781 13.34375 15.730469 13.34375 C 14.34375 13.34375 13.976562 14.449219 13.976562 17.988281 L 13.976562 20.3125 C 14.457031 19.492188 15.5625 19.011719 16.921875 18.980469 C 20.578125 18.921875 21.878906 21.785156 21.878906 25.582031 C 21.878906 30.257812 20.40625 33.542969 15.730469 33.542969 C 11.332031 33.550781 9.527344 30.347656 9.527344 26.011719 Z M 17.488281 26.332031 C 17.488281 24.011719 17.433594 22.332031 15.730469 22.332031 C 15.367188 22.34375 15.03125 22.441406 14.71875 22.628906 C 14.40625 22.816406 14.15625 23.066406 13.976562 23.382812 L 13.976562 27.035156 C 13.976562 28.761719 14.34375 30.292969 15.761719 30.292969 C 17.203125 30.292969 17.488281 28.847656 17.488281 26.332031 Z M 32.804688 10.273438 L 34.515625 10.273438 L 36.273438 19.046875 L 34.789062 19.046875 L 34.441406 17.019531 L 32.914062 17.019531 L 32.554688 19.046875 L 31.054688 19.046875 Z M 34.265625 16 L 33.667969 12.316406 L 33.074219 16 Z M 33.875 7.5 L 35.375 7.5 L 34.082031 9.667969 L 33.226562 9.667969 Z M 36.867188 16.152344 L 36.867188 13.207031 C 36.867188 11.320312 37.441406 10.171875 39.367188 10.171875 C 41.164062 10.171875 41.792969 11.105469 41.792969 12.730469 L 41.792969 13.183594 L 40.265625 13.183594 L 40.265625 12.683594 C 40.265625 11.839844 40.179688 11.339844 39.386719 11.339844 C 38.542969 11.339844 38.476562 12.023438 38.476562 12.828125 L 38.476562 16.5 C 38.476562 17.410156 38.644531 17.984375 39.433594 17.984375 C 40.21875 17.984375 40.394531 17.378906 40.394531 16.425781 L 40.394531 15.601562 L 39.453125 15.601562 L 39.453125 14.601562 L 41.832031 14.601562 L 41.832031 19.054688 L 40.800781 19.054688 L 40.691406 18.199219 C 40.453125 18.761719 40.023438 19.171875 39.207031 19.171875 C 37.472656 19.167969 36.867188 18 36.867188 16.152344 Z M 42.945312 16.207031 L 42.945312 10.273438 L 44.5 10.273438 L 44.5 16.390625 C 44.5 17.226562 44.597656 17.972656 45.410156 17.972656 C 46.222656 17.972656 46.328125 17.226562 46.328125 16.390625 L 46.328125 10.273438 L 47.878906 10.273438 L 47.878906 16.207031 C 47.878906 18.042969 47.371094 19.164062 45.410156 19.164062 C 43.449219 19.164062 42.945312 18.050781 42.945312 16.207031 Z M 50.355469 10.273438 L 52.066406 10.273438 L 53.820312 19.046875 L 52.332031 19.046875 L 51.988281 17.019531 L 50.460938 17.019531 L 50.101562 19.046875 L 48.601562 19.046875 Z M 51.816406 16 L 51.222656 12.316406 L 50.625 16 Z M 57.222656 10.273438 L 59.800781 10.273438 C 61.371094 10.273438 62.042969 11.183594 62.042969 12.761719 C 62.042969 14.484375 61.113281 15.148438 59.691406 15.148438 L 58.816406 15.148438 L 58.816406 19.046875 L 57.222656 19.046875 Z M 59.433594 14.019531 C 60.308594 14.019531 60.539062 13.6875 60.539062 12.75 C 60.539062 11.816406 60.417969 11.398438 59.433594 11.398438 L 58.816406 11.398438 L 58.816406 14.019531 Z M 62.738281 16.296875 L 62.738281 13 C 62.738281 11.222656 63.386719 10.167969 65.273438 10.167969 C 67.15625 10.167969 67.796875 11.21875 67.796875 13 L 67.796875 16.296875 C 67.796875 18.058594 67.148438 19.164062 65.273438 19.164062 C 63.398438 19.164062 62.738281 18.070312 62.738281 16.296875 Z M 66.167969 16.667969 L 66.167969 12.632812 C 66.167969 11.898438 66.046875 11.34375 65.265625 11.34375 C 64.488281 11.34375 64.355469 11.898438 64.355469 12.632812 L 64.355469 16.667969 C 64.355469 17.394531 64.476562 17.976562 65.265625 17.976562 C 66.058594 17.976562 66.167969 17.398438 66.167969 16.667969 Z M 69.757812 11.453125 L 68.359375 11.453125 L 68.359375 10.273438 L 72.726562 10.273438 L 72.726562 11.453125 L 71.359375 11.453125 L 71.359375 19.046875 L 69.757812 19.046875 Z M 74.566406 10.273438 L 76.277344 10.273438 L 78.035156 19.046875 L 76.550781 19.046875 L 76.203125 17.019531 L 74.675781 17.019531 L 74.316406 19.046875 L 72.816406 19.046875 Z M 76.03125 16 L 75.433594 12.316406 L 74.832031 16 Z M 75.640625 7.5 L 77.140625 7.5 L 75.851562 9.667969 L 74.996094 9.667969 Z M 78.121094 10.273438 L 79.527344 10.273438 L 80.695312 16.476562 L 81.789062 10.273438 L 83.230469 10.273438 L 81.464844 19.046875 L 79.890625 19.046875 Z M 84.066406 10.273438 L 87.75 10.273438 L 87.75 11.398438 L 85.667969 11.398438 L 85.667969 13.921875 L 87.3125 13.921875 L 87.3125 15.039062 L 85.667969 15.039062 L 85.667969 17.953125 L 87.78125 17.953125 L 87.78125 19.046875 L 84.066406 19.046875 Z M 88.648438 10.273438 L 90.242188 10.273438 L 90.242188 17.953125 L 92.375 17.953125 L 92.375 19.046875 L 88.648438 19.046875 Z M 31.5 24.605469 L 35.183594 24.605469 L 35.183594 25.730469 L 33.085938 25.730469 L 33.085938 28.253906 L 34.734375 28.253906 L 34.734375 29.371094 L 33.085938 29.371094 L 33.085938 32.285156 L 35.199219 32.285156 L 35.199219 33.378906 L 31.5 33.378906 Z M 38.4375 30.824219 L 39.8125 30.550781 C 39.855469 31.589844 40.105469 32.261719 40.8125 32.261719 C 41.324219 32.261719 41.539062 31.917969 41.539062 31.441406 C 41.539062 30.683594 41.148438 30.261719 40.574219 29.761719 L 39.46875 28.796875 C 38.839844 28.253906 38.453125 27.648438 38.453125 26.671875 C 38.453125 25.285156 39.316406 24.507812 40.714844 24.507812 C 42.363281 24.507812 42.828125 25.613281 42.917969 26.890625 L 41.539062 27.128906 C 41.507812 26.304688 41.386719 25.6875 40.683594 25.6875 C 40.207031 25.6875 39.945312 26.046875 39.945312 26.511719 C 39.945312 27.105469 40.195312 27.433594 40.660156 27.832031 L 41.757812 28.796875 C 42.472656 29.414062 43.066406 30.183594 43.066406 31.34375 C 43.066406 32.609375 42.179688 33.5 40.867188 33.5 C 39.261719 33.5 38.5 32.566406 38.4375 30.824219 Z M 45.21875 24.605469 L 46.933594 24.605469 L 48.6875 33.378906 L 47.203125 33.378906 L 46.855469 31.351562 L 45.332031 31.351562 L 44.976562 33.378906 L 43.476562 33.378906 Z M 46.683594 30.332031 L 46.085938 26.648438 L 45.488281 30.332031 Z M 49.511719 24.605469 L 50.625 24.605469 L 52.761719 29.605469 L 52.761719 24.605469 L 54.082031 24.605469 L 54.082031 33.378906 L 53.019531 33.378906 L 50.875 28.136719 L 50.875 33.378906 L 49.511719 33.378906 Z M 55.359375 24.605469 L 59.042969 24.605469 L 59.042969 25.730469 L 56.953125 25.730469 L 56.953125 28.253906 L 58.597656 28.253906 L 58.597656 29.371094 L 56.953125 29.371094 L 56.953125 32.285156 L 59.066406 32.285156 L 59.066406 33.378906 L 55.359375 33.378906 Z M 61.253906 24.605469 L 62.964844 24.605469 L 64.71875 33.378906 L 63.234375 33.378906 L 62.886719 31.351562 L 61.363281 31.351562 L 61 33.378906 L 59.5 33.378906 Z M 62.714844 30.332031 L 62.121094 26.648438 L 61.523438 30.332031 Z M 65.667969 24.605469 L 67.332031 24.605469 L 68.578125 30.683594 L 69.867188 24.605469 L 71.484375 24.605469 L 71.648438 33.378906 L 70.449219 33.378906 L 70.320312 27.28125 L 69.074219 33.378906 L 68.109375 33.378906 L 66.84375 27.257812 L 66.722656 33.378906 L 65.523438 33.378906 Z M 72.886719 24.605469 L 76.570312 24.605469 L 76.570312 25.730469 L 74.480469 25.730469 L 74.480469 28.253906 L 76.125 28.253906 L 76.125 29.371094 L 74.480469 29.371094 L 74.480469 32.285156 L 76.59375 32.285156 L 76.59375 33.378906 L 72.886719 33.378906 Z M 77.46875 24.605469 L 78.585938 24.605469 L 80.71875 29.605469 L 80.71875 24.605469 L 82.042969 24.605469 L 82.042969 33.378906 L 80.980469 33.378906 L 78.832031 28.136719 L 78.832031 33.378906 L 77.46875 33.378906 Z M 84.199219 25.785156 L 82.800781 25.785156 L 82.800781 24.605469 L 87.167969 24.605469 L 87.167969 25.785156 L 85.800781 25.785156 L 85.800781 33.378906 L 84.199219 33.378906 Z M 87.726562 30.628906 L 87.726562 27.332031 C 87.726562 25.558594 88.378906 24.5 90.261719 24.5 C 92.148438 24.5 92.789062 25.550781 92.789062 27.332031 L 92.789062 30.625 C 92.789062 32.390625 92.136719 33.496094 90.261719 33.496094 C 88.386719 33.496094 87.726562 32.40625 87.726562 30.628906 Z M 91.167969 31 L 91.167969 26.964844 C 91.167969 26.230469 91.046875 25.675781 90.265625 25.675781 C 89.484375 25.675781 89.359375 26.230469 89.359375 26.964844 L 89.359375 31 C 89.359375 31.726562 89.476562 32.3125 90.265625 32.3125 C 91.058594 32.3125 91.167969 31.734375 91.167969 31 Z M 82.269531 48.433594 C 82.160156 48.320312 82.027344 48.265625 81.871094 48.269531 L 38 48.269531 C 37.84375 48.265625 37.710938 48.320312 37.605469 48.433594 C 37.507812 48.558594 37.472656 48.695312 37.496094 48.851562 L 44.863281 93.421875 C 44.886719 93.546875 44.941406 93.648438 45.039062 93.730469 C 45.132812 93.808594 45.242188 93.851562 45.363281 93.851562 L 54.410156 93.851562 L 55.027344 101.113281 L 51.222656 101.113281 L 60.078125 109.96875 L 68.957031 101.09375 L 65.152344 101.09375 L 65.769531 93.847656 L 74.972656 93.847656 C 75.101562 93.847656 75.210938 93.804688 75.304688 93.722656 C 75.402344 93.640625 75.457031 93.535156 75.472656 93.410156 L 82.367188 48.84375 C 82.394531 48.691406 82.359375 48.554688 82.269531 48.433594 Z M 65.316406 84.121094 C 64.605469 84.769531 63.792969 85.253906 62.882812 85.570312 C 61.976562 85.886719 61.039062 86.011719 60.078125 85.945312 C 59.117188 86.011719 58.183594 85.886719 57.273438 85.570312 C 56.363281 85.253906 55.554688 84.769531 54.839844 84.121094 C 51.554688 80.835938 52.726562 76.75 53.871094 74.640625 C 54.578125 73.316406 59.625 65.738281 60.0625 65.089844 L 60.0625 65.039062 L 60.078125 65.066406 L 60.097656 65.039062 L 60.097656 65.089844 C 60.523438 65.738281 65.578125 73.316406 66.285156 74.640625 C 67.429688 76.75 68.597656 80.832031 65.316406 84.121094 Z M 79.230469 57.8125 C 78.042969 57.289062 76.535156 57.480469 75.089844 58.066406 C 69.644531 60.273438 65.941406 61.066406 60.214844 59.273438 C 56.609375 58.144531 53.238281 55.78125 49.25 57.21875 C 46.605469 58.171875 44.136719 59.078125 41.148438 59.050781 L 39.421875 50.191406 L 80.472656 50.191406 Z M 79.230469 57.8125 "/></g></svg>