<svg xmlns="http://www.w3.org/2000/svg" xmlns:xlink="http://www.w3.org/1999/xlink" width="160" zoomAndPan="magnify" viewBox="0 0 120 119.999999" height="160" preserveAspectRatio="xMidYMid meet" version="1.2"><g id="d9d216fcb3"><rect x="0" width="120" y="0" height="119.999999" style="fill:#ffffff;fill-opacity:1;stroke:none;"/><rect x="0" width="120" y="0" height="119.999999" style="fill:#ffffff;fill-opacity:1;stroke:none;"/><rect x="0" width="120" y="0" height="119.999999" style="fill:#fcc30b;fill-opacity:1;stroke:none;"/><path style=" stroke:none;fill-rule:nonzero;fill:#ffffff;fill-opacity:1;" d="M 14.851562 13.632812 L 8.621094 13.632812 L 8.621094 10.289062 L 19.132812 10.289062 L 19.132812 13.148438 L 14.285156 33.238281 L 10.035156 33.238281 Z M 30 10.273438 L 33.683594 10.273438 L 33.683594 11.398438 L 31.585938 11.398438 L 31.585938 13.921875 L 33.230469 13.921875 L 33.230469 15.039062 L 31.585938 15.039062 L 31.585938 17.953125 L 33.699219 17.953125 L 33.699219 19.046875 L 30 19.046875 Z M 34.414062 10.273438 L 35.527344 10.273438 L 37.664062 15.273438 L 37.664062 10.273438 L 38.984375 10.273438 L 38.984375 19.046875 L 37.921875 19.046875 L 35.777344 13.804688 L 35.777344 19.046875 L 34.414062 19.046875 Z M 40.101562 10.273438 L 43.785156 10.273438 L 43.785156 11.398438 L 41.691406 11.398438 L 41.691406 13.921875 L 43.332031 13.921875 L 43.332031 15.039062 L 41.6875 15.039062 L 41.6875 17.953125 L 43.796875 17.953125 L 43.796875 19.046875 L 40.101562 19.046875 Z M 44.519531 10.273438 L 46.632812 10.273438 C 48.386719 10.273438 49.386719 10.835938 49.386719 12.605469 C 49.386719 13.65625 49.125 14.394531 48.300781 14.726562 L 49.523438 19.050781 L 47.921875 19.050781 L 46.871094 15.03125 L 46.113281 15.03125 L 46.113281 19.050781 L 44.519531 19.050781 Z M 46.621094 14.03125 C 47.542969 14.03125 47.878906 13.628906 47.878906 12.6875 C 47.878906 11.796875 47.628906 11.363281 46.710938 11.363281 L 46.117188 11.363281 L 46.117188 14.03125 Z M 50.195312 16.152344 L 50.195312 13.207031 C 50.195312 11.320312 50.773438 10.171875 52.695312 10.171875 C 54.496094 10.171875 55.125 11.105469 55.125 12.730469 L 55.125 13.183594 L 53.59375 13.183594 L 53.59375 12.683594 C 53.59375 11.839844 53.507812 11.339844 52.71875 11.339844 C 51.875 11.339844 51.808594 12.023438 51.808594 12.828125 L 51.808594 16.5 C 51.808594 17.410156 51.976562 17.984375 52.761719 17.984375 C 53.546875 17.984375 53.726562 17.378906 53.726562 16.425781 L 53.726562 15.601562 L 52.785156 15.601562 L 52.785156 14.601562 L 55.167969 14.601562 L 55.167969 19.054688 L 54.125 19.054688 L 54.019531 18.199219 C 53.78125 18.761719 53.351562 19.171875 52.535156 19.171875 C 50.804688 19.167969 50.195312 18 50.195312 16.152344 Z M 56.21875 10.273438 L 57.800781 10.273438 L 57.800781 19.046875 L 56.21875 19.046875 Z M 60.25 10.273438 L 61.960938 10.273438 L 63.714844 19.046875 L 62.234375 19.046875 L 61.886719 17.019531 L 60.359375 17.019531 L 60 19.046875 L 58.5 19.046875 Z M 61.714844 16 L 61.117188 12.316406 L 60.523438 16 Z M 66.792969 10.273438 L 68.386719 10.273438 L 68.386719 17.953125 L 70.519531 17.953125 L 70.519531 19.046875 L 66.792969 19.046875 Z M 71.179688 10.273438 L 72.761719 10.273438 L 72.761719 19.046875 L 71.179688 19.046875 Z M 74.03125 10.273438 L 75.6875 10.273438 L 76.933594 16.347656 L 78.222656 10.273438 L 79.832031 10.273438 L 80 19.046875 L 78.808594 19.046875 L 78.679688 12.945312 L 77.433594 19.046875 L 76.464844 19.046875 L 75.199219 12.925781 L 75.078125 19.046875 L 73.878906 19.046875 Z M 81.082031 10.273438 L 83.667969 10.273438 C 85.238281 10.273438 85.910156 11.183594 85.910156 12.761719 C 85.910156 14.484375 84.976562 15.148438 83.558594 15.148438 L 82.683594 15.148438 L 82.683594 19.046875 L 81.089844 19.046875 Z M 83.292969 14.019531 C 84.171875 14.019531 84.398438 13.6875 84.398438 12.75 C 84.398438 11.816406 84.277344 11.398438 83.292969 11.398438 L 82.675781 11.398438 L 82.675781 14.019531 Z M 87.429688 10.273438 L 89.140625 10.273438 L 90.898438 19.046875 L 89.414062 19.046875 L 89.066406 17.019531 L 87.539062 17.019531 L 87.183594 19.046875 L 85.683594 19.046875 Z M 88.894531 16 L 88.296875 12.316406 L 87.703125 16 Z M 30 24.605469 L 33.683594 24.605469 L 33.683594 25.730469 L 31.585938 25.730469 L 31.585938 28.253906 L 33.230469 28.253906 L 33.230469 29.371094 L 31.585938 29.371094 L 31.585938 32.285156 L 33.699219 32.285156 L 33.699219 33.378906 L 30 33.378906 Z M 38.140625 24.605469 L 39.851562 24.605469 L 41.605469 33.378906 L 40.121094 33.378906 L 39.773438 31.351562 L 38.25 31.351562 L 37.890625 33.378906 L 36.390625 33.378906 Z M 39.601562 30.332031 L 39 26.652344 L 38.410156 30.332031 Z M 42.039062 30.574219 L 42.039062 27.441406 C 42.039062 25.644531 42.613281 24.507812 44.539062 24.507812 C 46.339844 24.507812 46.914062 25.507812 46.914062 27.03125 L 46.914062 27.769531 L 45.375 27.769531 L 45.375 27.011719 C 45.375 26.273438 45.363281 25.675781 44.550781 25.675781 C 43.738281 25.675781 43.652344 26.304688 43.652344 27.105469 L 43.652344 30.910156 C 43.652344 31.863281 43.847656 32.316406 44.550781 32.316406 C 45.339844 32.316406 45.375 31.699219 45.375 30.921875 L 45.375 30.128906 L 46.914062 30.128906 L 46.914062 30.832031 C 46.914062 32.382812 46.394531 33.5 44.539062 33.5 C 42.613281 33.5 42.039062 32.285156 42.039062 30.574219 Z M 47.8125 24.605469 L 51.5 24.605469 L 51.5 25.730469 L 49.40625 25.730469 L 49.40625 28.253906 L 51.054688 28.253906 L 51.054688 29.371094 L 49.40625 29.371094 L 49.40625 32.285156 L 51.519531 32.285156 L 51.519531 33.378906 L 47.8125 33.378906 Z M 52.015625 30.824219 L 53.394531 30.550781 C 53.4375 31.589844 53.683594 32.261719 54.394531 32.261719 C 54.902344 32.261719 55.117188 31.917969 55.117188 31.441406 C 55.117188 30.683594 54.726562 30.261719 54.15625 29.761719 L 53.050781 28.796875 C 52.421875 28.253906 52.03125 27.648438 52.03125 26.671875 C 52.03125 25.285156 52.898438 24.507812 54.296875 24.507812 C 55.941406 24.507812 56.410156 25.613281 56.496094 26.890625 L 55.117188 27.128906 C 55.085938 26.304688 54.964844 25.6875 54.261719 25.6875 C 53.785156 25.6875 53.527344 26.046875 53.527344 26.511719 C 53.527344 27.105469 53.773438 27.433594 54.242188 27.832031 L 55.335938 28.796875 C 56.050781 29.414062 56.648438 30.183594 56.648438 31.34375 C 56.648438 32.609375 55.757812 33.5 54.445312 33.5 C 52.832031 33.5 52.082031 32.566406 52.015625 30.824219 Z M 57.066406 30.824219 L 58.441406 30.550781 C 58.484375 31.589844 58.734375 32.261719 59.441406 32.261719 C 59.953125 32.261719 60.167969 31.917969 60.167969 31.441406 C 60.167969 30.683594 59.777344 30.261719 59.203125 29.761719 L 58.097656 28.796875 C 57.46875 28.253906 57.078125 27.648438 57.078125 26.671875 C 57.078125 25.285156 57.945312 24.507812 59.34375 24.507812 C 60.992188 24.507812 61.457031 25.613281 61.546875 26.890625 L 60.167969 27.128906 C 60.136719 26.304688 60.015625 25.6875 59.3125 25.6875 C 58.835938 25.6875 58.574219 26.046875 58.574219 26.511719 C 58.574219 27.105469 58.824219 27.433594 59.289062 27.832031 L 60.382812 28.796875 C 61.097656 29.414062 61.695312 30.183594 61.695312 31.34375 C 61.695312 32.609375 60.808594 33.5 59.496094 33.5 C 57.886719 33.5 57.128906 32.566406 57.066406 30.824219 Z M 62.460938 24.605469 L 64.042969 24.605469 L 64.042969 33.378906 L 62.460938 33.378906 Z M 63.460938 21.832031 L 64.960938 21.832031 L 63.667969 24 L 62.8125 24 Z M 64.765625 24.605469 L 66.175781 24.605469 L 67.339844 30.8125 L 68.433594 24.605469 L 69.875 24.605469 L 68.109375 33.378906 L 66.535156 33.378906 Z M 70.550781 24.605469 L 74.234375 24.605469 L 74.234375 25.730469 L 72.144531 25.730469 L 72.144531 28.253906 L 73.792969 28.253906 L 73.792969 29.371094 L 72.144531 29.371094 L 72.144531 32.285156 L 74.257812 32.285156 L 74.257812 33.378906 L 70.550781 33.378906 Z M 74.972656 24.605469 L 76.566406 24.605469 L 76.566406 32.285156 L 78.699219 32.285156 L 78.699219 33.378906 L 74.972656 33.378906 Z M 60.042969 58.457031 C 59.460938 58.457031 58.882812 58.488281 58.304688 58.542969 C 57.726562 58.601562 57.15625 58.683594 56.585938 58.796875 C 56.015625 58.910156 55.453125 59.050781 54.898438 59.21875 C 54.34375 59.390625 53.796875 59.585938 53.261719 59.804688 C 52.722656 60.027344 52.199219 60.277344 51.6875 60.550781 C 51.175781 60.824219 50.679688 61.121094 50.195312 61.445312 C 49.714844 61.765625 49.246094 62.113281 48.796875 62.480469 C 48.351562 62.847656 47.921875 63.238281 47.507812 63.648438 C 47.097656 64.058594 46.710938 64.488281 46.339844 64.9375 C 45.972656 65.386719 45.628906 65.851562 45.304688 66.332031 C 44.980469 66.816406 44.683594 67.3125 44.410156 67.824219 C 44.136719 68.335938 43.890625 68.859375 43.667969 69.398438 C 43.445312 69.933594 43.25 70.480469 43.082031 71.035156 C 42.910156 71.589844 42.769531 72.152344 42.65625 72.722656 C 42.542969 73.292969 42.460938 73.863281 42.402344 74.441406 C 42.34375 75.019531 42.316406 75.597656 42.316406 76.179688 C 42.316406 76.761719 42.34375 77.339844 42.402344 77.917969 C 42.457031 78.496094 42.542969 79.070312 42.65625 79.636719 C 42.769531 80.207031 42.910156 80.769531 43.078125 81.324219 C 43.246094 81.878906 43.441406 82.425781 43.664062 82.964844 C 43.886719 83.5 44.136719 84.023438 44.410156 84.535156 C 44.683594 85.046875 44.980469 85.542969 45.304688 86.027344 C 45.625 86.511719 45.972656 86.976562 46.339844 87.425781 C 46.707031 87.875 47.097656 88.304688 47.507812 88.714844 C 47.917969 89.125 48.347656 89.511719 48.796875 89.882812 C 49.246094 90.25 49.710938 90.59375 50.191406 90.917969 C 50.675781 91.242188 51.171875 91.539062 51.683594 91.8125 C 52.195312 92.085938 52.722656 92.332031 53.257812 92.554688 C 53.792969 92.777344 54.339844 92.972656 54.894531 93.140625 C 55.449219 93.308594 56.011719 93.449219 56.582031 93.5625 C 57.152344 93.675781 57.726562 93.761719 58.300781 93.820312 C 58.878906 93.875 59.460938 93.90625 60.039062 93.90625 C 60.621094 93.90625 61.199219 93.875 61.777344 93.820312 C 62.355469 93.761719 62.929688 93.675781 63.496094 93.5625 C 64.066406 93.449219 64.628906 93.308594 65.183594 93.140625 C 65.742188 92.972656 66.285156 92.777344 66.824219 92.554688 C 67.359375 92.332031 67.882812 92.085938 68.394531 91.8125 C 68.90625 91.539062 69.40625 91.242188 69.886719 90.917969 C 70.371094 90.59375 70.835938 90.25 71.285156 89.882812 C 71.734375 89.511719 72.164062 89.125 72.574219 88.714844 C 72.984375 88.304688 73.371094 87.875 73.742188 87.425781 C 74.109375 86.976562 74.453125 86.511719 74.777344 86.027344 C 75.097656 85.542969 75.398438 85.046875 75.671875 84.535156 C 75.945312 84.023438 76.191406 83.5 76.414062 82.964844 C 76.636719 82.425781 76.832031 81.878906 77 81.324219 C 77.167969 80.769531 77.308594 80.207031 77.421875 79.636719 C 77.535156 79.070312 77.621094 78.496094 77.679688 77.917969 C 77.734375 77.339844 77.761719 76.761719 77.761719 76.179688 C 77.761719 75.601562 77.734375 75.019531 77.679688 74.441406 C 77.621094 73.867188 77.535156 73.292969 77.421875 72.722656 C 77.308594 72.152344 77.167969 71.589844 77 71.035156 C 76.832031 70.480469 76.636719 69.933594 76.414062 69.398438 C 76.191406 68.863281 75.945312 68.339844 75.671875 67.828125 C 75.398438 67.316406 75.097656 66.816406 74.777344 66.335938 C 74.453125 65.851562 74.109375 65.386719 73.742188 64.9375 C 73.371094 64.488281 72.984375 64.058594 72.574219 63.648438 C 72.164062 63.238281 71.734375 62.851562 71.285156 62.480469 C 70.835938 62.113281 70.371094 61.769531 69.886719 61.445312 C 69.40625 61.125 68.910156 60.824219 68.398438 60.550781 C 67.886719 60.277344 67.359375 60.03125 66.824219 59.808594 C 66.289062 59.585938 65.742188 59.390625 65.1875 59.222656 C 64.632812 59.054688 64.070312 58.914062 63.5 58.800781 C 62.929688 58.6875 62.359375 58.601562 61.78125 58.542969 C 61.203125 58.488281 60.625 58.457031 60.042969 58.457031 M 58.730469 65.457031 C 58.730469 64.867188 59.324219 64.21875 60.050781 64.21875 C 60.78125 64.21875 61.363281 64.867188 61.363281 65.457031 L 61.363281 71.542969 C 61.363281 72.128906 60.777344 72.773438 60.050781 72.773438 C 59.328125 72.773438 58.730469 72.128906 58.730469 71.542969 Z M 60.046875 85.261719 C 59.5 85.257812 58.957031 85.210938 58.417969 85.113281 C 57.882812 85.015625 57.355469 84.875 56.84375 84.683594 C 56.332031 84.492188 55.839844 84.257812 55.371094 83.980469 C 54.898438 83.703125 54.457031 83.386719 54.042969 83.03125 C 53.625 82.671875 53.246094 82.28125 52.902344 81.859375 C 52.558594 81.433594 52.253906 80.984375 51.988281 80.503906 C 51.722656 80.027344 51.503906 79.53125 51.324219 79.011719 C 51.148438 78.496094 51.019531 77.964844 50.9375 77.425781 C 50.855469 76.882812 50.824219 76.339844 50.835938 75.792969 C 50.851562 75.25 50.914062 74.707031 51.023438 74.171875 C 51.136719 73.636719 51.292969 73.117188 51.496094 72.609375 C 51.699219 72.101562 51.945312 71.617188 52.238281 71.152344 C 52.527344 70.6875 52.855469 70.253906 53.222656 69.847656 C 53.589844 69.445312 53.988281 69.074219 54.421875 68.742188 C 54.855469 68.40625 55.3125 68.113281 55.796875 67.859375 C 56.28125 67.609375 56.785156 67.402344 57.308594 67.238281 L 57.308594 70.667969 C 56.90625 70.871094 56.535156 71.117188 56.1875 71.402344 C 55.839844 71.691406 55.53125 72.011719 55.257812 72.367188 C 54.980469 72.722656 54.75 73.105469 54.5625 73.515625 C 54.371094 73.921875 54.230469 74.347656 54.136719 74.789062 C 54.042969 75.226562 54 75.671875 54.003906 76.121094 C 54.011719 76.570312 54.066406 77.015625 54.167969 77.453125 C 54.273438 77.890625 54.425781 78.308594 54.625 78.714844 C 54.824219 79.117188 55.0625 79.492188 55.347656 79.84375 C 55.628906 80.195312 55.949219 80.507812 56.300781 80.785156 C 56.652344 81.066406 57.035156 81.300781 57.441406 81.496094 C 57.84375 81.6875 58.269531 81.835938 58.707031 81.933594 C 59.144531 82.035156 59.589844 82.082031 60.039062 82.082031 C 60.488281 82.082031 60.933594 82.035156 61.371094 81.933594 C 61.8125 81.835938 62.234375 81.6875 62.640625 81.496094 C 63.042969 81.300781 63.425781 81.066406 63.777344 80.785156 C 64.128906 80.507812 64.449219 80.195312 64.730469 79.84375 C 65.015625 79.492188 65.253906 79.117188 65.453125 78.714844 C 65.652344 78.308594 65.804688 77.890625 65.910156 77.453125 C 66.011719 77.015625 66.066406 76.570312 66.074219 76.121094 C 66.078125 75.671875 66.035156 75.226562 65.941406 74.789062 C 65.847656 74.347656 65.707031 73.921875 65.515625 73.515625 C 65.328125 73.105469 65.097656 72.722656 64.820312 72.367188 C 64.546875 72.011719 64.238281 71.691406 63.890625 71.402344 C 63.542969 71.117188 63.171875 70.871094 62.769531 70.667969 L 62.769531 67.238281 C 63.292969 67.398438 63.796875 67.605469 64.28125 67.855469 C 64.769531 68.109375 65.230469 68.398438 65.664062 68.734375 C 66.097656 69.066406 66.496094 69.4375 66.867188 69.839844 C 67.234375 70.246094 67.5625 70.679688 67.855469 71.144531 C 68.144531 71.605469 68.394531 72.09375 68.597656 72.601562 C 68.800781 73.105469 68.960938 73.628906 69.070312 74.164062 C 69.183594 74.699219 69.246094 75.242188 69.261719 75.789062 C 69.277344 76.335938 69.242188 76.878906 69.160156 77.421875 C 69.078125 77.960938 68.949219 78.492188 68.773438 79.007812 C 68.597656 79.527344 68.378906 80.027344 68.113281 80.503906 C 67.847656 80.984375 67.542969 81.433594 67.199219 81.859375 C 66.851562 82.285156 66.472656 82.675781 66.058594 83.03125 C 65.644531 83.386719 65.199219 83.707031 64.730469 83.984375 C 64.257812 84.261719 63.765625 84.496094 63.253906 84.6875 C 62.738281 84.875 62.214844 85.019531 61.675781 85.117188 C 61.136719 85.214844 60.59375 85.261719 60.046875 85.261719 M 39.703125 76.023438 C 39.703125 75.222656 38.988281 74.570312 38.339844 74.570312 L 30.578125 74.570312 C 29.925781 74.570312 29.207031 75.222656 29.207031 76.023438 C 29.207031 76.828125 29.925781 77.484375 30.578125 77.484375 L 38.332031 77.484375 C 38.984375 77.484375 39.695312 76.828125 39.695312 76.023438 M 90.890625 76.023438 C 90.890625 75.222656 90.175781 74.570312 89.527344 74.570312 L 81.765625 74.570312 C 81.113281 74.570312 80.394531 75.222656 80.394531 76.023438 C 80.394531 76.828125 81.113281 77.484375 81.765625 77.484375 L 89.527344 77.484375 C 90.175781 77.484375 90.890625 76.828125 90.890625 76.023438 "/><path style=" stroke:none;fill-rule:nonzero;fill:#ffffff;fill-opacity:1;" d="M 60.050781 106.867188 C 60.851562 106.867188 61.503906 106.15625 61.503906 105.507812 L 61.503906 97.746094 C 61.503906 97.09375 60.851562 96.375 60.050781 96.375 C 59.25 96.375 58.589844 97.09375 58.589844 97.746094 L 58.589844 105.5 C 58.589844 106.148438 59.246094 106.863281 60.050781 106.863281 M 86.816406 91.34375 C 87.214844 90.648438 86.921875 89.726562 86.355469 89.40625 L 79.621094 85.550781 C 79.054688 85.226562 78.105469 85.433594 77.707031 86.132812 C 77.308594 86.832031 77.605469 87.757812 78.175781 88.082031 L 84.910156 91.933594 C 85.472656 92.257812 86.410156 92.042969 86.816406 91.34375 M 44.730469 102.796875 C 45.429688 103.195312 46.347656 102.898438 46.671875 102.335938 L 50.523438 95.601562 C 50.859375 95.035156 50.640625 94.085938 49.941406 93.6875 C 49.246094 93.289062 48.316406 93.585938 47.996094 94.152344 L 44.140625 100.886719 C 43.816406 101.453125 44.03125 102.386719 44.730469 102.796875 M 75.425781 102.761719 C 76.121094 102.363281 76.328125 101.421875 76.007812 100.855469 L 72.136719 94.128906 C 71.804688 93.5625 70.890625 93.265625 70.191406 93.664062 C 69.496094 94.066406 69.285156 95.015625 69.613281 95.582031 L 73.480469 102.308594 C 73.804688 102.875 74.726562 103.164062 75.425781 102.761719 M 33.316406 91.40625 C 33.714844 92.101562 34.648438 92.308594 35.21875 91.988281 L 41.945312 88.117188 C 42.511719 87.785156 42.8125 86.871094 42.410156 86.171875 C 42.011719 85.476562 41.058594 85.265625 40.496094 85.589844 L 33.765625 89.460938 C 33.203125 89.785156 32.914062 90.707031 33.316406 91.40625 M 60.050781 55.683594 C 60.851562 55.683594 61.503906 54.96875 61.503906 54.320312 L 61.503906 46.558594 C 61.503906 45.90625 60.851562 45.1875 60.050781 45.1875 C 59.25 45.1875 58.589844 45.90625 58.589844 46.558594 L 58.589844 54.320312 C 58.589844 54.96875 59.246094 55.683594 60.050781 55.683594 M 42.390625 65.917969 C 42.789062 65.222656 42.496094 64.304688 41.933594 63.980469 L 35.195312 60.125 C 34.628906 59.792969 33.683594 60.007812 33.28125 60.703125 C 32.882812 61.402344 33.183594 62.328125 33.75 62.65625 L 40.484375 66.511719 C 41.046875 66.832031 41.984375 66.617188 42.390625 65.917969 M 70.15625 58.371094 C 70.855469 58.769531 71.773438 58.476562 72.09375 57.910156 L 75.949219 51.175781 C 76.273438 50.609375 76.066406 49.660156 75.371094 49.261719 C 74.671875 48.863281 73.746094 49.160156 73.421875 49.726562 L 69.566406 56.464844 C 69.242188 57.027344 69.457031 57.972656 70.15625 58.371094 M 49.910156 58.386719 C 50.601562 57.988281 50.8125 57.046875 50.488281 56.484375 L 46.621094 49.753906 C 46.289062 49.1875 45.375 48.890625 44.675781 49.292969 C 43.980469 49.691406 43.769531 50.640625 44.09375 51.207031 L 47.964844 57.933594 C 48.296875 58.5 49.207031 58.789062 49.910156 58.386719 M 77.6875 65.886719 C 78.089844 66.582031 79.03125 66.792969 79.59375 66.46875 L 86.320312 62.601562 C 86.886719 62.269531 87.1875 61.351562 86.785156 60.65625 C 86.386719 59.957031 85.4375 59.75 84.867188 60.074219 L 78.140625 63.941406 C 77.578125 64.265625 77.285156 65.191406 77.6875 65.886719 "/></g></svg>