<svg xmlns="http://www.w3.org/2000/svg" xmlns:xlink="http://www.w3.org/1999/xlink" width="160" zoomAndPan="magnify" viewBox="0 0 120 119.999999" height="160" preserveAspectRatio="xMidYMid meet" version="1.2"><g id="4fa5285331"><rect x="0" width="120" y="0" height="119.999999" style="fill:#ffffff;fill-opacity:1;stroke:none;"/><rect x="0" width="120" y="0" height="119.999999" style="fill:#ffffff;fill-opacity:1;stroke:none;"/><rect x="0" width="120" y="0" height="119.999999" style="fill:#a21942;fill-opacity:1;stroke:none;"/><path style=" stroke:none;fill-rule:nonzero;fill:#ffffff;fill-opacity:1;" d="M 9.1875 26.5 C 9.214844 24.035156 10.09375 22.078125 11.878906 21.167969 C 10.632812 20.261719 9.582031 18.667969 9.527344 16.125 C 9.46875 12.332031 11.453125 10 15.332031 10 C 19.214844 10 21.167969 12.351562 21.085938 16.121094 C 21.027344 18.699219 20.035156 20.285156 18.789062 21.164062 C 20.546875 22.070312 21.457031 24.023438 21.480469 26.496094 C 21.566406 30.691406 19.894531 33.578125 15.332031 33.578125 C 10.800781 33.578125 9.167969 30.6875 9.1875 26.5 Z M 17.175781 26.785156 C 17.203125 24.949219 16.976562 23.101562 15.34375 23.101562 C 13.726562 23.101562 13.472656 24.941406 13.472656 26.785156 C 13.464844 28.332031 13.667969 30.320312 15.332031 30.320312 C 17 30.320312 17.175781 28.308594 17.175781 26.777344 Z M 16.949219 15.984375 C 16.949219 14.398438 16.441406 13.292969 15.335938 13.292969 C 14.203125 13.292969 13.667969 14.398438 13.667969 15.984375 C 13.667969 18.191406 14.148438 19.523438 15.335938 19.523438 C 16.5 19.523438 16.949219 18.191406 16.949219 15.984375 Z M 31.035156 11.453125 L 29.640625 11.453125 L 29.640625 10.273438 L 34 10.273438 L 34 11.453125 L 32.636719 11.453125 L 32.636719 19.046875 L 31.03125 19.046875 Z M 34.523438 10.273438 L 36.636719 10.273438 C 38.394531 10.273438 39.390625 10.835938 39.390625 12.605469 C 39.390625 13.65625 39.128906 14.394531 38.308594 14.726562 L 39.53125 19.050781 L 37.925781 19.050781 L 36.875 15.03125 L 36.117188 15.03125 L 36.117188 19.050781 L 34.523438 19.050781 Z M 36.625 14.03125 C 37.546875 14.03125 37.882812 13.628906 37.882812 12.6875 C 37.882812 11.796875 37.636719 11.363281 36.714844 11.363281 L 36.121094 11.363281 L 36.121094 14.03125 Z M 41.632812 10.273438 L 43.34375 10.273438 L 45.097656 19.046875 L 43.613281 19.046875 L 43.269531 17.019531 L 41.738281 17.019531 L 41.382812 19.046875 L 39.882812 19.046875 Z M 43.09375 16 L 42.5 12.316406 L 41.902344 16 Z M 45.695312 10.273438 L 47.863281 10.273438 C 49.398438 10.273438 50.429688 10.792969 50.429688 12.523438 C 50.429688 13.597656 49.984375 14.191406 49.160156 14.324219 C 50.191406 14.519531 50.679688 15.253906 50.679688 16.488281 C 50.679688 18.167969 49.855469 19.046875 48.230469 19.046875 L 45.695312 19.046875 Z M 47.832031 13.855469 C 48.785156 13.855469 49.035156 13.433594 49.035156 12.546875 C 49.035156 11.613281 48.578125 11.378906 47.605469 11.378906 L 47.28125 11.378906 L 47.28125 13.855469 Z M 47.898438 17.921875 C 48.875 17.921875 49.144531 17.464844 49.144531 16.476562 C 49.144531 15.4375 48.796875 14.960938 47.84375 14.960938 L 47.28125 14.960938 L 47.28125 17.921875 Z M 52.746094 10.273438 L 54.457031 10.273438 L 56.214844 19.046875 L 54.730469 19.046875 L 54.382812 17.019531 L 52.855469 17.019531 L 52.5 19.046875 L 51 19.046875 Z M 54.210938 16 L 53.613281 12.316406 L 53.019531 16 Z M 56.808594 10.273438 L 58.402344 10.273438 L 58.402344 17.953125 L 60.535156 17.953125 L 60.535156 19.046875 L 56.808594 19.046875 Z M 61.109375 10.273438 L 62.703125 10.273438 L 62.703125 13.9375 L 64.488281 13.9375 L 64.488281 10.273438 L 66.09375 10.273438 L 66.09375 19.046875 L 64.488281 19.046875 L 64.488281 15.082031 L 62.703125 15.082031 L 62.703125 19.046875 L 61.109375 19.046875 Z M 67.011719 16.296875 L 67.011719 13 C 67.011719 11.222656 67.664062 10.167969 69.550781 10.167969 C 71.4375 10.167969 72.074219 11.21875 72.074219 13 L 72.074219 16.296875 C 72.074219 18.058594 71.421875 19.164062 69.550781 19.164062 C 67.675781 19.164062 67.011719 18.070312 67.011719 16.296875 Z M 70.449219 16.667969 L 70.449219 12.632812 C 70.449219 11.898438 70.328125 11.34375 69.550781 11.34375 C 68.769531 11.34375 68.640625 11.898438 68.640625 12.632812 L 68.640625 16.667969 C 68.640625 17.394531 68.757812 17.976562 69.550781 17.976562 C 70.339844 17.976562 70.449219 17.398438 70.449219 16.667969 Z M 75.324219 10.273438 L 77.390625 10.273438 C 79.527344 10.273438 80.175781 11.125 80.175781 13 L 80.175781 16.195312 C 80.175781 18.125 79.511719 19.046875 77.457031 19.046875 L 75.324219 19.046875 Z M 77.414062 17.929688 C 78.507812 17.929688 78.550781 17.34375 78.550781 16.25 L 78.550781 12.894531 C 78.550781 11.839844 78.441406 11.410156 77.386719 11.410156 L 76.910156 11.410156 L 76.910156 17.929688 Z M 81.074219 10.273438 L 84.757812 10.273438 L 84.757812 11.398438 L 82.667969 11.398438 L 82.667969 13.921875 L 84.3125 13.921875 L 84.3125 15.039062 L 82.667969 15.039062 L 82.667969 17.953125 L 84.777344 17.953125 L 84.777344 19.046875 L 81.074219 19.046875 Z M 85.289062 16.238281 L 85.289062 13.109375 C 85.289062 11.3125 85.863281 10.171875 87.789062 10.171875 C 89.589844 10.167969 90.167969 11.167969 90.167969 12.699219 L 90.167969 13.433594 L 88.628906 13.433594 L 88.628906 12.675781 C 88.628906 11.941406 88.617188 11.34375 87.804688 11.34375 C 86.992188 11.34375 86.90625 11.972656 86.90625 12.773438 L 86.90625 16.578125 C 86.90625 17.53125 87.101562 17.984375 87.804688 17.984375 C 88.59375 17.984375 88.628906 17.367188 88.628906 16.585938 L 88.628906 15.796875 L 90.167969 15.796875 L 90.167969 16.5 C 90.167969 18.050781 89.648438 19.167969 87.792969 19.167969 C 85.863281 19.167969 85.289062 17.953125 85.289062 16.238281 Z M 91 10.273438 L 94.683594 10.273438 L 94.683594 11.398438 L 92.589844 11.398438 L 92.589844 13.921875 L 94.238281 13.921875 L 94.238281 15.039062 L 92.589844 15.039062 L 92.589844 17.953125 L 94.703125 17.953125 L 94.703125 19.046875 L 91 19.046875 Z M 95.351562 10.273438 L 96.46875 10.273438 L 98.601562 15.273438 L 98.601562 10.273438 L 99.925781 10.273438 L 99.925781 19.046875 L 98.863281 19.046875 L 96.71875 13.804688 L 96.71875 19.046875 L 95.351562 19.046875 Z M 101.851562 11.453125 L 100.457031 11.453125 L 100.457031 10.273438 L 104.820312 10.273438 L 104.820312 11.453125 L 103.457031 11.453125 L 103.457031 19.046875 L 101.851562 19.046875 Z M 105.339844 10.273438 L 109.023438 10.273438 L 109.023438 11.398438 L 106.933594 11.398438 L 106.933594 13.921875 L 108.582031 13.921875 L 108.582031 15.039062 L 106.933594 15.039062 L 106.933594 17.953125 L 109.046875 17.953125 L 109.046875 19.046875 L 105.339844 19.046875 Z M 30.167969 24.605469 L 33.851562 24.605469 L 33.851562 25.730469 L 31.75 25.730469 L 31.75 28.253906 L 33.398438 28.253906 L 33.398438 29.371094 L 31.75 29.371094 L 31.75 32.285156 L 33.863281 32.285156 L 33.863281 33.378906 L 30.167969 33.378906 Z M 36.726562 30.574219 L 36.726562 27.441406 C 36.726562 25.644531 37.296875 24.507812 39.226562 24.507812 C 41.023438 24.507812 41.597656 25.507812 41.597656 27.03125 L 41.597656 27.769531 L 40.058594 27.769531 L 40.058594 27.011719 C 40.058594 26.273438 40.046875 25.675781 39.238281 25.675781 C 38.425781 25.675781 38.335938 26.304688 38.335938 27.105469 L 38.335938 30.910156 C 38.335938 31.863281 38.53125 32.316406 39.238281 32.316406 C 40.027344 32.316406 40.058594 31.699219 40.058594 30.921875 L 40.058594 30.128906 L 41.597656 30.128906 L 41.597656 30.832031 C 41.597656 32.382812 41.078125 33.5 39.226562 33.5 C 37.296875 33.5 36.726562 32.285156 36.726562 30.574219 Z M 42.433594 24.605469 L 44.546875 24.605469 C 46.300781 24.605469 47.296875 25.167969 47.296875 26.9375 C 47.296875 27.988281 47.039062 28.726562 46.214844 29.0625 L 47.4375 33.386719 L 45.832031 33.386719 L 44.785156 29.363281 L 44.023438 29.363281 L 44.023438 33.386719 L 42.433594 33.386719 Z M 44.535156 28.363281 C 45.457031 28.363281 45.792969 27.964844 45.792969 27.019531 C 45.792969 26.132812 45.542969 25.699219 44.625 25.699219 L 44.03125 25.699219 L 44.03125 28.363281 Z M 48.230469 24.605469 L 51.914062 24.605469 L 51.914062 25.730469 L 49.820312 25.730469 L 49.820312 28.253906 L 51.46875 28.253906 L 51.46875 29.371094 L 49.820312 29.371094 L 49.820312 32.285156 L 51.933594 32.285156 L 51.933594 33.378906 L 48.230469 33.378906 Z M 52.367188 30.824219 L 53.742188 30.550781 C 53.785156 31.589844 54.035156 32.261719 54.742188 32.261719 C 55.253906 32.261719 55.46875 31.917969 55.46875 31.441406 C 55.46875 30.683594 55.078125 30.261719 54.503906 29.761719 L 53.398438 28.796875 C 52.773438 28.253906 52.382812 27.648438 52.382812 26.671875 C 52.382812 25.285156 53.25 24.507812 54.648438 24.507812 C 56.292969 24.507812 56.757812 25.613281 56.84375 26.890625 L 55.46875 27.128906 C 55.4375 26.304688 55.316406 25.6875 54.613281 25.6875 C 54.136719 25.6875 53.875 26.046875 53.875 26.511719 C 53.875 27.105469 54.125 27.433594 54.589844 27.832031 L 55.6875 28.796875 C 56.402344 29.414062 56.996094 30.183594 56.996094 31.34375 C 56.996094 32.609375 56.109375 33.5 54.796875 33.5 C 53.191406 33.5 52.433594 32.566406 52.367188 30.824219 Z M 57.511719 30.574219 L 57.511719 27.441406 C 57.511719 25.644531 58.089844 24.507812 60.011719 24.507812 C 61.8125 24.507812 62.386719 25.507812 62.386719 27.03125 L 62.386719 27.769531 L 60.851562 27.769531 L 60.851562 27.011719 C 60.851562 26.273438 60.839844 25.675781 60.027344 25.675781 C 59.214844 25.675781 59.128906 26.304688 59.128906 27.105469 L 59.128906 30.910156 C 59.128906 31.863281 59.324219 32.316406 60.027344 32.316406 C 60.816406 32.316406 60.851562 31.699219 60.851562 30.921875 L 60.851562 30.128906 L 62.386719 30.128906 L 62.386719 30.832031 C 62.386719 32.382812 61.867188 33.5 60.015625 33.5 C 58.089844 33.5 57.511719 32.285156 57.511719 30.574219 Z M 63.265625 24.605469 L 64.847656 24.605469 L 64.847656 33.378906 L 63.265625 33.378906 Z M 66.050781 24.605469 L 67.707031 24.605469 L 68.953125 30.683594 L 70.242188 24.605469 L 71.855469 24.605469 L 72.023438 33.378906 L 70.832031 33.378906 L 70.703125 27.28125 L 69.457031 33.378906 L 68.492188 33.378906 L 67.226562 27.257812 L 67.105469 33.378906 L 65.902344 33.378906 Z M 73.035156 24.605469 L 76.722656 24.605469 L 76.722656 25.730469 L 74.628906 25.730469 L 74.628906 28.253906 L 76.277344 28.253906 L 76.277344 29.371094 L 74.628906 29.371094 L 74.628906 32.285156 L 76.742188 32.285156 L 76.742188 33.378906 L 73.035156 33.378906 Z M 77.390625 24.605469 L 78.507812 24.605469 L 80.640625 29.605469 L 80.640625 24.605469 L 81.964844 24.605469 L 81.964844 33.378906 L 80.902344 33.378906 L 78.757812 28.136719 L 78.757812 33.378906 L 77.390625 33.378906 Z M 83.890625 25.785156 L 82.5 25.785156 L 82.5 24.605469 L 86.863281 24.605469 L 86.863281 25.785156 L 85.5 25.785156 L 85.5 33.378906 L 83.898438 33.378906 Z M 87.195312 30.628906 L 87.195312 27.332031 C 87.195312 25.558594 87.847656 24.5 89.730469 24.5 C 91.617188 24.5 92.253906 25.550781 92.253906 27.332031 L 92.253906 30.625 C 92.253906 32.390625 91.605469 33.496094 89.730469 33.496094 C 87.859375 33.496094 87.195312 32.40625 87.195312 30.628906 Z M 90.628906 31.007812 L 90.628906 26.964844 C 90.628906 26.230469 90.511719 25.675781 89.730469 25.675781 C 88.953125 25.675781 88.820312 26.230469 88.820312 26.964844 L 88.820312 31 C 88.820312 31.726562 88.941406 32.3125 89.730469 32.3125 C 90.523438 32.3125 90.628906 31.734375 90.628906 31 Z M 30.167969 38.9375 L 33.851562 38.9375 L 33.851562 40.066406 L 31.75 40.066406 L 31.75 42.589844 L 33.398438 42.589844 L 33.398438 43.703125 L 31.75 43.703125 L 31.75 46.617188 L 33.863281 46.617188 L 33.863281 47.714844 L 30.167969 47.714844 Z M 34.375 44.90625 L 34.375 41.777344 C 34.375 39.976562 34.949219 38.839844 36.875 38.839844 C 38.671875 38.839844 39.246094 39.839844 39.246094 41.363281 L 39.246094 42.101562 L 37.707031 42.101562 L 37.707031 41.34375 C 37.707031 40.605469 37.695312 40.011719 36.882812 40.011719 C 36.070312 40.011719 35.984375 40.636719 35.984375 41.441406 L 35.984375 45.242188 C 35.984375 46.195312 36.179688 46.652344 36.882812 46.652344 C 37.675781 46.652344 37.707031 46.035156 37.707031 45.253906 L 37.707031 44.464844 L 39.246094 44.464844 L 39.246094 45.167969 C 39.246094 46.714844 38.726562 47.832031 36.875 47.832031 C 34.949219 47.832031 34.375 46.617188 34.375 44.90625 Z M 39.941406 44.960938 L 39.941406 41.667969 C 39.941406 39.890625 40.589844 38.832031 42.476562 38.832031 C 44.363281 38.832031 45 39.890625 45 41.667969 L 45 44.960938 C 45 46.726562 44.351562 47.828125 42.476562 47.828125 C 40.601562 47.828125 39.941406 46.738281 39.941406 44.960938 Z M 43.375 45.332031 L 43.375 41.300781 C 43.375 40.5625 43.257812 40.011719 42.476562 40.011719 C 41.695312 40.011719 41.566406 40.5625 41.566406 41.300781 L 41.566406 45.332031 C 41.566406 46.058594 41.6875 46.644531 42.476562 46.644531 C 43.265625 46.644531 43.375 46.066406 43.375 45.332031 Z M 45.898438 38.9375 L 47.015625 38.9375 L 49.148438 43.9375 L 49.148438 38.9375 L 50.472656 38.9375 L 50.472656 47.714844 L 49.410156 47.714844 L 47.265625 42.46875 L 47.265625 47.714844 L 45.898438 47.714844 Z M 51.382812 44.960938 L 51.382812 41.667969 C 51.382812 39.890625 52.03125 38.832031 53.917969 38.832031 C 55.800781 38.832031 56.441406 39.886719 56.441406 41.667969 L 56.441406 44.960938 C 56.441406 46.726562 55.792969 47.828125 53.917969 47.828125 C 52.042969 47.828125 51.382812 46.738281 51.382812 44.960938 Z M 53.246094 36.25 L 54.566406 36.25 L 55.566406 38.25 L 54.472656 38.25 L 53.910156 36.953125 L 53.355469 38.25 L 52.273438 38.25 Z M 54.816406 45.332031 L 54.816406 41.300781 C 54.816406 40.5625 54.695312 40.011719 53.917969 40.011719 C 53.136719 40.011719 53 40.5625 53 41.300781 L 53 45.332031 C 53 46.058594 53.121094 46.644531 53.910156 46.644531 C 54.699219 46.644531 54.816406 46.066406 54.816406 45.332031 Z M 57.46875 38.9375 L 59.128906 38.9375 L 60.375 45.015625 L 61.667969 38.9375 L 63.28125 38.9375 L 63.445312 47.714844 L 62.253906 47.714844 L 62.125 41.613281 L 60.878906 47.714844 L 59.914062 47.714844 L 58.648438 41.589844 L 58.527344 47.714844 L 57.324219 47.714844 Z M 64.5 38.9375 L 66.082031 38.9375 L 66.082031 47.714844 L 64.5 47.714844 Z M 67.015625 44.90625 L 67.015625 41.777344 C 67.015625 39.976562 67.589844 38.839844 69.515625 38.839844 C 71.3125 38.839844 71.886719 39.839844 71.886719 41.363281 L 71.886719 42.101562 L 70.351562 42.101562 L 70.351562 41.34375 C 70.351562 40.605469 70.339844 40.011719 69.527344 40.011719 C 68.714844 40.011719 68.625 40.636719 68.625 41.441406 L 68.625 45.242188 C 68.625 46.195312 68.820312 46.652344 69.527344 46.652344 C 70.316406 46.652344 70.351562 46.035156 70.351562 45.253906 L 70.351562 44.464844 L 71.886719 44.464844 L 71.886719 45.167969 C 71.886719 46.714844 71.367188 47.832031 69.515625 47.832031 C 67.589844 47.832031 67.015625 46.617188 67.015625 44.90625 Z M 72.582031 44.960938 L 72.582031 41.667969 C 72.582031 39.890625 73.234375 38.832031 75.117188 38.832031 C 77.003906 38.832031 77.640625 39.886719 77.640625 41.667969 L 77.640625 44.960938 C 77.640625 46.726562 76.992188 47.828125 75.117188 47.828125 C 73.246094 47.828125 72.582031 46.738281 72.582031 44.960938 Z M 76.015625 45.332031 L 76.015625 41.300781 C 76.015625 40.5625 75.898438 40.011719 75.117188 40.011719 C 74.339844 40.011719 74.207031 40.5625 74.207031 41.300781 L 74.207031 45.332031 C 74.207031 46.058594 74.328125 46.644531 75.117188 46.644531 C 75.910156 46.644531 76.015625 46.066406 76.015625 45.332031 Z M 82.582031 62.851562 L 70.375 74.464844 C 69.914062 74.921875 69.679688 75.257812 69.679688 76.207031 L 69.679688 108.75 C 69.679688 108.941406 69.75 109.105469 69.882812 109.238281 C 70.019531 109.375 70.183594 109.441406 70.375 109.441406 L 82.984375 109.441406 C 83.175781 109.441406 83.339844 109.375 83.472656 109.238281 C 83.609375 109.101562 83.679688 108.941406 83.679688 108.75 L 83.679688 63.144531 C 83.679688 62.761719 83.378906 62.058594 82.582031 62.851562 M 47.421875 77.980469 L 35.210938 89.589844 C 34.753906 90.046875 34.515625 90.386719 34.515625 91.328125 L 34.515625 108.75 C 34.519531 108.941406 34.585938 109.101562 34.722656 109.238281 C 34.855469 109.375 35.019531 109.441406 35.210938 109.441406 L 47.820312 109.441406 C 48.011719 109.441406 48.175781 109.375 48.3125 109.238281 C 48.449219 109.105469 48.515625 108.941406 48.515625 108.75 L 48.515625 78.269531 C 48.515625 77.886719 48.214844 77.183594 47.421875 77.980469 "/><path style=" stroke:none;fill-rule:nonzero;fill:#ffffff;fill-opacity:1;" d="M 88.128906 48.773438 C 88.132812 48.667969 88.097656 48.582031 88.023438 48.507812 C 87.960938 48.449219 87.886719 48.414062 87.800781 48.410156 L 87.632812 48.410156 L 78.285156 50.515625 L 78.121094 50.535156 C 78.050781 50.550781 77.988281 50.582031 77.9375 50.628906 C 77.871094 50.699219 77.835938 50.78125 77.835938 50.878906 C 77.835938 50.976562 77.871094 51.0625 77.9375 51.128906 L 78.042969 51.234375 L 80.179688 53.367188 L 59 74.558594 L 49.214844 64.777344 C 49.160156 64.722656 49.09375 64.695312 49.015625 64.695312 C 48.9375 64.695312 48.871094 64.722656 48.816406 64.777344 L 46.167969 67.433594 L 30.484375 83.113281 C 30.429688 83.167969 30.402344 83.234375 30.402344 83.3125 C 30.402344 83.386719 30.429688 83.453125 30.484375 83.511719 L 33.140625 86.167969 C 33.195312 86.222656 33.261719 86.25 33.339844 86.25 C 33.417969 86.25 33.480469 86.222656 33.535156 86.167969 L 49.019531 70.6875 L 56.117188 77.785156 C 56.125 77.796875 56.132812 77.808594 56.140625 77.816406 L 58.796875 80.46875 C 58.851562 80.527344 58.914062 80.554688 58.996094 80.554688 C 59.074219 80.554688 59.140625 80.527344 59.191406 80.46875 L 83.226562 56.433594 L 85.46875 58.675781 C 85.578125 58.78125 85.703125 58.808594 85.84375 58.753906 C 85.988281 58.699219 86.0625 58.597656 86.070312 58.445312 L 86.070312 58.414062 L 88.121094 48.875 Z M 88.128906 48.773438 "/><path style=" stroke:none;fill-rule:nonzero;fill:#ffffff;fill-opacity:1;" d="M 65.070312 80.015625 L 59.167969 85.972656 C 59.035156 86.082031 58.910156 86.078125 58.785156 85.957031 L 53.433594 80.5 C 52.453125 79.523438 52.242188 80.316406 52.242188 80.699219 L 52.242188 108.746094 C 52.242188 108.9375 52.308594 109.101562 52.445312 109.238281 C 52.578125 109.375 52.742188 109.441406 52.933594 109.441406 L 65.546875 109.441406 C 65.738281 109.441406 65.898438 109.371094 66.035156 109.238281 C 66.171875 109.101562 66.238281 108.9375 66.238281 108.746094 L 66.238281 80.238281 C 66.238281 79.851562 65.9375 79.148438 65.070312 80.015625 "/></g></svg>