<svg xmlns="http://www.w3.org/2000/svg" xmlns:xlink="http://www.w3.org/1999/xlink" width="160" zoomAndPan="magnify" viewBox="0 0 120 119.999999" height="160" preserveAspectRatio="xMidYMid meet" version="1.2"><g id="249fba2d9a"><rect x="0" width="120" y="0" height="119.999999" style="fill:#ffffff;fill-opacity:1;stroke:none;"/><rect x="0" width="120" y="0" height="119.999999" style="fill:#ffffff;fill-opacity:1;stroke:none;"/><rect x="0" width="120" y="0" height="119.999999" style="fill:#fd6925;fill-opacity:1;stroke:none;"/><path style=" stroke:none;fill-rule:nonzero;fill:#ffffff;fill-opacity:1;" d="M 9.527344 27.683594 L 9.527344 27.351562 L 13.667969 27.351562 C 13.667969 29.277344 13.894531 30.214844 15.332031 30.214844 C 16.722656 30.214844 17.035156 29.109375 17.035156 25.566406 L 17.035156 23.238281 C 16.550781 24.058594 15.476562 24.539062 14.144531 24.570312 C 10.433594 24.625 9.15625 21.539062 9.15625 17.738281 C 9.167969 13.09375 10.832031 10 15.332031 10 C 19.695312 10 21.511719 12.976562 21.511719 17.332031 L 21.511719 25.691406 C 21.511719 30.167969 20.234375 33.539062 15.304688 33.539062 C 11.085938 33.550781 9.527344 31.480469 9.527344 27.683594 Z M 17.035156 20.175781 L 17.035156 16.523438 C 17.035156 14.792969 16.75 13.261719 15.335938 13.261719 C 13.890625 13.261719 13.636719 14.738281 13.636719 17.230469 C 13.636719 19.582031 13.664062 21.230469 15.363281 21.230469 C 16.242188 21.226562 16.75 20.667969 17.035156 20.175781 Z M 26.699219 10.113281 L 28.28125 10.113281 L 28.28125 18.886719 L 26.699219 18.886719 Z M 29.074219 10.113281 L 30.1875 10.113281 L 32.324219 15.113281 L 32.324219 10.113281 L 33.644531 10.113281 L 33.644531 18.886719 L 32.582031 18.886719 L 30.4375 13.644531 L 30.4375 18.886719 L 29.074219 18.886719 Z M 34.414062 10.113281 L 36.484375 10.113281 C 38.617188 10.113281 39.265625 10.96875 39.265625 12.84375 L 39.265625 16.039062 C 39.265625 17.96875 38.601562 18.886719 36.546875 18.886719 L 34.414062 18.886719 Z M 36.503906 17.78125 C 37.597656 17.78125 37.640625 17.195312 37.640625 16.101562 L 37.640625 12.734375 C 37.640625 11.683594 37.535156 11.25 36.484375 11.25 L 36 11.25 L 36 17.773438 Z M 39.820312 16.050781 L 39.820312 10.113281 L 41.378906 10.113281 L 41.378906 16.234375 C 41.378906 17.066406 41.476562 17.816406 42.289062 17.816406 C 43.101562 17.816406 43.210938 17.066406 43.210938 16.234375 L 43.210938 10.113281 L 44.761719 10.113281 L 44.761719 16.050781 C 44.761719 17.882812 44.25 19.007812 42.289062 19.007812 C 40.328125 19.007812 39.820312 17.890625 39.820312 16.050781 Z M 42.5 7.332031 L 44 7.332031 L 42.710938 9.5 L 41.855469 9.5 Z M 45.238281 16.332031 L 46.613281 16.0625 C 46.65625 17.101562 46.90625 17.773438 47.613281 17.773438 C 48.121094 17.773438 48.339844 17.429688 48.339844 16.953125 C 48.339844 16.191406 47.949219 15.769531 47.375 15.273438 L 46.269531 14.308594 C 45.640625 13.765625 45.25 13.160156 45.25 12.183594 C 45.25 10.796875 46.117188 10.019531 47.515625 10.019531 C 49.160156 10.019531 49.625 11.125 49.714844 12.402344 L 48.332031 12.636719 C 48.300781 11.816406 48.183594 11.195312 47.476562 11.195312 C 47 11.195312 46.738281 11.554688 46.738281 12.019531 C 46.738281 12.617188 46.988281 12.941406 47.453125 13.339844 L 48.550781 14.308594 C 49.265625 14.921875 49.859375 15.691406 49.859375 16.851562 C 49.859375 18.121094 48.972656 19.007812 47.660156 19.007812 C 46.058594 19.007812 45.300781 18.078125 45.238281 16.332031 Z M 51.117188 11.296875 L 49.71875 11.296875 L 49.71875 10.113281 L 54.085938 10.113281 L 54.085938 11.296875 L 52.722656 11.296875 L 52.722656 18.886719 L 51.117188 18.886719 Z M 54.332031 10.113281 L 56.445312 10.113281 C 58.199219 10.113281 59.195312 10.675781 59.195312 12.445312 C 59.195312 13.496094 58.9375 14.234375 58.113281 14.570312 L 59.332031 18.886719 L 57.730469 18.886719 L 56.679688 14.871094 L 55.917969 14.871094 L 55.917969 18.886719 L 54.332031 18.886719 Z M 56.433594 13.875 C 57.355469 13.875 57.691406 13.472656 57.691406 12.53125 C 57.691406 11.640625 57.441406 11.207031 56.523438 11.207031 L 55.917969 11.207031 L 55.917969 13.875 Z M 59.882812 10.113281 L 61.464844 10.113281 L 61.464844 18.886719 L 59.882812 18.886719 Z M 63.566406 10.113281 L 65.277344 10.113281 L 67.03125 18.886719 L 65.546875 18.886719 L 65.203125 16.863281 L 63.667969 16.863281 L 63.308594 18.886719 L 61.808594 18.886719 Z M 65.027344 15.84375 L 64.433594 12.167969 L 63.832031 15.84375 Z M 67.214844 19.820312 C 67.433594 19.773438 67.605469 19.660156 67.742188 19.484375 C 67.875 19.308594 67.933594 19.109375 67.921875 18.886719 L 67.140625 18.886719 L 67.140625 17.425781 L 68.582031 17.425781 L 68.582031 18.761719 C 68.582031 19.691406 68.179688 20.203125 67.367188 20.351562 Z M 71.203125 10.113281 L 72.785156 10.113281 L 72.785156 18.886719 L 71.203125 18.886719 Z M 73.574219 10.113281 L 74.691406 10.113281 L 76.824219 15.113281 L 76.824219 10.113281 L 78.148438 10.113281 L 78.148438 18.886719 L 77.085938 18.886719 L 74.941406 13.644531 L 74.941406 18.886719 L 73.574219 18.886719 Z M 78.773438 16.136719 L 78.773438 12.84375 C 78.773438 11.066406 79.425781 10.011719 81.308594 10.011719 C 83.195312 10.011719 83.832031 11.066406 83.832031 12.84375 L 83.832031 16.136719 C 83.832031 17.902344 83.183594 19.007812 81.308594 19.007812 C 79.433594 19.007812 78.773438 17.914062 78.773438 16.136719 Z M 82.210938 16.515625 L 82.210938 12.476562 C 82.210938 11.738281 82.089844 11.1875 81.308594 11.1875 C 80.53125 11.1875 80.398438 11.738281 80.398438 12.476562 L 80.398438 16.515625 C 80.398438 17.242188 80.519531 17.828125 81.308594 17.828125 C 82.101562 17.828125 82.210938 17.242188 82.210938 16.515625 Z M 84 10.113281 L 85.410156 10.113281 L 86.574219 16.320312 L 87.667969 10.113281 L 89.109375 10.113281 L 87.332031 18.886719 L 85.761719 18.886719 Z M 90.421875 10.113281 L 92.132812 10.113281 L 93.886719 18.886719 L 92.402344 18.886719 L 92.058594 16.863281 L 90.527344 16.863281 L 90.167969 18.886719 L 88.667969 18.886719 Z M 91.882812 15.84375 L 91.289062 12.167969 L 90.691406 15.851562 Z M 97.34375 13.277344 L 97.34375 12.519531 C 97.34375 11.78125 97.332031 11.183594 96.519531 11.183594 C 95.707031 11.183594 95.621094 11.8125 95.621094 12.613281 L 95.621094 16.417969 C 95.621094 17.371094 95.816406 17.828125 96.519531 17.828125 C 97.3125 17.828125 97.34375 17.210938 97.34375 16.429688 L 97.34375 15.636719 L 98.882812 15.636719 L 98.882812 16.34375 C 98.882812 17.828125 98.40625 18.921875 96.726562 19.011719 L 96.726562 19.550781 C 97.527344 19.550781 98.070312 19.910156 98.070312 20.578125 C 98.070312 21.351562 97.386719 21.675781 96.597656 21.675781 C 96.332031 21.671875 96.070312 21.632812 95.816406 21.554688 L 95.816406 20.875 C 96.007812 20.933594 96.203125 20.960938 96.402344 20.960938 C 96.78125 20.960938 97.066406 20.851562 97.066406 20.558594 C 97.066406 20.167969 96.625 20.027344 96.113281 19.972656 L 96.113281 18.988281 C 94.5 18.824219 94 17.667969 94 16.082031 L 94 12.953125 C 94 11.152344 94.574219 10.015625 96.5 10.015625 C 98.296875 10.015625 98.871094 11.015625 98.871094 12.539062 L 98.871094 13.277344 Z M 100.746094 10.113281 L 102.457031 10.113281 L 104.210938 18.886719 L 102.726562 18.886719 L 102.382812 16.863281 L 100.851562 16.863281 L 100.5 18.886719 L 99 18.886719 Z M 101.078125 8.457031 C 100.796875 8.457031 100.699219 8.625 100.699219 8.898438 L 99.941406 8.898438 C 99.941406 8.121094 100.160156 7.535156 100.863281 7.535156 C 101.394531 7.535156 101.75 8.035156 102.214844 8.035156 C 102.464844 8.035156 102.5625 7.882812 102.5625 7.601562 L 103.277344 7.601562 C 103.277344 8.285156 103.160156 8.964844 102.453125 8.964844 C 101.894531 8.964844 101.523438 8.457031 101.078125 8.457031 Z M 102.207031 15.84375 L 101.613281 12.167969 L 101.015625 15.851562 Z M 104.296875 16.136719 L 104.296875 12.84375 C 104.296875 11.066406 104.949219 10.011719 106.832031 10.011719 C 108.71875 10.011719 109.355469 11.058594 109.355469 12.84375 L 109.355469 16.136719 C 109.355469 17.902344 108.707031 19.007812 106.832031 19.007812 C 104.960938 19.007812 104.296875 17.914062 104.296875 16.136719 Z M 107.730469 16.515625 L 107.730469 12.476562 C 107.730469 11.738281 107.613281 11.1875 106.832031 11.1875 C 106.054688 11.1875 105.921875 11.738281 105.921875 12.476562 L 105.921875 16.515625 C 105.921875 17.242188 106.042969 17.828125 106.832031 17.828125 C 107.625 17.828125 107.730469 17.242188 107.730469 16.515625 Z M 26.65625 24.445312 L 30.332031 24.445312 L 30.332031 25.574219 L 28.25 25.574219 L 28.25 28.097656 L 29.898438 28.097656 L 29.898438 29.214844 L 28.25 29.214844 L 28.25 32.128906 L 30.363281 32.128906 L 30.363281 33.222656 L 26.65625 33.222656 Z M 32.84375 24.445312 L 34.425781 24.445312 L 34.425781 33.222656 L 32.84375 33.222656 Z M 35.214844 24.445312 L 36.332031 24.445312 L 38.464844 29.445312 L 38.464844 24.445312 L 39.789062 24.445312 L 39.789062 33.222656 L 38.726562 33.222656 L 36.582031 27.976562 L 36.582031 33.222656 L 35.214844 33.222656 Z M 40.558594 24.445312 L 44.167969 24.445312 L 44.167969 25.550781 L 42.148438 25.550781 L 42.148438 28.109375 L 43.796875 28.109375 L 43.796875 29.226562 L 42.148438 29.226562 L 42.148438 33.226562 L 40.558594 33.226562 Z M 44.464844 24.445312 L 46.578125 24.445312 C 48.335938 24.445312 49.332031 25.011719 49.332031 26.78125 C 49.332031 27.828125 49.070312 28.566406 48.25 28.902344 L 49.472656 33.226562 L 47.867188 33.226562 L 46.816406 29.207031 L 46.058594 29.207031 L 46.058594 33.226562 L 44.464844 33.226562 Z M 46.566406 28.207031 C 47.488281 28.207031 47.824219 27.804688 47.824219 26.863281 C 47.824219 25.976562 47.578125 25.542969 46.660156 25.542969 L 46.0625 25.542969 L 46.0625 28.207031 Z M 51.292969 24.445312 L 53 24.445312 L 54.753906 33.222656 L 53.273438 33.222656 L 52.925781 31.195312 L 51.398438 31.195312 L 51.042969 33.222656 L 49.542969 33.222656 Z M 52.753906 30.179688 L 52.167969 26.5 L 51.570312 30.183594 Z M 55.070312 24.445312 L 58.753906 24.445312 L 58.753906 25.574219 L 56.667969 25.574219 L 56.667969 28.097656 L 58.3125 28.097656 L 58.3125 29.214844 L 56.667969 29.214844 L 56.667969 32.128906 L 58.777344 32.128906 L 58.777344 33.222656 L 55.070312 33.222656 Z M 58.929688 30.667969 L 60.304688 30.398438 C 60.347656 31.4375 60.597656 32.109375 61.304688 32.109375 C 61.8125 32.109375 62.03125 31.761719 62.03125 31.285156 C 62.03125 30.527344 61.640625 30.101562 61.066406 29.605469 L 59.960938 28.640625 C 59.332031 28.101562 58.941406 27.492188 58.941406 26.519531 C 58.941406 25.132812 59.808594 24.351562 61.207031 24.351562 C 62.851562 24.351562 63.320312 25.457031 63.40625 26.734375 L 62.03125 26.972656 C 62 26.148438 61.878906 25.53125 61.175781 25.53125 C 60.699219 25.53125 60.4375 25.890625 60.4375 26.355469 C 60.4375 26.953125 60.6875 27.277344 61.152344 27.675781 L 62.246094 28.640625 C 62.960938 29.257812 63.558594 30.027344 63.558594 31.1875 C 63.558594 32.453125 62.671875 33.34375 61.359375 33.34375 C 59.75 33.339844 59 32.410156 58.929688 30.667969 Z M 64.8125 25.628906 L 63.414062 25.628906 L 63.414062 24.445312 L 67.78125 24.445312 L 67.78125 25.628906 L 66.414062 25.628906 L 66.414062 33.222656 L 64.8125 33.222656 Z M 68.019531 24.445312 L 70.128906 24.445312 C 71.886719 24.445312 72.882812 25.011719 72.882812 26.78125 C 72.882812 27.828125 72.621094 28.566406 71.796875 28.902344 L 73.023438 33.226562 L 71.421875 33.226562 L 70.367188 29.207031 L 69.609375 29.207031 L 69.609375 33.226562 L 68.019531 33.226562 Z M 70.121094 28.207031 C 71.039062 28.207031 71.375 27.804688 71.375 26.863281 C 71.375 25.976562 71.125 25.542969 70.210938 25.542969 L 69.613281 25.542969 L 69.613281 28.207031 Z M 73.433594 30.382812 L 73.433594 24.445312 L 75 24.445312 L 75 30.566406 C 75 31.402344 75.097656 32.148438 75.910156 32.148438 C 76.722656 32.148438 76.828125 31.402344 76.828125 30.566406 L 76.828125 24.445312 L 78.378906 24.445312 L 78.378906 30.382812 C 78.378906 32.214844 77.871094 33.339844 75.910156 33.339844 C 73.949219 33.339844 73.433594 32.226562 73.433594 30.382812 Z M 79.945312 25.628906 L 78.546875 25.628906 L 78.546875 24.445312 L 82.914062 24.445312 L 82.914062 25.628906 L 81.546875 25.628906 L 81.546875 33.222656 L 79.945312 33.222656 Z M 83.085938 30.382812 L 83.085938 24.445312 L 84.648438 24.445312 L 84.648438 30.566406 C 84.648438 31.402344 84.746094 32.148438 85.558594 32.148438 C 86.367188 32.148438 86.476562 31.402344 86.476562 30.566406 L 86.476562 24.445312 L 88.027344 24.445312 L 88.027344 30.382812 C 88.027344 32.214844 87.527344 33.339844 85.558594 33.339844 C 83.585938 33.339844 83.085938 32.226562 83.085938 30.382812 Z M 88.71875 24.445312 L 90.832031 24.445312 C 92.589844 24.445312 93.585938 25.011719 93.585938 26.78125 C 93.585938 27.828125 93.324219 28.566406 92.5 28.902344 L 93.726562 33.226562 L 92.121094 33.226562 L 91.070312 29.207031 L 90.3125 29.207031 L 90.3125 33.226562 L 88.71875 33.226562 Z M 90.820312 28.207031 C 91.742188 28.207031 92.078125 27.804688 92.078125 26.863281 C 92.078125 25.976562 91.828125 25.542969 90.910156 25.542969 L 90.316406 25.542969 L 90.316406 28.207031 Z M 95.546875 24.445312 L 97.257812 24.445312 L 99.011719 33.222656 L 97.527344 33.222656 L 97.183594 31.195312 L 95.652344 31.195312 L 95.296875 33.222656 L 93.796875 33.222656 Z M 97 30.179688 L 96.410156 26.5 L 95.816406 30.183594 Z M 90.886719 79.015625 L 76.511719 70.722656 L 76.511719 54.125 C 76.515625 53.75 76.351562 53.464844 76.023438 53.277344 L 61.167969 44.695312 C 60.839844 44.507812 60.511719 44.507812 60.1875 44.695312 L 45.324219 53.277344 C 44.996094 53.464844 44.832031 53.75 44.835938 54.125 L 44.835938 70.722656 L 30.460938 79.015625 C 30.132812 79.203125 29.96875 79.488281 29.96875 79.863281 L 29.96875 97.03125 C 29.96875 97.410156 30.132812 97.691406 30.460938 97.882812 L 45.320312 106.460938 C 45.648438 106.648438 45.976562 106.648438 46.300781 106.460938 L 60.667969 98.167969 L 75.035156 106.460938 C 75.1875 106.550781 75.351562 106.59375 75.527344 106.59375 C 75.703125 106.59375 75.863281 106.550781 76.015625 106.460938 L 90.878906 97.882812 C 91.207031 97.695312 91.371094 97.410156 91.371094 97.035156 L 91.371094 79.867188 C 91.375 79.488281 91.210938 79.207031 90.886719 79.015625 Z M 59.691406 95.332031 L 47.773438 88.453125 L 59.691406 81.566406 Z M 73.570312 71.292969 L 61.652344 78.167969 L 61.652344 64.40625 Z M 59.691406 78.167969 L 47.773438 71.285156 L 59.691406 64.402344 Z M 62.636719 79.863281 L 75.535156 72.417969 L 88.433594 79.863281 L 75.535156 87.3125 Z M 74.554688 69.585938 L 62.636719 62.703125 L 74.554688 55.832031 Z M 58.710938 62.703125 L 46.792969 69.589844 L 46.792969 55.832031 Z M 44.832031 103.910156 L 31.933594 96.464844 L 31.933594 81.566406 L 44.832031 89.011719 Z M 46.792969 103.910156 L 46.792969 90.148438 L 58.714844 97.027344 Z M 89.417969 96.464844 L 76.511719 103.910156 L 76.511719 89.011719 L 89.417969 81.566406 Z M 89.417969 96.464844 "/></g></svg>